<mxfile host="65bd71144e">
    <diagram id="WZnp2MRiSoSj1XJ5pfcq" name="Page-1">
        <mxGraphModel dx="1285" dy="800" grid="1" gridSize="10" guides="1" tooltips="1" connect="1" arrows="1" fold="1" page="1" pageScale="1" pageWidth="850" pageHeight="1100" math="0" shadow="0">
            <root>
                <mxCell id="0"/>
                <mxCell id="1" parent="0"/>
                <mxCell id="66" value="" style="rounded=0;whiteSpace=wrap;html=1;strokeWidth=0;fillColor=#DDECFF;strokeColor=#6c8ebf;" parent="1" vertex="1">
                    <mxGeometry x="148.27" y="100" width="1170" height="130" as="geometry"/>
                </mxCell>
                <mxCell id="65" value="" style="rounded=0;whiteSpace=wrap;html=1;strokeWidth=0;fillColor=#d5e8d4;strokeColor=#82b366;" parent="1" vertex="1">
                    <mxGeometry x="150" y="230" width="1170" height="240" as="geometry"/>
                </mxCell>
                <mxCell id="64" value="" style="rounded=0;whiteSpace=wrap;html=1;strokeWidth=0;fillColor=#CCFFFF;" parent="1" vertex="1">
                    <mxGeometry x="150" y="470" width="1170" height="300" as="geometry"/>
                </mxCell>
                <mxCell id="3" value="&lt;font face=&quot;Segoe UI&quot;&gt;Dev&lt;/font&gt;" style="rounded=0;whiteSpace=wrap;html=1;strokeWidth=3;align=center;verticalAlign=top;spacingLeft=0;fontSize=19;fontStyle=1" parent="1" vertex="1">
                    <mxGeometry x="350" y="260" width="290" height="480" as="geometry"/>
                </mxCell>
                <mxCell id="26" value="Azure Resource Group" style="rounded=0;whiteSpace=wrap;html=1;align=left;verticalAlign=top;spacingLeft=5;fontStyle=1;fontSize=14;labelBorderColor=none;dashed=1;fontFamily=Segoe UI;" parent="1" vertex="1">
                    <mxGeometry x="370.5" y="490" width="250" height="230" as="geometry"/>
                </mxCell>
                <mxCell id="12" value="Fabric Workspace" style="rounded=0;whiteSpace=wrap;html=1;align=left;verticalAlign=top;spacingLeft=5;fontStyle=1;fontSize=14;labelBorderColor=none;dashed=1;fontFamily=Segoe UI;" parent="1" vertex="1">
                    <mxGeometry x="370" y="310" width="250" height="140" as="geometry"/>
                </mxCell>
                <mxCell id="2" value="Microsoft Fabric" style="shape=image;verticalLabelPosition=bottom;verticalAlign=top;imageAspect=0;aspect=fixed;image=data:image/svg+xml,PHN2ZyB4bWxucz0iaHR0cDovL3d3dy53My5vcmcvMjAwMC9zdmciIGZpbGw9Im5vbmUiIHZpZXdCb3g9IjAgMCAyNTYgMjU2IiBoZWlnaHQ9IjI1NiIgd2lkdGg9IjI1NiI+JiN4YTs8ZyBjbGlwLXBhdGg9InVybCgjY2xpcDBfMTI2M18xMjQ1OTApIj4mI3hhOzxwYXRoIGZpbGw9InVybCgjcGFpbnQwX2xpbmVhcl8xMjYzXzEyNDU5MCkiIGQ9Ik0xMC40OTYgMTc2LjYzNEw2Ljc0NjY5IDE5MC4zNTZDNS4zNDkzNyAxOTQuNzQ2IDMuMzkyMDUgMjAxLjE5NCAyLjMzNjA2IDIwNi45MzJDMC44MzIwNjkgMjEwLjkgMC4wMTA3NDIyIDIxNS4yMDQgMC4wMTA3NDIyIDIxOS43QzAuMDEwNzQyMiAyMzguMjM5IDE0LjAxNiAyNTMuNTAyIDMyLjAyMTIgMjU1LjQ5N0MzNy4wODc4IDI1Ni4yMjggNDIuODIxMSAyNTYuMTkgNDkuMjQ3NyAyNTUuMjQ2TDc4Ljc3MjggMjUxLjE3MkM4Ni4xOTY3IDI1MC4xNDggOTIuMjkyNyAyNDQuNzg4IDk0LjI2NiAyMzcuNTU2TDExNC41ODYgMTYyLjkyMkwxMC40OTYgMTc2LjYzNFoiIGNsaXAtcnVsZT0iZXZlbm9kZCIgZmlsbC1ydWxlPSJldmVub2RkIi8+JiN4YTs8cGF0aCBmaWxsPSJ1cmwoI3BhaW50MV9saW5lYXJfMTI2M18xMjQ1OTApIiBkPSJNMzkuMjk0MiAxODAuMTdDOC4xNzQ0NCAxODQuOTkxIDEuNzg1MTYgMjA4LjQ3NCAxLjc4NTE2IDIwOC40NzRMMzEuNTg3NiA5OC45NzA4TDE4Ny4zMTQgNzcuOTA0M0wxNjYuMDc3IDE1NS4wNEMxNjQuOTczIDE1OS4xNzMgMTYxLjUwMSAxNjIuMzQxIDE1Ny4xOTcgMTYyLjk5N0wxNTYuMzI4IDE2My4xNDFMMzguNDE5NSAxODAuMzJMMzkuMjk0MiAxODAuMTdaIi8+JiN4YTs8cGF0aCBmaWxsLW9wYWNpdHk9IjAuOCIgZmlsbD0idXJsKCNwYWludDJfbGluZWFyXzEyNjNfMTI0NTkwKSIgZD0iTTM5LjI5NDIgMTgwLjE3QzguMTc0NDQgMTg0Ljk5MSAxLjc4NTE2IDIwOC40NzQgMS43ODUxNiAyMDguNDc0TDMxLjU4NzYgOTguOTcwOEwxODcuMzE0IDc3LjkwNDNMMTY2LjA3NyAxNTUuMDRDMTY0Ljk3MyAxNTkuMTczIDE2MS41MDEgMTYyLjM0MSAxNTcuMTk3IDE2Mi45OTdMMTU2LjMyOCAxNjMuMTQxTDM4LjQxOTUgMTgwLjMyTDM5LjI5NDIgMTgwLjE3WiIvPiYjeGE7PHBhdGggZmlsbD0idXJsKCNwYWludDNfbGluZWFyXzEyNjNfMTI0NTkwKSIgZD0iTTU2Ljk1MzIgMTEwLjMwM0wyMjkuMzUyIDg0LjgzNjdDMjMzLjQ1MyA4NC4yNzY3IDIzNi43NzYgODEuMjc0IDIzNy44MjEgNzcuMzQzNEwyNTUuNjEzIDEyLjk1NDZDMjU1Ljg1OCAxMi4wNzk5IDI1NS45ODYgMTEuMTU3MiAyNTUuOTg2IDEwLjIwNzlDMjU1Ljk4NiA0LjU3MDYzIDI1MS40MjEgMCAyNDUuNzc4IDBDMjQ1LjM0MSAwIDI0NC45MDQgMC4wMjY2NjY1IDI0NC40ODIgMC4wNzk5OTk0TDc5Ljk4MjQgMjQuMzg5MUM2Mi4xMTU4IDI3LjI1ODUgNDcuNjg5MyA0MC40MzcgNDMuMDA2NyA1Ny42MjYyTDE5LjI4NDIgMTQzLjYwNEMyNC4wNDY4IDEyNi4yMTIgMjYuOTc0OCAxMTUuNzI3IDU2Ljk1MzIgMTEwLjMwM1oiLz4mI3hhOzxwYXRoIGZpbGw9InVybCgjcGFpbnQ0X2xpbmVhcl8xMjYzXzEyNDU5MCkiIGQ9Ik01Ni45NTMyIDExMC4zMDNMMjI5LjM1MiA4NC44MzY3QzIzMy40NTMgODQuMjc2NyAyMzYuNzc2IDgxLjI3NCAyMzcuODIxIDc3LjM0MzRMMjU1LjYxMyAxMi45NTQ2QzI1NS44NTggMTIuMDc5OSAyNTUuOTg2IDExLjE1NzIgMjU1Ljk4NiAxMC4yMDc5QzI1NS45ODYgNC41NzA2MyAyNTEuNDIxIDAgMjQ1Ljc3OCAwQzI0NS4zNDEgMCAyNDQuOTA0IDAuMDI2NjY2NSAyNDQuNDgyIDAuMDc5OTk5NEw3OS45ODI0IDI0LjM4OTFDNjIuMTE1OCAyNy4yNTg1IDQ3LjY4OTMgNDAuNDM3IDQzLjAwNjcgNTcuNjI2MkwxOS4yODQyIDE0My42MDRDMjQuMDQ2OCAxMjYuMjEyIDI2Ljk3NDggMTE1LjcyNyA1Ni45NTMyIDExMC4zMDNaIi8+JiN4YTs8cGF0aCBmaWxsPSJ1cmwoI3BhaW50NV9saW5lYXJfMTI2M18xMjQ1OTApIiBkPSJNNTYuOTUzMiAxMTAuMzAzTDIyOS4zNTIgODQuODM2N0MyMzMuNDUzIDg0LjI3NjcgMjM2Ljc3NiA4MS4yNzQgMjM3LjgyMSA3Ny4zNDM0TDI1NS42MTMgMTIuOTU0NkMyNTUuODU4IDEyLjA3OTkgMjU1Ljk4NiAxMS4xNTcyIDI1NS45ODYgMTAuMjA3OUMyNTUuOTg2IDQuNTcwNjMgMjUxLjQyMSAwIDI0NS43NzggMEMyNDUuMzQxIDAgMjQ0LjkwNCAwLjAyNjY2NjUgMjQ0LjQ4MiAwLjA3OTk5OTRMNzkuOTgyNCAyNC4zODkxQzYyLjExNTggMjcuMjU4NSA0Ny42ODkzIDQwLjQzNyA0My4wMDY3IDU3LjYyNjJMMTkuMjg0MiAxNDMuNjA0QzI0LjA0NjggMTI2LjIxMiAyNi45NzQ4IDExNS43MjcgNTYuOTUzMiAxMTAuMzAzWiIvPiYjeGE7PHBhdGggZmlsbD0idXJsKCNwYWludDZfbGluZWFyXzEyNjNfMTI0NTkwKSIgZD0iTTU2Ljk1MzIgMTEwLjMwM0wyMjkuMzUyIDg0LjgzNjdDMjMzLjQ1MyA4NC4yNzY3IDIzNi43NzYgODEuMjc0IDIzNy44MjEgNzcuMzQzNEwyNTUuNjEzIDEyLjk1NDZDMjU1Ljg1OCAxMi4wNzk5IDI1NS45ODYgMTEuMTU3MiAyNTUuOTg2IDEwLjIwNzlDMjU1Ljk4NiA0LjU3MDYzIDI1MS40MjEgMCAyNDUuNzc4IDBDMjQ1LjM0MSAwIDI0NC45MDQgMC4wMjY2NjY1IDI0NC40ODIgMC4wNzk5OTk0TDc5Ljk4MjQgMjQuMzg5MUM2Mi4xMTU4IDI3LjI1ODUgNDcuNjg5MyA0MC40MzcgNDMuMDA2NyA1Ny42MjYyTDE5LjI4NDIgMTQzLjYwNEMyNC4wNDY4IDEyNi4yMTIgMjYuOTc0OCAxMTUuNzI3IDU2Ljk1MzIgMTEwLjMwM1oiLz4mI3hhOzxwYXRoIGZpbGw9InVybCgjcGFpbnQ3X2xpbmVhcl8xMjYzXzEyNDU5MCkiIGQ9Ik01Ni45NTMyIDExMC4zMDNMMjI5LjM1MiA4NC44MzY3QzIzMy40NTMgODQuMjc2NyAyMzYuNzc2IDgxLjI3NCAyMzcuODIxIDc3LjM0MzRMMjU1LjYxMyAxMi45NTQ2QzI1NS44NTggMTIuMDc5OSAyNTUuOTg2IDExLjE1NzIgMjU1Ljk4NiAxMC4yMDc5QzI1NS45ODYgNC41NzA2MyAyNTEuNDIxIDAgMjQ1Ljc3OCAwQzI0NS4zNDEgMCAyNDQuOTA0IDAuMDI2NjY2NSAyNDQuNDgyIDAuMDc5OTk5NEw3OS45ODI0IDI0LjM4OTFDNjIuMTE1OCAyNy4yNTg1IDQ3LjY4OTMgNDAuNDM3IDQzLjAwNjcgNTcuNjI2MkwxOS4yODQyIDE0My42MDRDMjQuMDQ2OCAxMjYuMjEyIDI2Ljk3NDggMTE1LjcyNyA1Ni45NTMyIDExMC4zMDNaIi8+JiN4YTs8cGF0aCBmaWxsPSJ1cmwoI3BhaW50OF9saW5lYXJfMTI2M18xMjQ1OTApIiBkPSJNNTYuOTUzMiAxMTAuMzAzTDIyOS4zNTIgODQuODM2N0MyMzMuNDUzIDg0LjI3NjcgMjM2Ljc3NiA4MS4yNzQgMjM3LjgyMSA3Ny4zNDM0TDI1NS42MTMgMTIuOTU0NkMyNTUuODU4IDEyLjA3OTkgMjU1Ljk4NiAxMS4xNTcyIDI1NS45ODYgMTAuMjA3OUMyNTUuOTg2IDQuNTcwNjMgMjUxLjQyMSAwIDI0NS43NzggMEMyNDUuMzQxIDAgMjQ0LjkwNCAwLjAyNjY2NjUgMjQ0LjQ4MiAwLjA3OTk5OTRMNzkuOTgyNCAyNC4zODkxQzYyLjExNTggMjcuMjU4NSA0Ny42ODkzIDQwLjQzNyA0My4wMDY3IDU3LjYyNjJMMTkuMjg0MiAxNDMuNjA0QzI0LjA0NjggMTI2LjIxMiAyNi45NzQ4IDExNS43MjcgNTYuOTUzMiAxMTAuMzAzWiIvPiYjeGE7PHBhdGggZmlsbC1vcGFjaXR5PSIwLjQiIGZpbGw9InVybCgjcGFpbnQ5X2xpbmVhcl8xMjYzXzEyNDU5MCkiIGQ9Ik01Ni45NTMyIDExMC4zMDNMMjI5LjM1MiA4NC44MzY3QzIzMy40NTMgODQuMjc2NyAyMzYuNzc2IDgxLjI3NCAyMzcuODIxIDc3LjM0MzRMMjU1LjYxMyAxMi45NTQ2QzI1NS44NTggMTIuMDc5OSAyNTUuOTg2IDExLjE1NzIgMjU1Ljk4NiAxMC4yMDc5QzI1NS45ODYgNC41NzA2MyAyNTEuNDIxIDAgMjQ1Ljc3OCAwQzI0NS4zNDEgMCAyNDQuOTA0IDAuMDI2NjY2NSAyNDQuNDgyIDAuMDc5OTk5NEw3OS45ODI0IDI0LjM4OTFDNjIuMTE1OCAyNy4yNTg1IDQ3LjY4OTMgNDAuNDM3IDQzLjAwNjcgNTcuNjI2MkwxOS4yODQyIDE0My42MDRDMjQuMDQ2OCAxMjYuMjEyIDI2Ljk3NDggMTE1LjcyNyA1Ni45NTMyIDExMC4zMDNaIi8+JiN4YTs8cGF0aCBmaWxsPSJ1cmwoI3BhaW50MTBfbGluZWFyXzEyNjNfMTI0NTkwKSIgZD0iTTU2Ljk1MjcgMTEwLjMwOUMzMS45ODc2IDExNC44MjcgMjUuNzkwMyAxMjIuODY5IDIxLjY2MjMgMTM1LjQ3MkwxLjc4NTE2IDIwOC40OUMxLjc4NTE2IDIwOC40OSA4LjEzNzExIDE4NS4yNDIgMzguODc4MiAxODAuMjcxTDE1Ni4zMzMgMTYzLjE2MkwxNTcuMjAzIDE2My4wMThDMTYxLjUwNyAxNjIuMzYyIDE2NC45NzkgMTU5LjE4OSAxNjYuMDgzIDE1NS4wNjFMMTgzLjU1NCA5MS42MDU1TDU2Ljk1ODEgMTEwLjMwOUg1Ni45NTI3WiIvPiYjeGE7PHBhdGggZmlsbC1vcGFjaXR5PSIwLjIiIGZpbGw9InVybCgjcGFpbnQxMV9saW5lYXJfMTI2M18xMjQ1OTApIiBkPSJNNTYuOTUyNyAxMTAuMzA5QzMxLjk4NzYgMTE0LjgyNyAyNS43OTAzIDEyMi44NjkgMjEuNjYyMyAxMzUuNDcyTDEuNzg1MTYgMjA4LjQ5QzEuNzg1MTYgMjA4LjQ5IDguMTM3MTEgMTg1LjI0MiAzOC44NzgyIDE4MC4yNzFMMTU2LjMzMyAxNjMuMTYyTDE1Ny4yMDMgMTYzLjAxOEMxNjEuNTA3IDE2Mi4zNjIgMTY0Ljk3OSAxNTkuMTg5IDE2Ni4wODMgMTU1LjA2MUwxODMuNTU0IDkxLjYwNTVMNTYuOTU4MSAxMTAuMzA5SDU2Ljk1MjdaIi8+JiN4YTs8cGF0aCBmaWxsPSJ1cmwoI3BhaW50MTJfbGluZWFyXzEyNjNfMTI0NTkwKSIgZD0iTTM4Ljg3OTggMTgwLjI3MkMxMi45MDEzIDE4NC40NzUgNC4zNjgwNCAyMDEuNjggMi4zMzYwNiAyMDYuOTIzQzAuODMyMDY5IDIxMC45MDEgMC4wMTA3NDIyIDIxNS4yMDUgMC4wMTA3NDIyIDIxOS43MDFDMC4wMTA3NDIyIDIzOC4yNCAxNC4wMTYgMjUzLjUwNCAzMi4wMjEyIDI1NS40OThDMzcuMDg3OCAyNTYuMjI5IDQyLjgyMTEgMjU2LjE5MiA0OS4yNDc3IDI1NS4yNDhMNzguNzcyOCAyNTEuMTczQzg2LjE5NjcgMjUwLjE0OSA5Mi4yOTI3IDI0NC43ODkgOTQuMjY2IDIzNy41NTdMMTEyLjc4OSAxNjkuNTFMMzguODg1MSAxODAuMjc4TDM4Ljg3OTggMTgwLjI3MloiIGNsaXAtcnVsZT0iZXZlbm9kZCIgZmlsbC1ydWxlPSJldmVub2RkIi8+JiN4YTs8L2c+JiN4YTs8ZGVmcz4mI3hhOzxsaW5lYXJHcmFkaWVudCBncmFkaWVudFVuaXRzPSJ1c2VyU3BhY2VPblVzZSIgeTI9IjE2Mi45MjIiIHgyPSI1Ny4yOTU2IiB5MT0iMjU2LjAwNCIgeDE9IjU3LjI5NTYiIGlkPSJwYWludDBfbGluZWFyXzEyNjNfMTI0NTkwIj4mI3hhOzxzdG9wIHN0b3AtY29sb3I9IiMyQUFDOTQiIG9mZnNldD0iMC4wNTYiLz4mI3hhOzxzdG9wIHN0b3AtY29sb3I9IiMyMzlDODciIG9mZnNldD0iMC4xNTUiLz4mI3hhOzxzdG9wIHN0b3AtY29sb3I9IiMxNzdFNzEiIG9mZnNldD0iMC4zNzIiLz4mI3hhOzxzdG9wIHN0b3AtY29sb3I9IiMwRTY5NjEiIG9mZnNldD0iMC41ODgiLz4mI3hhOzxzdG9wIHN0b3AtY29sb3I9IiMwOTVENTciIG9mZnNldD0iMC43OTkiLz4mI3hhOzxzdG9wIHN0b3AtY29sb3I9IiMwODU5NTQiIG9mZnNldD0iMSIvPiYjeGE7PC9saW5lYXJHcmFkaWVudD4mI3hhOzxsaW5lYXJHcmFkaWVudCBncmFkaWVudFVuaXRzPSJ1c2VyU3BhY2VPblVzZSIgeTI9IjkwLjcwNDIiIHgyPSI4NS4wMzI1IiB5MT0iMTg4LjQ2NSIgeDE9IjE3NC45MTYiIGlkPSJwYWludDFfbGluZWFyXzEyNjNfMTI0NTkwIj4mI3hhOzxzdG9wIHN0b3AtY29sb3I9IiNBQkU4OEUiIG9mZnNldD0iMC4wNDE3NDc4Ii8+JiN4YTs8c3RvcCBzdG9wLWNvbG9yPSIjMkFBQTkyIiBvZmZzZXQ9IjAuNTQ4OTI2Ii8+JiN4YTs8c3RvcCBzdG9wLWNvbG9yPSIjMTE3ODY1IiBvZmZzZXQ9IjAuOTA2Ii8+JiN4YTs8L2xpbmVhckdyYWRpZW50PiYjeGE7PGxpbmVhckdyYWRpZW50IGdyYWRpZW50VW5pdHM9InVzZXJTcGFjZU9uVXNlIiB5Mj0iMTU0LjU0MiIgeDI9IjM5LjU3MTEiIHkxPSIxODMuNzEyIiB4MT0iLTQ1Ljk2NiIgaWQ9InBhaW50Ml9saW5lYXJfMTI2M18xMjQ1OTAiPiYjeGE7PHN0b3Agc3RvcC1jb2xvcj0iIzZBRDZGOSIvPiYjeGE7PHN0b3Agc3RvcC1vcGFjaXR5PSIwIiBzdG9wLWNvbG9yPSIjNkFENkY5IiBvZmZzZXQ9IjEiLz4mI3hhOzwvbGluZWFyR3JhZGllbnQ+JiN4YTs8bGluZWFyR3JhZGllbnQgZ3JhZGllbnRVbml0cz0idXNlclNwYWNlT25Vc2UiIHkyPSI3MS44MDIxIiB4Mj0iMjQ2Ljk2OCIgeTE9IjcxLjgwMjEiIHgxPSIxOS4yODQyIiBpZD0icGFpbnQzX2xpbmVhcl8xMjYzXzEyNDU5MCI+JiN4YTs8c3RvcCBzdG9wLWNvbG9yPSIjMjVGRkQ0IiBvZmZzZXQ9IjAuMDQzIi8+JiN4YTs8c3RvcCBzdG9wLWNvbG9yPSIjNTVEREI5IiBvZmZzZXQ9IjAuODc0Ii8+JiN4YTs8L2xpbmVhckdyYWRpZW50PiYjeGE7PGxpbmVhckdyYWRpZW50IGdyYWRpZW50VW5pdHM9InVzZXJTcGFjZU9uVXNlIiB5Mj0iMTE0LjYxMiIgeDI9IjE1NS43NDciIHkxPSI5LjkwOTI2IiB4MT0iMTA2LjkyMSIgaWQ9InBhaW50NF9saW5lYXJfMTI2M18xMjQ1OTAiPiYjeGE7PHN0b3Agc3RvcC1vcGFjaXR5PSIwLjYiIHN0b3AtY29sb3I9IiNGNEUwODQiLz4mI3hhOzxzdG9wIHN0b3Atb3BhY2l0eT0iMCIgc3RvcC1jb2xvcj0iI0Y0RTA4NCIgb2Zmc2V0PSIwLjUzNCIvPiYjeGE7PC9saW5lYXJHcmFkaWVudD4mI3hhOzxsaW5lYXJHcmFkaWVudCBncmFkaWVudFVuaXRzPSJ1c2VyU3BhY2VPblVzZSIgeTI9IjQ1LjgzNSIgeDI9IjI1My45OCIgeTE9Ii01NS4yNjQxIiB4MT0iMTg4LjE2MiIgaWQ9InBhaW50NV9saW5lYXJfMTI2M18xMjQ1OTAiPiYjeGE7PHN0b3Agc3RvcC1jb2xvcj0iI0FCRjVFMiIvPiYjeGE7PHN0b3Agc3RvcC1jb2xvcj0iIzRFRTZCRCIgb2Zmc2V0PSIxIi8+JiN4YTs8L2xpbmVhckdyYWRpZW50PiYjeGE7PGxpbmVhckdyYWRpZW50IGdyYWRpZW50VW5pdHM9InVzZXJTcGFjZU9uVXNlIiB5Mj0iMTQzLjYwNCIgeDI9IjEzNy42MzUiIHkxPSIwIiB4MT0iMTM3LjYzNSIgaWQ9InBhaW50Nl9saW5lYXJfMTI2M18xMjQ1OTAiPiYjeGE7PHN0b3Agc3RvcC1jb2xvcj0iIzFGOTM3RSIvPiYjeGE7PHN0b3Agc3RvcC1jb2xvcj0iIzlFRTA5RiIgb2Zmc2V0PSIxIi8+JiN4YTs8L2xpbmVhckdyYWRpZW50PiYjeGE7PGxpbmVhckdyYWRpZW50IGdyYWRpZW50VW5pdHM9InVzZXJTcGFjZU9uVXNlIiB5Mj0iMTQzLjYwNCIgeDI9IjEzNy42MzUiIHkxPSIwIiB4MT0iMTM3LjYzNSIgaWQ9InBhaW50N19saW5lYXJfMTI2M18xMjQ1OTAiPiYjeGE7PHN0b3Agc3RvcC1jb2xvcj0iIzFGOTM3RSIvPiYjeGE7PHN0b3Agc3RvcC1jb2xvcj0iI0MwRUNDNyIgb2Zmc2V0PSIxIi8+JiN4YTs8L2xpbmVhckdyYWRpZW50PiYjeGE7PGxpbmVhckdyYWRpZW50IGdyYWRpZW50VW5pdHM9InVzZXJTcGFjZU9uVXNlIiB5Mj0iMTM1LjIxNiIgeDI9IjIyNC4zODIiIHkxPSIzOS45NzgzIiB4MT0iMTkuMjg0MiIgaWQ9InBhaW50OF9saW5lYXJfMTI2M18xMjQ1OTAiPiYjeGE7PHN0b3Agc3RvcC1jb2xvcj0iIzZBRDZGOSIvPiYjeGE7PHN0b3Agc3RvcC1jb2xvcj0iIzYwRTlEMCIgb2Zmc2V0PSIwLjIyOTUwMSIvPiYjeGE7PHN0b3Agc3RvcC1jb2xvcj0iIzZERTlCQiIgb2Zmc2V0PSIwLjY1MDcxMSIvPiYjeGE7PHN0b3Agc3RvcC1jb2xvcj0iI0FCRTg4RSIgb2Zmc2V0PSIwLjk5MzU0Ii8+JiN4YTs8L2xpbmVhckdyYWRpZW50PiYjeGE7PGxpbmVhckdyYWRpZW50IGdyYWRpZW50VW5pdHM9InVzZXJTcGFjZU9uVXNlIiB5Mj0iODIuNDY2IiB4Mj0iMTQ5Ljc4MSIgeTE9IjU3LjgiIHgxPSIzOC4yNTgiIGlkPSJwYWludDlfbGluZWFyXzEyNjNfMTI0NTkwIj4mI3hhOzxzdG9wIHN0b3Atb3BhY2l0eT0iMCIgc3RvcC1jb2xvcj0id2hpdGUiLz4mI3hhOzxzdG9wIHN0b3AtY29sb3I9IndoaXRlIiBvZmZzZXQ9IjAuNDU4NTExIi8+JiN4YTs8c3RvcCBzdG9wLW9wYWNpdHk9IjAiIHN0b3AtY29sb3I9IndoaXRlIiBvZmZzZXQ9IjEiLz4mI3hhOzwvbGluZWFyR3JhZGllbnQ+JiN4YTs8bGluZWFyR3JhZGllbnQgZ3JhZGllbnRVbml0cz0idXNlclNwYWNlT25Vc2UiIHkyPSI3NS4xMzI4IiB4Mj0iNzcuODcyMiIgeTE9IjE1My4zNDEiIHgxPSI3NS4yMzciIGlkPSJwYWludDEwX2xpbmVhcl8xMjYzXzEyNDU5MCI+JiN4YTs8c3RvcCBzdG9wLW9wYWNpdHk9IjAiIHN0b3AtY29sb3I9IiMwNjNEM0IiIG9mZnNldD0iMC4yMDQ2NDIiLz4mI3hhOzxzdG9wIHN0b3Atb3BhY2l0eT0iMC4yMzY1ODciIHN0b3AtY29sb3I9IiMwNjNEM0IiIG9mZnNldD0iMC41ODU1MyIvPiYjeGE7PHN0b3Agc3RvcC1vcGFjaXR5PSIwLjc1IiBzdG9wLWNvbG9yPSIjMDYzRDNCIiBvZmZzZXQ9IjAuODcyMjg1Ii8+JiN4YTs8L2xpbmVhckdyYWRpZW50PiYjeGE7PGxpbmVhckdyYWRpZW50IGdyYWRpZW50VW5pdHM9InVzZXJTcGFjZU9uVXNlIiB5Mj0iMTYzLjQ4NyIgeDI9Ijg3LjY4NjEiIHkxPSIxNDUuNTYzIiB4MT0iLTcuNjE3OTciIGlkPSJwYWludDExX2xpbmVhcl8xMjYzXzEyNDU5MCI+JiN4YTs8c3RvcCBzdG9wLW9wYWNpdHk9IjAiIHN0b3AtY29sb3I9IndoaXRlIi8+JiN4YTs8c3RvcCBzdG9wLWNvbG9yPSJ3aGl0ZSIgb2Zmc2V0PSIwLjQ1ODUxMSIvPiYjeGE7PHN0b3Agc3RvcC1vcGFjaXR5PSIwIiBzdG9wLWNvbG9yPSJ3aGl0ZSIgb2Zmc2V0PSIxIi8+JiN4YTs8L2xpbmVhckdyYWRpZW50PiYjeGE7PGxpbmVhckdyYWRpZW50IGdyYWRpZW50VW5pdHM9InVzZXJTcGFjZU9uVXNlIiB5Mj0iMTM5LjI5MiIgeDI9IjQyLjYzNTkiIHkxPSIyMzAuMjEzIiB4MT0iNjEuMjI2MyIgaWQ9InBhaW50MTJfbGluZWFyXzEyNjNfMTI0NTkwIj4mI3hhOzxzdG9wIHN0b3Atb3BhY2l0eT0iMCIgc3RvcC1jb2xvcj0iIzA2M0QzQiIgb2Zmc2V0PSIwLjA2NCIvPiYjeGE7PHN0b3Agc3RvcC1vcGFjaXR5PSIwLjEzNSIgc3RvcC1jb2xvcj0iIzA2M0QzQiIgb2Zmc2V0PSIwLjE3Ii8+JiN4YTs8c3RvcCBzdG9wLW9wYWNpdHk9IjAuNTk5IiBzdG9wLWNvbG9yPSIjMDYzRDNCIiBvZmZzZXQ9IjAuNTYyIi8+JiN4YTs8c3RvcCBzdG9wLW9wYWNpdHk9IjAuOSIgc3RvcC1jb2xvcj0iIzA2M0QzQiIgb2Zmc2V0PSIwLjg1Ii8+JiN4YTs8c3RvcCBzdG9wLWNvbG9yPSIjMDYzRDNCIiBvZmZzZXQ9IjEiLz4mI3hhOzwvbGluZWFyR3JhZGllbnQ+JiN4YTs8Y2xpcFBhdGggaWQ9ImNsaXAwXzEyNjNfMTI0NTkwIj4mI3hhOzxyZWN0IGZpbGw9IndoaXRlIiBoZWlnaHQ9IjI1NS45OTgiIHdpZHRoPSIyNTUuOTk4Ii8+JiN4YTs8L2NsaXBQYXRoPiYjeGE7PC9kZWZzPiYjeGE7PC9zdmc+;fontFamily=Segoe UI;fontSize=18;" parent="1" vertex="1">
                    <mxGeometry x="220" y="319" width="78" height="78" as="geometry"/>
                </mxCell>
                <mxCell id="4" value="Lakehouse" style="shape=image;verticalLabelPosition=bottom;verticalAlign=top;imageAspect=0;aspect=fixed;image=data:image/svg+xml,PHN2ZyB4bWxucz0iaHR0cDovL3d3dy53My5vcmcvMjAwMC9zdmciIGZpbGw9Im5vbmUiIHZpZXdCb3g9IjAgMCAzMiAzMyIgaGVpZ2h0PSIzMyIgd2lkdGg9IjMyIj4mI3hhOzxwYXRoIGZpbGw9ImJsYWNrIiBkPSJNMTIuNjI2IDQuMzkwMDJDMTMuMzk3IDMuNjYxNzQgMTQuNjAzIDMuNjYxNzQgMTUuMzc0IDQuMzkwMDJMMjUuMDYxIDEzLjU0MDNDMjUuNjYwNCAxNC4xMDY0IDI2IDE0Ljg5NDEgMjYgMTUuNzE4MlYxOC42MDYyQzI1Ljc5OSAxOC40MjY0IDI1LjU3NCAxOC4yNzQgMjUuMzMwNyAxOC4xNTM4QzI0LjkxNyAxNy45NDkyIDI0LjQ2MTUgMTcuODQzMiAyNCAxNy44NDM4VjE1LjcxODJDMjQgMTUuNDQzNSAyMy44ODY4IDE1LjE4MSAyMy42ODcgMTQuOTkyMkwxNCA1Ljg0MTk4TDQuMzEyOTkgMTQuOTkyMkM0LjExMzIgMTUuMTgxIDQgMTUuNDQzNSA0IDE1LjcxODJWMjYuODQ2NkM0IDI3LjM5ODMgNC40NDc3MiAyNy44NDU2IDUgMjcuODQ1Nkg4Ljc2MjNDOC4yNzI2NyAyOC4zOTM5IDggMjkuMTA0OCA4IDI5Ljg0MzhMNSAyOS44NDM4QzMuMzQzMTQgMjkuODQzOCAyIDI4LjUwMTkgMiAyNi44NDY2VjE1LjcxODJDMiAxNC44OTQxIDIuMzM5NjEgMTQuMTA2NCAyLjkzODk2IDEzLjU0MDNMMTIuNjI2IDQuMzkwMDJaIi8+JiN4YTs8cGF0aCBmaWxsPSJibGFjayIgZD0iTTI5IDIyLjg0MzdDMjguMzk3OSAyMi44NzczIDI3Ljc5NTIgMjIuNzg3NiAyNy4yMjg5IDIyLjU4QzI2LjY2MjcgMjIuMzcyNSAyNi4xNDQ4IDIyLjA1MTUgMjUuNzA3IDIxLjYzNjdDMjUuNDY1OCAyMS4zOTY0IDI1LjI1OTEgMjEuMTIzOCAyNS4wOTMgMjAuODI2N0MyNS4wNTI2IDIwLjc1MDYgMjUuMDE2MyAyMC42NzI1IDI0Ljk4NCAyMC41OTI3QzI0Ljk0OTMgMjAuNTA1OSAyNC45MDkyIDIwLjQyMTQgMjQuODY0IDIwLjMzOTdDMjQuODQzNyAyMC4zMDUgMjQuODIxNCAyMC4yNzE2IDI0Ljc5NyAyMC4yMzk3QzI0LjY3MTkgMjAuMDc1MyAyNC40OTkgMTkuOTUzNyAyNC4zMDIxIDE5Ljg5MTZDMjQuMTA1MSAxOS44Mjk1IDIzLjg5MzcgMTkuODI5OCAyMy42OTcgMTkuODkyN0gyMy42ODdDMjMuNDU2NiAxOS45NzA5IDIzLjI2MTggMjAuMTI5MiAyMy4xMzggMjAuMzM4N0MyMy4wODYxIDIwLjQzNTMgMjMuMDQxMyAyMC41MzU1IDIzLjAwNCAyMC42Mzg3TDIyLjk5MzUgMjAuNjY0OEMyMi45NjYxIDIwLjczMzIgMjIuOTM4NiAyMC44MDE5IDIyLjkwNCAyMC44NjY3QzIyLjc1NDEgMjEuMTY2IDIyLjU3MDkgMjEuNDQ3NCAyMi4zNTggMjEuNzA1N0MyMi4wNzY1IDIyLjA2MTEgMjEuNzE4MiAyMi4zNDgyIDIxLjMxMDEgMjIuNTQ1NUMyMC45MDE5IDIyLjc0MjkgMjAuNDU0NCAyMi44NDU0IDIwLjAwMSAyMi44NDU0QzE5LjU0NzYgMjIuODQ1NCAxOS4xMDAxIDIyLjc0MjkgMTguNjkxOSAyMi41NDU1QzE4LjI4MzggMjIuMzQ4MiAxNy45MjU1IDIyLjA2MTEgMTcuNjQ0IDIxLjcwNTdDMTcuNDMxMSAyMS40NDc0IDE3LjI0NzkgMjEuMTY2IDE3LjA5OCAyMC44NjY3QzE3LjA3MTEgMjAuODEzNiAxNy4wNDc5IDIwLjc1NzkgMTcuMDI0NiAyMC43MDE5QzE3LjAxNTggMjAuNjgwOCAxNy4wMDcgMjAuNjU5NyAxNi45OTggMjAuNjM4N0MxNi45NjA3IDIwLjUzNTUgMTYuOTE1OSAyMC40MzUzIDE2Ljg2NCAyMC4zMzg3QzE2Ljc0MDIgMjAuMTI5MiAxNi41NDU0IDE5Ljk3MDkgMTYuMzE1IDE5Ljg5MjdIMTYuMzA1QzE2LjEwODMgMTkuODI5OCAxNS44OTY5IDE5LjgyOTUgMTUuNjk5OSAxOS44OTE2QzE1LjUwMyAxOS45NTM3IDE1LjMzMDEgMjAuMDc1MyAxNS4yMDUgMjAuMjM5N0MxNS4xODA2IDIwLjI3MTYgMTUuMTU4MyAyMC4zMDUgMTUuMTM4IDIwLjMzOTdDMTUuMDkyOCAyMC40MjE0IDE1LjA1MjcgMjAuNTA1OSAxNS4wMTggMjAuNTkyN0MxNC45ODU3IDIwLjY3MjUgMTQuOTQ5NCAyMC43NTA2IDE0LjkwOSAyMC44MjY3QzE0Ljc0MjkgMjEuMTIzOCAxNC41MzYyIDIxLjM5NjQgMTQuMjk1IDIxLjYzNjdDMTMuODU3IDIyLjA1MTcgMTMuMzM4NyAyMi4zNzI5IDEyLjc3MjEgMjIuNTgwNEMxMi4yMDU1IDIyLjc4OCAxMS42MDI1IDIyLjg3NzYgMTEgMjIuODQzN0MxMC43MzQ4IDIyLjg0MzcgMTAuNDgwNCAyMi45NDkgMTAuMjkyOSAyMy4xMzY2QzEwLjEwNTQgMjMuMzI0MSAxMCAyMy41Nzg1IDEwIDIzLjg0MzdDMTAgMjQuMTA4OSAxMC4xMDU0IDI0LjM2MzIgMTAuMjkyOSAyNC41NTA4QzEwLjQ4MDQgMjQuNzM4MyAxMC43MzQ4IDI0Ljg0MzcgMTEgMjQuODQzN0MxMS44NjUgMjQuODc3OSAxMi43Mjc5IDI0LjczNjcgMTMuNTM2OSAyNC40Mjg2QzE0LjM0NTggMjQuMTIwNCAxNS4wODQgMjMuNjUxNyAxNS43MDcgMjMuMDUwN0MxNS43OTQgMjIuOTYzNyAxNS44NzYgMjIuODc2NyAxNS45NTIgMjIuNzg5N0MxNi4wMDEgMjIuODU0NyAxNi4wNTIgMjIuOTE4NyAxNi4xMDcgMjIuOTgzN0MxNi41NzU2IDIzLjU2NTEgMTcuMTY4NiAyNC4wMzQyIDE3Ljg0MjIgMjQuMzU2NUMxOC41MTU5IDI0LjY3ODggMTkuMjUzMiAyNC44NDYxIDIwIDI0Ljg0NjFDMjAuNzQ2OCAyNC44NDYxIDIxLjQ4NDEgMjQuNjc4OCAyMi4xNTc4IDI0LjM1NjVDMjIuODMxNCAyNC4wMzQyIDIzLjQyNDQgMjMuNTY1MSAyMy44OTMgMjIuOTgzN0MyMy45NDcgMjIuOTE4NyAyMy45OTkgMjIuODU0NyAyNC4wNDggMjIuNzg5N0MyNC4xMjQgMjIuODc2NyAyNC4yMDYgMjIuOTYzNyAyNC4yOTMgMjMuMDUwN0MyNC45MTYgMjMuNjUxNyAyNS42NTQyIDI0LjEyMDQgMjYuNDYzMSAyNC40Mjg2QzI3LjI3MjEgMjQuNzM2NyAyOC4xMzUgMjQuODc3OSAyOSAyNC44NDM3QzI5LjI2NTIgMjQuODQzNyAyOS41MTk2IDI0LjczODMgMjkuNzA3MSAyNC41NTA4QzI5Ljg5NDYgMjQuMzYzMiAzMCAyNC4xMDg5IDMwIDIzLjg0MzdDMzAgMjMuNTc4NSAyOS44OTQ2IDIzLjMyNDEgMjkuNzA3MSAyMy4xMzY2QzI5LjUxOTYgMjIuOTQ5IDI5LjI2NTIgMjIuODQzNyAyOSAyMi44NDM3WiIvPiYjeGE7PHBhdGggZmlsbD0iYmxhY2siIGQ9Ik0yOSAyOC44NDM3QzI4LjM5NzkgMjguODc3MyAyNy43OTUyIDI4Ljc4NzYgMjcuMjI4OSAyOC41OEMyNi42NjI3IDI4LjM3MjUgMjYuMTQ0OCAyOC4wNTE1IDI1LjcwNyAyNy42MzY3QzI1LjQ2NTggMjcuMzk2NCAyNS4yNTkxIDI3LjEyMzggMjUuMDkzIDI2LjgyNjdDMjUuMDUyNiAyNi43NTA2IDI1LjAxNjMgMjYuNjcyNSAyNC45ODQgMjYuNTkyN0MyNC45NDkzIDI2LjUwNTkgMjQuOTA5MiAyNi40MjE0IDI0Ljg2NCAyNi4zMzk3QzI0Ljg0MzcgMjYuMzA1IDI0LjgyMTQgMjYuMjcxNiAyNC43OTcgMjYuMjM5N0MyNC42NzE5IDI2LjA3NTMgMjQuNDk5IDI1Ljk1MzcgMjQuMzAyMSAyNS44OTE2QzI0LjEwNTEgMjUuODI5NSAyMy44OTM3IDI1LjgyOTggMjMuNjk3IDI1Ljg5MjdIMjMuNjg3QzIzLjQ1NjYgMjUuOTcwOSAyMy4yNjE4IDI2LjEyOTIgMjMuMTM4IDI2LjMzODdDMjMuMDg2MSAyNi40MzUzIDIzLjA0MTMgMjYuNTM1NSAyMy4wMDQgMjYuNjM4N0wyMi45OTM1IDI2LjY2NDhDMjIuOTY2MSAyNi43MzMyIDIyLjkzODYgMjYuODAxOSAyMi45MDQgMjYuODY2N0MyMi43NTQxIDI3LjE2NiAyMi41NzA5IDI3LjQ0NzQgMjIuMzU4IDI3LjcwNTdDMjIuMDc2NSAyOC4wNjExIDIxLjcxODIgMjguMzQ4MiAyMS4zMTAxIDI4LjU0NTVDMjAuOTAxOSAyOC43NDI5IDIwLjQ1NDQgMjguODQ1NCAyMC4wMDEgMjguODQ1NEMxOS41NDc2IDI4Ljg0NTQgMTkuMTAwMSAyOC43NDI5IDE4LjY5MTkgMjguNTQ1NUMxOC4yODM4IDI4LjM0ODIgMTcuOTI1NSAyOC4wNjExIDE3LjY0NCAyNy43MDU3QzE3LjQzMTEgMjcuNDQ3NCAxNy4yNDc5IDI3LjE2NiAxNy4wOTggMjYuODY2N0MxNy4wNzExIDI2LjgxMzYgMTcuMDQ3OSAyNi43NTc5IDE3LjAyNDYgMjYuNzAxOUMxNy4wMTU4IDI2LjY4MDggMTcuMDA3IDI2LjY1OTcgMTYuOTk4IDI2LjYzODdDMTYuOTYwNyAyNi41MzU1IDE2LjkxNTkgMjYuNDM1MyAxNi44NjQgMjYuMzM4N0MxNi43NDAyIDI2LjEyOTIgMTYuNTQ1NCAyNS45NzA5IDE2LjMxNSAyNS44OTI3SDE2LjMwNUMxNi4xMDgzIDI1LjgyOTggMTUuODk2OSAyNS44Mjk1IDE1LjY5OTkgMjUuODkxNkMxNS41MDMgMjUuOTUzNyAxNS4zMzAxIDI2LjA3NTMgMTUuMjA1IDI2LjIzOTdDMTUuMTgwNiAyNi4yNzE2IDE1LjE1ODMgMjYuMzA1IDE1LjEzOCAyNi4zMzk3QzE1LjA5MjggMjYuNDIxNCAxNS4wNTI3IDI2LjUwNTkgMTUuMDE4IDI2LjU5MjdDMTQuOTg1NyAyNi42NzI1IDE0Ljk0OTQgMjYuNzUwNiAxNC45MDkgMjYuODI2N0MxNC43NDI5IDI3LjEyMzggMTQuNTM2MiAyNy4zOTY0IDE0LjI5NSAyNy42MzY3QzEzLjg1NyAyOC4wNTE3IDEzLjMzODcgMjguMzcyOSAxMi43NzIxIDI4LjU4MDRDMTIuMjA1NSAyOC43ODggMTEuNjAyNSAyOC44Nzc2IDExIDI4Ljg0MzdDMTAuNzM0OCAyOC44NDM3IDEwLjQ4MDQgMjguOTQ5IDEwLjI5MjkgMjkuMTM2NkMxMC4xMDU0IDI5LjMyNDEgMTAgMjkuNTc4NSAxMCAyOS44NDM3QzEwIDMwLjEwODkgMTAuMTA1NCAzMC4zNjMyIDEwLjI5MjkgMzAuNTUwOEMxMC40ODA0IDMwLjczODMgMTAuNzM0OCAzMC44NDM3IDExIDMwLjg0MzdDMTEuODY1IDMwLjg3NzkgMTIuNzI3OSAzMC43MzY3IDEzLjUzNjkgMzAuNDI4NkMxNC4zNDU4IDMwLjEyMDQgMTUuMDg0IDI5LjY1MTcgMTUuNzA3IDI5LjA1MDdDMTUuNzk0IDI4Ljk2MzcgMTUuODc2IDI4Ljg3NjcgMTUuOTUyIDI4Ljc4OTdDMTYuMDAxIDI4Ljg1NDcgMTYuMDUyIDI4LjkxODcgMTYuMTA3IDI4Ljk4MzdDMTYuNTc1NiAyOS41NjUxIDE3LjE2ODYgMzAuMDM0MiAxNy44NDIyIDMwLjM1NjVDMTguNTE1OSAzMC42Nzg4IDE5LjI1MzIgMzAuODQ2MSAyMCAzMC44NDYxQzIwLjc0NjggMzAuODQ2MSAyMS40ODQxIDMwLjY3ODggMjIuMTU3OCAzMC4zNTY1QzIyLjgzMTQgMzAuMDM0MiAyMy40MjQ0IDI5LjU2NTEgMjMuODkzIDI4Ljk4MzdDMjMuOTQ3IDI4LjkxODcgMjMuOTk5IDI4Ljg1NDcgMjQuMDQ4IDI4Ljc4OTdDMjQuMTI0IDI4Ljg3NjcgMjQuMjA2IDI4Ljk2MzcgMjQuMjkzIDI5LjA1MDdDMjQuOTE2IDI5LjY1MTcgMjUuNjU0MiAzMC4xMjA0IDI2LjQ2MzEgMzAuNDI4NkMyNy4yNzIxIDMwLjczNjcgMjguMTM1IDMwLjg3NzkgMjkgMzAuODQzN0MyOS4yNjUyIDMwLjg0MzcgMjkuNTE5NiAzMC43MzgzIDI5LjcwNzEgMzAuNTUwOEMyOS44OTQ2IDMwLjM2MzIgMzAgMzAuMTA4OSAzMCAyOS44NDM3QzMwIDI5LjU3ODUgMjkuODk0NiAyOS4zMjQxIDI5LjcwNzEgMjkuMTM2NkMyOS41MTk2IDI4Ljk0OSAyOS4yNjUyIDI4Ljg0MzcgMjkgMjguODQzN1oiLz4mI3hhOzwvc3ZnPg==;fontFamily=Segoe UI;fontSize=13;" parent="1" vertex="1">
                    <mxGeometry x="390.00000000000006" y="351" width="46.54" height="48" as="geometry"/>
                </mxCell>
                <mxCell id="5" value="Data Pipeline" style="shape=image;verticalLabelPosition=bottom;verticalAlign=top;imageAspect=0;aspect=fixed;image=data:image/svg+xml,PHN2ZyB4bWxucz0iaHR0cDovL3d3dy53My5vcmcvMjAwMC9zdmciIGZpbGw9Im5vbmUiIHZpZXdCb3g9IjAgMCAzMiAzMyIgaGVpZ2h0PSIzMyIgd2lkdGg9IjMyIj4mI3hhOzxwYXRoIGZpbGw9ImJsYWNrIiBkPSJNMiA5LjMyODEyQzIgNy42NzEyNyAzLjM0MzE1IDYuMzI4MTIgNSA2LjMyODEyQzYuNjU2ODUgNi4zMjgxMiA4IDcuNjcxMjcgOCA5LjMyODEzTDI0IDkuMzI4MTJDMjQgNy42NzEyNyAyNS4zNDMxIDYuMzI4MTIgMjcgNi4zMjgxMkMyOC42NTY5IDYuMzI4MTIgMzAgNy42NzEyNyAzMCA5LjMyODEzVjIzLjMyODFDMzAgMjQuOTg1IDI4LjY1NjkgMjYuMzI4MSAyNyAyNi4zMjgxQzI1LjM0MzEgMjYuMzI4MSAyNCAyNC45ODUgMjQgMjMuMzI4MUg4QzggMjQuOTg1IDYuNjU2ODUgMjYuMzI4MSA1IDI2LjMyODFDMy4zNDMxNSAyNi4zMjgxIDIgMjQuOTg1IDIgMjMuMzI4MVY5LjMyODEyWk02IDkuMzI4MTNDNiA4Ljc3NTg0IDUuNTUyMjggOC4zMjgxMiA1IDguMzI4MTJDNC40NDc3MSA4LjMyODEyIDQgOC43NzU4NCA0IDkuMzI4MTJWMjMuMzI4MUM0IDIzLjg4MDQgNC40NDc3MiAyNC4zMjgxIDUgMjQuMzI4MUM1LjU1MjI5IDI0LjMyODEgNiAyMy44ODA0IDYgMjMuMzI4MVY5LjMyODEzWk04IDIxLjMyODFMMjQgMjEuMzI4MVYxMS4zMjgxTDggMTEuMzI4MVYyMS4zMjgxWk0yOCA5LjMyODEzQzI4IDguNzc1ODQgMjcuNTUyMyA4LjMyODEyIDI3IDguMzI4MTJDMjYuNDQ3NyA4LjMyODEyIDI2IDguNzc1ODQgMjYgOS4zMjgxMlYyMy4zMjgxQzI2IDIzLjg4MDQgMjYuNDQ3NyAyNC4zMjgxIDI3IDI0LjMyODFDMjcuNTUyMyAyNC4zMjgxIDI4IDIzLjg4MDQgMjggMjMuMzI4MVY5LjMyODEzWiIvPiYjeGE7PC9zdmc+;spacingBottom=0;fontFamily=Segoe UI;fontSize=13;" parent="1" vertex="1">
                    <mxGeometry x="473.61000000000007" y="346" width="51.39" height="53" as="geometry"/>
                </mxCell>
                <mxCell id="6" value="Notebooks" style="shape=image;verticalLabelPosition=bottom;verticalAlign=top;imageAspect=0;aspect=fixed;image=data:image/svg+xml,PHN2ZyB4bWxucz0iaHR0cDovL3d3dy53My5vcmcvMjAwMC9zdmciIGZpbGw9Im5vbmUiIHZpZXdCb3g9IjAgMCAzMiAzMyIgaGVpZ2h0PSIzMyIgd2lkdGg9IjMyIj4mI3hhOzxwYXRoIGZpbGw9ImJsYWNrIiBkPSJNOCA3LjkzNzU2QzggNy4xMDkxMyA4LjY3MTU3IDYuNDM3NTYgOS41IDYuNDM3NTZIMjEuNUMyMi4zMjg0IDYuNDM3NTYgMjMgNy4xMDkxMyAyMyA3LjkzNzU2VjEwLjkzNzZDMjMgMTEuNzY2IDIyLjMyODQgMTIuNDM3NiAyMS41IDEyLjQzNzZIOS41QzguNjcxNTcgMTIuNDM3NiA4IDExLjc2NiA4IDEwLjkzNzZWNy45Mzc1NlpNMTAgOC40Mzc1NlYxMC40Mzc2SDIxVjguNDM3NTZIMTBaTTQgNS42ODc1NkM0IDMuODkyNjMgNS40NTUwOCAyLjQzNzU2IDcuMjUgMi40Mzc1NkgyMy43NUMyNS41NDQ5IDIuNDM3NTYgMjcgMy44OTI2NCAyNyA1LjY4NzU2VjI3LjE4NzZDMjcgMjguOTgyNSAyNS41NDQ5IDMwLjQzNzYgMjMuNzUgMzAuNDM3Nkg3LjI1QzUuNDU1MDcgMzAuNDM3NiA0IDI4Ljk4MjUgNCAyNy4xODc2VjUuNjg3NTZaTTcuMjUgNC40Mzc1NkM2LjU1OTY0IDQuNDM3NTYgNiA0Ljk5NzIgNiA1LjY4NzU2VjI3LjE4NzZDNiAyNy44Nzc5IDYuNTU5NjQgMjguNDM3NiA3LjI1IDI4LjQzNzZIMjMuNzVDMjQuNDQwNCAyOC40Mzc2IDI1IDI3Ljg3NzkgMjUgMjcuMTg3NlY1LjY4NzU2QzI1IDQuOTk3MjEgMjQuNDQwNCA0LjQzNzU2IDIzLjc1IDQuNDM3NTZINy4yNVpNMjkuMjUgOC40Mzc1NkgyOFYxMi40Mzc2SDI5LjI1QzI5LjY2NDIgMTIuNDM3NiAzMCAxMi4xMDE4IDMwIDExLjY4NzZWOS4xODc1NkMzMCA4Ljc3MzM1IDI5LjY2NDIgOC40Mzc1NiAyOS4yNSA4LjQzNzU2Wk0yOCAxNC40Mzc2SDI5LjI1QzI5LjY2NDIgMTQuNDM3NiAzMCAxNC43NzMzIDMwIDE1LjE4NzZWMTcuNjg3NkMzMCAxOC4xMDE4IDI5LjY2NDIgMTguNDM3NiAyOS4yNSAxOC40Mzc2SDI4VjE0LjQzNzZaTTI5LjI1IDIwLjQzNzZIMjhWMjQuNDM3NkgyOS4yNUMyOS42NjQyIDI0LjQzNzYgMzAgMjQuMTAxOCAzMCAyMy42ODc2VjIxLjE4NzZDMzAgMjAuNzczMyAyOS42NjQyIDIwLjQzNzYgMjkuMjUgMjAuNDM3NloiLz4mI3hhOzwvc3ZnPg==;spacingTop=3;fontFamily=Segoe UI;fontSize=13;" parent="1" vertex="1">
                    <mxGeometry x="556.6700000000001" y="353" width="42.67" height="44" as="geometry"/>
                </mxCell>
                <mxCell id="8" value="App Insights" style="image;aspect=fixed;html=1;points=[];align=center;fontSize=14;image=img/lib/azure2/devops/Application_Insights.svg;fontFamily=Segoe UI;" parent="1" vertex="1">
                    <mxGeometry x="532.8299999999999" y="535.32" width="34" height="48.68" as="geometry"/>
                </mxCell>
                <mxCell id="9" value="ADLS Gen2" style="image;aspect=fixed;html=1;points=[];align=center;fontSize=14;image=img/lib/azure2/general/Blob_Block.svg;fontFamily=Segoe UI;" parent="1" vertex="1">
                    <mxGeometry x="425" y="548.6800000000001" width="44.15" height="35.32" as="geometry"/>
                </mxCell>
                <mxCell id="11" value="Key Vault" style="image;aspect=fixed;html=1;points=[];align=center;fontSize=14;image=img/lib/azure2/security/Key_Vaults.svg;fontFamily=Segoe UI;" parent="1" vertex="1">
                    <mxGeometry x="528.83" y="633.67" width="42" height="42" as="geometry"/>
                </mxCell>
                <mxCell id="14" value="Azure" style="shape=image;verticalLabelPosition=bottom;verticalAlign=top;imageAspect=0;aspect=fixed;image=data:image/svg+xml,PHN2ZyB4bWxucz0iaHR0cDovL3d3dy53My5vcmcvMjAwMC9zdmciIHZpZXdCb3g9IjAgMCA5NiA5NiIgaGVpZ2h0PSIxNTAiIHdpZHRoPSIxNTAiPgogICAgPGRlZnM+CiAgICAgICAgPGxpbmVhckdyYWRpZW50IGdyYWRpZW50VW5pdHM9InVzZXJTcGFjZU9uVXNlIiBncmFkaWVudFRyYW5zZm9ybT0ibWF0cml4KDEgMCAwIC0xIDEwNzUgMTU4KSIgeTI9IjY1LjQyNiIgeTE9IjE0NS4zMTIiIHgyPSItMTA1OS4yMTMiIHgxPSItMTAzMi4xNzIiIGlkPSJlMzk5YzE5Zi1iNjhmLTQyOWQtYjE3Ni0xOGMyMTE3ZmY3M2MiPgogICAgICAgICAgICA8c3RvcCBzdG9wLWNvbG9yPSIjMTE0YThiIiBvZmZzZXQ9IjAiLz4KICAgICAgICAgICAgPHN0b3Agc3RvcC1jb2xvcj0iIzA2NjliYyIgb2Zmc2V0PSIxIi8+CiAgICAgICAgPC9saW5lYXJHcmFkaWVudD4KICAgICAgICA8bGluZWFyR3JhZGllbnQgZ3JhZGllbnRVbml0cz0idXNlclNwYWNlT25Vc2UiIGdyYWRpZW50VHJhbnNmb3JtPSJtYXRyaXgoMSAwIDAgLTEgMTA3NSAxNTgpIiB5Mj0iMTA1Ljk2OCIgeTE9IjEwOC4wODMiIHgyPSItMTAyOS45OCIgeDE9Ii0xMDIzLjcyNSIgaWQ9ImFjMmE2ZmMyLWNhNDgtNDMyNy05YTNjLWQ0ZGNjMzI1NmUxNSI+CiAgICAgICAgICAgIDxzdG9wIHN0b3Atb3BhY2l0eT0iLjMiIG9mZnNldD0iMCIvPgogICAgICAgICAgICA8c3RvcCBzdG9wLW9wYWNpdHk9Ii4yIiBvZmZzZXQ9Ii4wNzEiLz4KICAgICAgICAgICAgPHN0b3Agc3RvcC1vcGFjaXR5PSIuMSIgb2Zmc2V0PSIuMzIxIi8+CiAgICAgICAgICAgIDxzdG9wIHN0b3Atb3BhY2l0eT0iLjA1IiBvZmZzZXQ9Ii42MjMiLz4KICAgICAgICAgICAgPHN0b3Agc3RvcC1vcGFjaXR5PSIwIiBvZmZzZXQ9IjEiLz4KICAgICAgICA8L2xpbmVhckdyYWRpZW50PgogICAgICAgIDxsaW5lYXJHcmFkaWVudCBncmFkaWVudFVuaXRzPSJ1c2VyU3BhY2VPblVzZSIgZ3JhZGllbnRUcmFuc2Zvcm09Im1hdHJpeCgxIDAgMCAtMSAxMDc1IDE1OCkiIHkyPSI2OC41NjEiIHkxPSIxNDcuNjQyIiB4Mj0iLTk5Ny40ODIiIHgxPSItMTAyNy4xNjUiIGlkPSJhN2ZlZTk3MC1hNzg0LTRiYjEtYWY4ZC02M2QxOGU1ZjdkYjkiPgogICAgICAgICAgICA8c3RvcCBzdG9wLWNvbG9yPSIjM2NjYmY0IiBvZmZzZXQ9IjAiLz4KICAgICAgICAgICAgPHN0b3Agc3RvcC1jb2xvcj0iIzI4OTJkZiIgb2Zmc2V0PSIxIi8+CiAgICAgICAgPC9saW5lYXJHcmFkaWVudD4KICAgIDwvZGVmcz4KICAgIDxwYXRoIGQ9Ik0zMy4zMzggNi41NDRoMjYuMDM4bC0yNy4wMyA4MC4wODdhNC4xNTIgNC4xNTIgMCAwIDEtMy45MzMgMi44MjRIOC4xNDlhNC4xNDUgNC4xNDUgMCAwIDEtMy45MjgtNS40N0wyOS40MDQgOS4zNjhhNC4xNTIgNC4xNTIgMCAwIDEgMy45MzQtMi44MjV6IiBmaWxsPSJ1cmwoI2UzOTljMTlmLWI2OGYtNDI5ZC1iMTc2LTE4YzIxMTdmZjczYykiLz4KICAgIDxwYXRoIGQ9Ik03MS4xNzUgNjAuMjYxaC00MS4yOWExLjkxMSAxLjkxMSAwIDAgMC0xLjMwNSAzLjMwOWwyNi41MzIgMjQuNzY0YTQuMTcxIDQuMTcxIDAgMCAwIDIuODQ2IDEuMTIxaDIzLjM4eiIgZmlsbD0iIzAwNzhkNCIvPgogICAgPHBhdGggZD0iTTMzLjMzOCA2LjU0NGE0LjExOCA0LjExOCAwIDAgMC0zLjk0MyAyLjg3OUw0LjI1MiA4My45MTdhNC4xNCA0LjE0IDAgMCAwIDMuOTA4IDUuNTM4aDIwLjc4N2E0LjQ0MyA0LjQ0MyAwIDAgMCAzLjQxLTIuOWw1LjAxNC0xNC43NzcgMTcuOTEgMTYuNzA1YTQuMjM3IDQuMjM3IDAgMCAwIDIuNjY2Ljk3Mkg4MS4yNEw3MS4wMjQgNjAuMjYxbC0yOS43ODEuMDA3TDU5LjQ3IDYuNTQ0eiIgZmlsbD0idXJsKCNhYzJhNmZjMi1jYTQ4LTQzMjctOWEzYy1kNGRjYzMyNTZlMTUpIi8+CiAgICA8cGF0aCBkPSJNNjYuNTk1IDkuMzY0YTQuMTQ1IDQuMTQ1IDAgMCAwLTMuOTI4LTIuODJIMzMuNjQ4YTQuMTQ2IDQuMTQ2IDAgMCAxIDMuOTI4IDIuODJsMjUuMTg0IDc0LjYyYTQuMTQ2IDQuMTQ2IDAgMCAxLTMuOTI4IDUuNDcyaDI5LjAyYTQuMTQ2IDQuMTQ2IDAgMCAwIDMuOTI3LTUuNDcyeiIgZmlsbD0idXJsKCNhN2ZlZTk3MC1hNzg0LTRiYjEtYWY4ZC02M2QxOGU1ZjdkYjkpIi8+Cjwvc3ZnPg==;fontFamily=Segoe UI;fontSize=18;" parent="1" vertex="1">
                    <mxGeometry x="220" y="527.3399999999999" width="78" height="78" as="geometry"/>
                </mxCell>
                <mxCell id="25" value="Azure DevOps" style="image;aspect=fixed;html=1;points=[];align=center;fontSize=18;image=img/lib/azure2/devops/Azure_DevOps.svg;fontFamily=Segoe UI;labelBackgroundColor=none;fontStyle=0" parent="1" vertex="1">
                    <mxGeometry x="220" y="120" width="64" height="64" as="geometry"/>
                </mxCell>
                <mxCell id="38" value="&lt;font face=&quot;Segoe UI&quot;&gt;Stage&lt;/font&gt;" style="rounded=0;whiteSpace=wrap;html=1;strokeWidth=3;align=center;verticalAlign=top;spacingLeft=0;fontSize=19;fontStyle=1" parent="1" vertex="1">
                    <mxGeometry x="670" y="260" width="290" height="480" as="geometry"/>
                </mxCell>
                <mxCell id="40" value="Fabric Workspace" style="rounded=0;whiteSpace=wrap;html=1;align=left;verticalAlign=top;spacingLeft=5;fontStyle=1;fontSize=14;labelBorderColor=none;dashed=1;fontFamily=Segoe UI;" parent="1" vertex="1">
                    <mxGeometry x="690" y="310" width="250" height="140" as="geometry"/>
                </mxCell>
                <mxCell id="41" value="Lakehouse" style="shape=image;verticalLabelPosition=bottom;verticalAlign=top;imageAspect=0;aspect=fixed;image=data:image/svg+xml,PHN2ZyB4bWxucz0iaHR0cDovL3d3dy53My5vcmcvMjAwMC9zdmciIGZpbGw9Im5vbmUiIHZpZXdCb3g9IjAgMCAzMiAzMyIgaGVpZ2h0PSIzMyIgd2lkdGg9IjMyIj4mI3hhOzxwYXRoIGZpbGw9ImJsYWNrIiBkPSJNMTIuNjI2IDQuMzkwMDJDMTMuMzk3IDMuNjYxNzQgMTQuNjAzIDMuNjYxNzQgMTUuMzc0IDQuMzkwMDJMMjUuMDYxIDEzLjU0MDNDMjUuNjYwNCAxNC4xMDY0IDI2IDE0Ljg5NDEgMjYgMTUuNzE4MlYxOC42MDYyQzI1Ljc5OSAxOC40MjY0IDI1LjU3NCAxOC4yNzQgMjUuMzMwNyAxOC4xNTM4QzI0LjkxNyAxNy45NDkyIDI0LjQ2MTUgMTcuODQzMiAyNCAxNy44NDM4VjE1LjcxODJDMjQgMTUuNDQzNSAyMy44ODY4IDE1LjE4MSAyMy42ODcgMTQuOTkyMkwxNCA1Ljg0MTk4TDQuMzEyOTkgMTQuOTkyMkM0LjExMzIgMTUuMTgxIDQgMTUuNDQzNSA0IDE1LjcxODJWMjYuODQ2NkM0IDI3LjM5ODMgNC40NDc3MiAyNy44NDU2IDUgMjcuODQ1Nkg4Ljc2MjNDOC4yNzI2NyAyOC4zOTM5IDggMjkuMTA0OCA4IDI5Ljg0MzhMNSAyOS44NDM4QzMuMzQzMTQgMjkuODQzOCAyIDI4LjUwMTkgMiAyNi44NDY2VjE1LjcxODJDMiAxNC44OTQxIDIuMzM5NjEgMTQuMTA2NCAyLjkzODk2IDEzLjU0MDNMMTIuNjI2IDQuMzkwMDJaIi8+JiN4YTs8cGF0aCBmaWxsPSJibGFjayIgZD0iTTI5IDIyLjg0MzdDMjguMzk3OSAyMi44NzczIDI3Ljc5NTIgMjIuNzg3NiAyNy4yMjg5IDIyLjU4QzI2LjY2MjcgMjIuMzcyNSAyNi4xNDQ4IDIyLjA1MTUgMjUuNzA3IDIxLjYzNjdDMjUuNDY1OCAyMS4zOTY0IDI1LjI1OTEgMjEuMTIzOCAyNS4wOTMgMjAuODI2N0MyNS4wNTI2IDIwLjc1MDYgMjUuMDE2MyAyMC42NzI1IDI0Ljk4NCAyMC41OTI3QzI0Ljk0OTMgMjAuNTA1OSAyNC45MDkyIDIwLjQyMTQgMjQuODY0IDIwLjMzOTdDMjQuODQzNyAyMC4zMDUgMjQuODIxNCAyMC4yNzE2IDI0Ljc5NyAyMC4yMzk3QzI0LjY3MTkgMjAuMDc1MyAyNC40OTkgMTkuOTUzNyAyNC4zMDIxIDE5Ljg5MTZDMjQuMTA1MSAxOS44Mjk1IDIzLjg5MzcgMTkuODI5OCAyMy42OTcgMTkuODkyN0gyMy42ODdDMjMuNDU2NiAxOS45NzA5IDIzLjI2MTggMjAuMTI5MiAyMy4xMzggMjAuMzM4N0MyMy4wODYxIDIwLjQzNTMgMjMuMDQxMyAyMC41MzU1IDIzLjAwNCAyMC42Mzg3TDIyLjk5MzUgMjAuNjY0OEMyMi45NjYxIDIwLjczMzIgMjIuOTM4NiAyMC44MDE5IDIyLjkwNCAyMC44NjY3QzIyLjc1NDEgMjEuMTY2IDIyLjU3MDkgMjEuNDQ3NCAyMi4zNTggMjEuNzA1N0MyMi4wNzY1IDIyLjA2MTEgMjEuNzE4MiAyMi4zNDgyIDIxLjMxMDEgMjIuNTQ1NUMyMC45MDE5IDIyLjc0MjkgMjAuNDU0NCAyMi44NDU0IDIwLjAwMSAyMi44NDU0QzE5LjU0NzYgMjIuODQ1NCAxOS4xMDAxIDIyLjc0MjkgMTguNjkxOSAyMi41NDU1QzE4LjI4MzggMjIuMzQ4MiAxNy45MjU1IDIyLjA2MTEgMTcuNjQ0IDIxLjcwNTdDMTcuNDMxMSAyMS40NDc0IDE3LjI0NzkgMjEuMTY2IDE3LjA5OCAyMC44NjY3QzE3LjA3MTEgMjAuODEzNiAxNy4wNDc5IDIwLjc1NzkgMTcuMDI0NiAyMC43MDE5QzE3LjAxNTggMjAuNjgwOCAxNy4wMDcgMjAuNjU5NyAxNi45OTggMjAuNjM4N0MxNi45NjA3IDIwLjUzNTUgMTYuOTE1OSAyMC40MzUzIDE2Ljg2NCAyMC4zMzg3QzE2Ljc0MDIgMjAuMTI5MiAxNi41NDU0IDE5Ljk3MDkgMTYuMzE1IDE5Ljg5MjdIMTYuMzA1QzE2LjEwODMgMTkuODI5OCAxNS44OTY5IDE5LjgyOTUgMTUuNjk5OSAxOS44OTE2QzE1LjUwMyAxOS45NTM3IDE1LjMzMDEgMjAuMDc1MyAxNS4yMDUgMjAuMjM5N0MxNS4xODA2IDIwLjI3MTYgMTUuMTU4MyAyMC4zMDUgMTUuMTM4IDIwLjMzOTdDMTUuMDkyOCAyMC40MjE0IDE1LjA1MjcgMjAuNTA1OSAxNS4wMTggMjAuNTkyN0MxNC45ODU3IDIwLjY3MjUgMTQuOTQ5NCAyMC43NTA2IDE0LjkwOSAyMC44MjY3QzE0Ljc0MjkgMjEuMTIzOCAxNC41MzYyIDIxLjM5NjQgMTQuMjk1IDIxLjYzNjdDMTMuODU3IDIyLjA1MTcgMTMuMzM4NyAyMi4zNzI5IDEyLjc3MjEgMjIuNTgwNEMxMi4yMDU1IDIyLjc4OCAxMS42MDI1IDIyLjg3NzYgMTEgMjIuODQzN0MxMC43MzQ4IDIyLjg0MzcgMTAuNDgwNCAyMi45NDkgMTAuMjkyOSAyMy4xMzY2QzEwLjEwNTQgMjMuMzI0MSAxMCAyMy41Nzg1IDEwIDIzLjg0MzdDMTAgMjQuMTA4OSAxMC4xMDU0IDI0LjM2MzIgMTAuMjkyOSAyNC41NTA4QzEwLjQ4MDQgMjQuNzM4MyAxMC43MzQ4IDI0Ljg0MzcgMTEgMjQuODQzN0MxMS44NjUgMjQuODc3OSAxMi43Mjc5IDI0LjczNjcgMTMuNTM2OSAyNC40Mjg2QzE0LjM0NTggMjQuMTIwNCAxNS4wODQgMjMuNjUxNyAxNS43MDcgMjMuMDUwN0MxNS43OTQgMjIuOTYzNyAxNS44NzYgMjIuODc2NyAxNS45NTIgMjIuNzg5N0MxNi4wMDEgMjIuODU0NyAxNi4wNTIgMjIuOTE4NyAxNi4xMDcgMjIuOTgzN0MxNi41NzU2IDIzLjU2NTEgMTcuMTY4NiAyNC4wMzQyIDE3Ljg0MjIgMjQuMzU2NUMxOC41MTU5IDI0LjY3ODggMTkuMjUzMiAyNC44NDYxIDIwIDI0Ljg0NjFDMjAuNzQ2OCAyNC44NDYxIDIxLjQ4NDEgMjQuNjc4OCAyMi4xNTc4IDI0LjM1NjVDMjIuODMxNCAyNC4wMzQyIDIzLjQyNDQgMjMuNTY1MSAyMy44OTMgMjIuOTgzN0MyMy45NDcgMjIuOTE4NyAyMy45OTkgMjIuODU0NyAyNC4wNDggMjIuNzg5N0MyNC4xMjQgMjIuODc2NyAyNC4yMDYgMjIuOTYzNyAyNC4yOTMgMjMuMDUwN0MyNC45MTYgMjMuNjUxNyAyNS42NTQyIDI0LjEyMDQgMjYuNDYzMSAyNC40Mjg2QzI3LjI3MjEgMjQuNzM2NyAyOC4xMzUgMjQuODc3OSAyOSAyNC44NDM3QzI5LjI2NTIgMjQuODQzNyAyOS41MTk2IDI0LjczODMgMjkuNzA3MSAyNC41NTA4QzI5Ljg5NDYgMjQuMzYzMiAzMCAyNC4xMDg5IDMwIDIzLjg0MzdDMzAgMjMuNTc4NSAyOS44OTQ2IDIzLjMyNDEgMjkuNzA3MSAyMy4xMzY2QzI5LjUxOTYgMjIuOTQ5IDI5LjI2NTIgMjIuODQzNyAyOSAyMi44NDM3WiIvPiYjeGE7PHBhdGggZmlsbD0iYmxhY2siIGQ9Ik0yOSAyOC44NDM3QzI4LjM5NzkgMjguODc3MyAyNy43OTUyIDI4Ljc4NzYgMjcuMjI4OSAyOC41OEMyNi42NjI3IDI4LjM3MjUgMjYuMTQ0OCAyOC4wNTE1IDI1LjcwNyAyNy42MzY3QzI1LjQ2NTggMjcuMzk2NCAyNS4yNTkxIDI3LjEyMzggMjUuMDkzIDI2LjgyNjdDMjUuMDUyNiAyNi43NTA2IDI1LjAxNjMgMjYuNjcyNSAyNC45ODQgMjYuNTkyN0MyNC45NDkzIDI2LjUwNTkgMjQuOTA5MiAyNi40MjE0IDI0Ljg2NCAyNi4zMzk3QzI0Ljg0MzcgMjYuMzA1IDI0LjgyMTQgMjYuMjcxNiAyNC43OTcgMjYuMjM5N0MyNC42NzE5IDI2LjA3NTMgMjQuNDk5IDI1Ljk1MzcgMjQuMzAyMSAyNS44OTE2QzI0LjEwNTEgMjUuODI5NSAyMy44OTM3IDI1LjgyOTggMjMuNjk3IDI1Ljg5MjdIMjMuNjg3QzIzLjQ1NjYgMjUuOTcwOSAyMy4yNjE4IDI2LjEyOTIgMjMuMTM4IDI2LjMzODdDMjMuMDg2MSAyNi40MzUzIDIzLjA0MTMgMjYuNTM1NSAyMy4wMDQgMjYuNjM4N0wyMi45OTM1IDI2LjY2NDhDMjIuOTY2MSAyNi43MzMyIDIyLjkzODYgMjYuODAxOSAyMi45MDQgMjYuODY2N0MyMi43NTQxIDI3LjE2NiAyMi41NzA5IDI3LjQ0NzQgMjIuMzU4IDI3LjcwNTdDMjIuMDc2NSAyOC4wNjExIDIxLjcxODIgMjguMzQ4MiAyMS4zMTAxIDI4LjU0NTVDMjAuOTAxOSAyOC43NDI5IDIwLjQ1NDQgMjguODQ1NCAyMC4wMDEgMjguODQ1NEMxOS41NDc2IDI4Ljg0NTQgMTkuMTAwMSAyOC43NDI5IDE4LjY5MTkgMjguNTQ1NUMxOC4yODM4IDI4LjM0ODIgMTcuOTI1NSAyOC4wNjExIDE3LjY0NCAyNy43MDU3QzE3LjQzMTEgMjcuNDQ3NCAxNy4yNDc5IDI3LjE2NiAxNy4wOTggMjYuODY2N0MxNy4wNzExIDI2LjgxMzYgMTcuMDQ3OSAyNi43NTc5IDE3LjAyNDYgMjYuNzAxOUMxNy4wMTU4IDI2LjY4MDggMTcuMDA3IDI2LjY1OTcgMTYuOTk4IDI2LjYzODdDMTYuOTYwNyAyNi41MzU1IDE2LjkxNTkgMjYuNDM1MyAxNi44NjQgMjYuMzM4N0MxNi43NDAyIDI2LjEyOTIgMTYuNTQ1NCAyNS45NzA5IDE2LjMxNSAyNS44OTI3SDE2LjMwNUMxNi4xMDgzIDI1LjgyOTggMTUuODk2OSAyNS44Mjk1IDE1LjY5OTkgMjUuODkxNkMxNS41MDMgMjUuOTUzNyAxNS4zMzAxIDI2LjA3NTMgMTUuMjA1IDI2LjIzOTdDMTUuMTgwNiAyNi4yNzE2IDE1LjE1ODMgMjYuMzA1IDE1LjEzOCAyNi4zMzk3QzE1LjA5MjggMjYuNDIxNCAxNS4wNTI3IDI2LjUwNTkgMTUuMDE4IDI2LjU5MjdDMTQuOTg1NyAyNi42NzI1IDE0Ljk0OTQgMjYuNzUwNiAxNC45MDkgMjYuODI2N0MxNC43NDI5IDI3LjEyMzggMTQuNTM2MiAyNy4zOTY0IDE0LjI5NSAyNy42MzY3QzEzLjg1NyAyOC4wNTE3IDEzLjMzODcgMjguMzcyOSAxMi43NzIxIDI4LjU4MDRDMTIuMjA1NSAyOC43ODggMTEuNjAyNSAyOC44Nzc2IDExIDI4Ljg0MzdDMTAuNzM0OCAyOC44NDM3IDEwLjQ4MDQgMjguOTQ5IDEwLjI5MjkgMjkuMTM2NkMxMC4xMDU0IDI5LjMyNDEgMTAgMjkuNTc4NSAxMCAyOS44NDM3QzEwIDMwLjEwODkgMTAuMTA1NCAzMC4zNjMyIDEwLjI5MjkgMzAuNTUwOEMxMC40ODA0IDMwLjczODMgMTAuNzM0OCAzMC44NDM3IDExIDMwLjg0MzdDMTEuODY1IDMwLjg3NzkgMTIuNzI3OSAzMC43MzY3IDEzLjUzNjkgMzAuNDI4NkMxNC4zNDU4IDMwLjEyMDQgMTUuMDg0IDI5LjY1MTcgMTUuNzA3IDI5LjA1MDdDMTUuNzk0IDI4Ljk2MzcgMTUuODc2IDI4Ljg3NjcgMTUuOTUyIDI4Ljc4OTdDMTYuMDAxIDI4Ljg1NDcgMTYuMDUyIDI4LjkxODcgMTYuMTA3IDI4Ljk4MzdDMTYuNTc1NiAyOS41NjUxIDE3LjE2ODYgMzAuMDM0MiAxNy44NDIyIDMwLjM1NjVDMTguNTE1OSAzMC42Nzg4IDE5LjI1MzIgMzAuODQ2MSAyMCAzMC44NDYxQzIwLjc0NjggMzAuODQ2MSAyMS40ODQxIDMwLjY3ODggMjIuMTU3OCAzMC4zNTY1QzIyLjgzMTQgMzAuMDM0MiAyMy40MjQ0IDI5LjU2NTEgMjMuODkzIDI4Ljk4MzdDMjMuOTQ3IDI4LjkxODcgMjMuOTk5IDI4Ljg1NDcgMjQuMDQ4IDI4Ljc4OTdDMjQuMTI0IDI4Ljg3NjcgMjQuMjA2IDI4Ljk2MzcgMjQuMjkzIDI5LjA1MDdDMjQuOTE2IDI5LjY1MTcgMjUuNjU0MiAzMC4xMjA0IDI2LjQ2MzEgMzAuNDI4NkMyNy4yNzIxIDMwLjczNjcgMjguMTM1IDMwLjg3NzkgMjkgMzAuODQzN0MyOS4yNjUyIDMwLjg0MzcgMjkuNTE5NiAzMC43MzgzIDI5LjcwNzEgMzAuNTUwOEMyOS44OTQ2IDMwLjM2MzIgMzAgMzAuMTA4OSAzMCAyOS44NDM3QzMwIDI5LjU3ODUgMjkuODk0NiAyOS4zMjQxIDI5LjcwNzEgMjkuMTM2NkMyOS41MTk2IDI4Ljk0OSAyOS4yNjUyIDI4Ljg0MzcgMjkgMjguODQzN1oiLz4mI3hhOzwvc3ZnPg==;fontFamily=Segoe UI;fontSize=13;" parent="1" vertex="1">
                    <mxGeometry x="710" y="351" width="46.54" height="48" as="geometry"/>
                </mxCell>
                <mxCell id="42" value="Data Pipeline" style="shape=image;verticalLabelPosition=bottom;verticalAlign=top;imageAspect=0;aspect=fixed;image=data:image/svg+xml,PHN2ZyB4bWxucz0iaHR0cDovL3d3dy53My5vcmcvMjAwMC9zdmciIGZpbGw9Im5vbmUiIHZpZXdCb3g9IjAgMCAzMiAzMyIgaGVpZ2h0PSIzMyIgd2lkdGg9IjMyIj4mI3hhOzxwYXRoIGZpbGw9ImJsYWNrIiBkPSJNMiA5LjMyODEyQzIgNy42NzEyNyAzLjM0MzE1IDYuMzI4MTIgNSA2LjMyODEyQzYuNjU2ODUgNi4zMjgxMiA4IDcuNjcxMjcgOCA5LjMyODEzTDI0IDkuMzI4MTJDMjQgNy42NzEyNyAyNS4zNDMxIDYuMzI4MTIgMjcgNi4zMjgxMkMyOC42NTY5IDYuMzI4MTIgMzAgNy42NzEyNyAzMCA5LjMyODEzVjIzLjMyODFDMzAgMjQuOTg1IDI4LjY1NjkgMjYuMzI4MSAyNyAyNi4zMjgxQzI1LjM0MzEgMjYuMzI4MSAyNCAyNC45ODUgMjQgMjMuMzI4MUg4QzggMjQuOTg1IDYuNjU2ODUgMjYuMzI4MSA1IDI2LjMyODFDMy4zNDMxNSAyNi4zMjgxIDIgMjQuOTg1IDIgMjMuMzI4MVY5LjMyODEyWk02IDkuMzI4MTNDNiA4Ljc3NTg0IDUuNTUyMjggOC4zMjgxMiA1IDguMzI4MTJDNC40NDc3MSA4LjMyODEyIDQgOC43NzU4NCA0IDkuMzI4MTJWMjMuMzI4MUM0IDIzLjg4MDQgNC40NDc3MiAyNC4zMjgxIDUgMjQuMzI4MUM1LjU1MjI5IDI0LjMyODEgNiAyMy44ODA0IDYgMjMuMzI4MVY5LjMyODEzWk04IDIxLjMyODFMMjQgMjEuMzI4MVYxMS4zMjgxTDggMTEuMzI4MVYyMS4zMjgxWk0yOCA5LjMyODEzQzI4IDguNzc1ODQgMjcuNTUyMyA4LjMyODEyIDI3IDguMzI4MTJDMjYuNDQ3NyA4LjMyODEyIDI2IDguNzc1ODQgMjYgOS4zMjgxMlYyMy4zMjgxQzI2IDIzLjg4MDQgMjYuNDQ3NyAyNC4zMjgxIDI3IDI0LjMyODFDMjcuNTUyMyAyNC4zMjgxIDI4IDIzLjg4MDQgMjggMjMuMzI4MVY5LjMyODEzWiIvPiYjeGE7PC9zdmc+;spacingBottom=0;fontFamily=Segoe UI;fontSize=13;" parent="1" vertex="1">
                    <mxGeometry x="793.6100000000001" y="346" width="51.39" height="53" as="geometry"/>
                </mxCell>
                <mxCell id="43" value="Notebooks" style="shape=image;verticalLabelPosition=bottom;verticalAlign=top;imageAspect=0;aspect=fixed;image=data:image/svg+xml,PHN2ZyB4bWxucz0iaHR0cDovL3d3dy53My5vcmcvMjAwMC9zdmciIGZpbGw9Im5vbmUiIHZpZXdCb3g9IjAgMCAzMiAzMyIgaGVpZ2h0PSIzMyIgd2lkdGg9IjMyIj4mI3hhOzxwYXRoIGZpbGw9ImJsYWNrIiBkPSJNOCA3LjkzNzU2QzggNy4xMDkxMyA4LjY3MTU3IDYuNDM3NTYgOS41IDYuNDM3NTZIMjEuNUMyMi4zMjg0IDYuNDM3NTYgMjMgNy4xMDkxMyAyMyA3LjkzNzU2VjEwLjkzNzZDMjMgMTEuNzY2IDIyLjMyODQgMTIuNDM3NiAyMS41IDEyLjQzNzZIOS41QzguNjcxNTcgMTIuNDM3NiA4IDExLjc2NiA4IDEwLjkzNzZWNy45Mzc1NlpNMTAgOC40Mzc1NlYxMC40Mzc2SDIxVjguNDM3NTZIMTBaTTQgNS42ODc1NkM0IDMuODkyNjMgNS40NTUwOCAyLjQzNzU2IDcuMjUgMi40Mzc1NkgyMy43NUMyNS41NDQ5IDIuNDM3NTYgMjcgMy44OTI2NCAyNyA1LjY4NzU2VjI3LjE4NzZDMjcgMjguOTgyNSAyNS41NDQ5IDMwLjQzNzYgMjMuNzUgMzAuNDM3Nkg3LjI1QzUuNDU1MDcgMzAuNDM3NiA0IDI4Ljk4MjUgNCAyNy4xODc2VjUuNjg3NTZaTTcuMjUgNC40Mzc1NkM2LjU1OTY0IDQuNDM3NTYgNiA0Ljk5NzIgNiA1LjY4NzU2VjI3LjE4NzZDNiAyNy44Nzc5IDYuNTU5NjQgMjguNDM3NiA3LjI1IDI4LjQzNzZIMjMuNzVDMjQuNDQwNCAyOC40Mzc2IDI1IDI3Ljg3NzkgMjUgMjcuMTg3NlY1LjY4NzU2QzI1IDQuOTk3MjEgMjQuNDQwNCA0LjQzNzU2IDIzLjc1IDQuNDM3NTZINy4yNVpNMjkuMjUgOC40Mzc1NkgyOFYxMi40Mzc2SDI5LjI1QzI5LjY2NDIgMTIuNDM3NiAzMCAxMi4xMDE4IDMwIDExLjY4NzZWOS4xODc1NkMzMCA4Ljc3MzM1IDI5LjY2NDIgOC40Mzc1NiAyOS4yNSA4LjQzNzU2Wk0yOCAxNC40Mzc2SDI5LjI1QzI5LjY2NDIgMTQuNDM3NiAzMCAxNC43NzMzIDMwIDE1LjE4NzZWMTcuNjg3NkMzMCAxOC4xMDE4IDI5LjY2NDIgMTguNDM3NiAyOS4yNSAxOC40Mzc2SDI4VjE0LjQzNzZaTTI5LjI1IDIwLjQzNzZIMjhWMjQuNDM3NkgyOS4yNUMyOS42NjQyIDI0LjQzNzYgMzAgMjQuMTAxOCAzMCAyMy42ODc2VjIxLjE4NzZDMzAgMjAuNzczMyAyOS42NjQyIDIwLjQzNzYgMjkuMjUgMjAuNDM3NloiLz4mI3hhOzwvc3ZnPg==;spacingTop=3;fontFamily=Segoe UI;fontSize=13;" parent="1" vertex="1">
                    <mxGeometry x="876.6700000000001" y="353" width="42.67" height="44" as="geometry"/>
                </mxCell>
                <mxCell id="47" style="edgeStyle=none;html=1;entryX=0.5;entryY=0;entryDx=0;entryDy=0;fontSize=12;strokeWidth=3;strokeColor=#3399FF;" parent="1" target="38" edge="1">
                    <mxGeometry relative="1" as="geometry">
                        <mxPoint x="815" y="200" as="sourcePoint"/>
                    </mxGeometry>
                </mxCell>
                <mxCell id="61" style="edgeStyle=none;html=1;entryX=0;entryY=0.5;entryDx=0;entryDy=0;fontSize=12;strokeWidth=3;strokeColor=#3399FF;exitX=1;exitY=0.5;exitDx=0;exitDy=0;" parent="1" edge="1">
                    <mxGeometry relative="1" as="geometry">
                        <mxPoint x="852.3300000000004" y="160.17500000000018" as="sourcePoint"/>
                        <mxPoint x="940.5" y="160.16999999999996" as="targetPoint"/>
                    </mxGeometry>
                </mxCell>
                <mxCell id="49" value="&lt;font face=&quot;Segoe UI&quot;&gt;Prod&lt;/font&gt;" style="rounded=0;whiteSpace=wrap;html=1;strokeWidth=3;align=center;verticalAlign=top;spacingLeft=0;fontSize=19;fontStyle=1" parent="1" vertex="1">
                    <mxGeometry x="990" y="260" width="290" height="480" as="geometry"/>
                </mxCell>
                <mxCell id="51" value="Fabric Workspace" style="rounded=0;whiteSpace=wrap;html=1;align=left;verticalAlign=top;spacingLeft=5;fontStyle=1;fontSize=14;labelBorderColor=none;dashed=1;fontFamily=Segoe UI;" parent="1" vertex="1">
                    <mxGeometry x="1010" y="310" width="250" height="140" as="geometry"/>
                </mxCell>
                <mxCell id="52" value="Lakehouse" style="shape=image;verticalLabelPosition=bottom;verticalAlign=top;imageAspect=0;aspect=fixed;image=data:image/svg+xml,PHN2ZyB4bWxucz0iaHR0cDovL3d3dy53My5vcmcvMjAwMC9zdmciIGZpbGw9Im5vbmUiIHZpZXdCb3g9IjAgMCAzMiAzMyIgaGVpZ2h0PSIzMyIgd2lkdGg9IjMyIj4mI3hhOzxwYXRoIGZpbGw9ImJsYWNrIiBkPSJNMTIuNjI2IDQuMzkwMDJDMTMuMzk3IDMuNjYxNzQgMTQuNjAzIDMuNjYxNzQgMTUuMzc0IDQuMzkwMDJMMjUuMDYxIDEzLjU0MDNDMjUuNjYwNCAxNC4xMDY0IDI2IDE0Ljg5NDEgMjYgMTUuNzE4MlYxOC42MDYyQzI1Ljc5OSAxOC40MjY0IDI1LjU3NCAxOC4yNzQgMjUuMzMwNyAxOC4xNTM4QzI0LjkxNyAxNy45NDkyIDI0LjQ2MTUgMTcuODQzMiAyNCAxNy44NDM4VjE1LjcxODJDMjQgMTUuNDQzNSAyMy44ODY4IDE1LjE4MSAyMy42ODcgMTQuOTkyMkwxNCA1Ljg0MTk4TDQuMzEyOTkgMTQuOTkyMkM0LjExMzIgMTUuMTgxIDQgMTUuNDQzNSA0IDE1LjcxODJWMjYuODQ2NkM0IDI3LjM5ODMgNC40NDc3MiAyNy44NDU2IDUgMjcuODQ1Nkg4Ljc2MjNDOC4yNzI2NyAyOC4zOTM5IDggMjkuMTA0OCA4IDI5Ljg0MzhMNSAyOS44NDM4QzMuMzQzMTQgMjkuODQzOCAyIDI4LjUwMTkgMiAyNi44NDY2VjE1LjcxODJDMiAxNC44OTQxIDIuMzM5NjEgMTQuMTA2NCAyLjkzODk2IDEzLjU0MDNMMTIuNjI2IDQuMzkwMDJaIi8+JiN4YTs8cGF0aCBmaWxsPSJibGFjayIgZD0iTTI5IDIyLjg0MzdDMjguMzk3OSAyMi44NzczIDI3Ljc5NTIgMjIuNzg3NiAyNy4yMjg5IDIyLjU4QzI2LjY2MjcgMjIuMzcyNSAyNi4xNDQ4IDIyLjA1MTUgMjUuNzA3IDIxLjYzNjdDMjUuNDY1OCAyMS4zOTY0IDI1LjI1OTEgMjEuMTIzOCAyNS4wOTMgMjAuODI2N0MyNS4wNTI2IDIwLjc1MDYgMjUuMDE2MyAyMC42NzI1IDI0Ljk4NCAyMC41OTI3QzI0Ljk0OTMgMjAuNTA1OSAyNC45MDkyIDIwLjQyMTQgMjQuODY0IDIwLjMzOTdDMjQuODQzNyAyMC4zMDUgMjQuODIxNCAyMC4yNzE2IDI0Ljc5NyAyMC4yMzk3QzI0LjY3MTkgMjAuMDc1MyAyNC40OTkgMTkuOTUzNyAyNC4zMDIxIDE5Ljg5MTZDMjQuMTA1MSAxOS44Mjk1IDIzLjg5MzcgMTkuODI5OCAyMy42OTcgMTkuODkyN0gyMy42ODdDMjMuNDU2NiAxOS45NzA5IDIzLjI2MTggMjAuMTI5MiAyMy4xMzggMjAuMzM4N0MyMy4wODYxIDIwLjQzNTMgMjMuMDQxMyAyMC41MzU1IDIzLjAwNCAyMC42Mzg3TDIyLjk5MzUgMjAuNjY0OEMyMi45NjYxIDIwLjczMzIgMjIuOTM4NiAyMC44MDE5IDIyLjkwNCAyMC44NjY3QzIyLjc1NDEgMjEuMTY2IDIyLjU3MDkgMjEuNDQ3NCAyMi4zNTggMjEuNzA1N0MyMi4wNzY1IDIyLjA2MTEgMjEuNzE4MiAyMi4zNDgyIDIxLjMxMDEgMjIuNTQ1NUMyMC45MDE5IDIyLjc0MjkgMjAuNDU0NCAyMi44NDU0IDIwLjAwMSAyMi44NDU0QzE5LjU0NzYgMjIuODQ1NCAxOS4xMDAxIDIyLjc0MjkgMTguNjkxOSAyMi41NDU1QzE4LjI4MzggMjIuMzQ4MiAxNy45MjU1IDIyLjA2MTEgMTcuNjQ0IDIxLjcwNTdDMTcuNDMxMSAyMS40NDc0IDE3LjI0NzkgMjEuMTY2IDE3LjA5OCAyMC44NjY3QzE3LjA3MTEgMjAuODEzNiAxNy4wNDc5IDIwLjc1NzkgMTcuMDI0NiAyMC43MDE5QzE3LjAxNTggMjAuNjgwOCAxNy4wMDcgMjAuNjU5NyAxNi45OTggMjAuNjM4N0MxNi45NjA3IDIwLjUzNTUgMTYuOTE1OSAyMC40MzUzIDE2Ljg2NCAyMC4zMzg3QzE2Ljc0MDIgMjAuMTI5MiAxNi41NDU0IDE5Ljk3MDkgMTYuMzE1IDE5Ljg5MjdIMTYuMzA1QzE2LjEwODMgMTkuODI5OCAxNS44OTY5IDE5LjgyOTUgMTUuNjk5OSAxOS44OTE2QzE1LjUwMyAxOS45NTM3IDE1LjMzMDEgMjAuMDc1MyAxNS4yMDUgMjAuMjM5N0MxNS4xODA2IDIwLjI3MTYgMTUuMTU4MyAyMC4zMDUgMTUuMTM4IDIwLjMzOTdDMTUuMDkyOCAyMC40MjE0IDE1LjA1MjcgMjAuNTA1OSAxNS4wMTggMjAuNTkyN0MxNC45ODU3IDIwLjY3MjUgMTQuOTQ5NCAyMC43NTA2IDE0LjkwOSAyMC44MjY3QzE0Ljc0MjkgMjEuMTIzOCAxNC41MzYyIDIxLjM5NjQgMTQuMjk1IDIxLjYzNjdDMTMuODU3IDIyLjA1MTcgMTMuMzM4NyAyMi4zNzI5IDEyLjc3MjEgMjIuNTgwNEMxMi4yMDU1IDIyLjc4OCAxMS42MDI1IDIyLjg3NzYgMTEgMjIuODQzN0MxMC43MzQ4IDIyLjg0MzcgMTAuNDgwNCAyMi45NDkgMTAuMjkyOSAyMy4xMzY2QzEwLjEwNTQgMjMuMzI0MSAxMCAyMy41Nzg1IDEwIDIzLjg0MzdDMTAgMjQuMTA4OSAxMC4xMDU0IDI0LjM2MzIgMTAuMjkyOSAyNC41NTA4QzEwLjQ4MDQgMjQuNzM4MyAxMC43MzQ4IDI0Ljg0MzcgMTEgMjQuODQzN0MxMS44NjUgMjQuODc3OSAxMi43Mjc5IDI0LjczNjcgMTMuNTM2OSAyNC40Mjg2QzE0LjM0NTggMjQuMTIwNCAxNS4wODQgMjMuNjUxNyAxNS43MDcgMjMuMDUwN0MxNS43OTQgMjIuOTYzNyAxNS44NzYgMjIuODc2NyAxNS45NTIgMjIuNzg5N0MxNi4wMDEgMjIuODU0NyAxNi4wNTIgMjIuOTE4NyAxNi4xMDcgMjIuOTgzN0MxNi41NzU2IDIzLjU2NTEgMTcuMTY4NiAyNC4wMzQyIDE3Ljg0MjIgMjQuMzU2NUMxOC41MTU5IDI0LjY3ODggMTkuMjUzMiAyNC44NDYxIDIwIDI0Ljg0NjFDMjAuNzQ2OCAyNC44NDYxIDIxLjQ4NDEgMjQuNjc4OCAyMi4xNTc4IDI0LjM1NjVDMjIuODMxNCAyNC4wMzQyIDIzLjQyNDQgMjMuNTY1MSAyMy44OTMgMjIuOTgzN0MyMy45NDcgMjIuOTE4NyAyMy45OTkgMjIuODU0NyAyNC4wNDggMjIuNzg5N0MyNC4xMjQgMjIuODc2NyAyNC4yMDYgMjIuOTYzNyAyNC4yOTMgMjMuMDUwN0MyNC45MTYgMjMuNjUxNyAyNS42NTQyIDI0LjEyMDQgMjYuNDYzMSAyNC40Mjg2QzI3LjI3MjEgMjQuNzM2NyAyOC4xMzUgMjQuODc3OSAyOSAyNC44NDM3QzI5LjI2NTIgMjQuODQzNyAyOS41MTk2IDI0LjczODMgMjkuNzA3MSAyNC41NTA4QzI5Ljg5NDYgMjQuMzYzMiAzMCAyNC4xMDg5IDMwIDIzLjg0MzdDMzAgMjMuNTc4NSAyOS44OTQ2IDIzLjMyNDEgMjkuNzA3MSAyMy4xMzY2QzI5LjUxOTYgMjIuOTQ5IDI5LjI2NTIgMjIuODQzNyAyOSAyMi44NDM3WiIvPiYjeGE7PHBhdGggZmlsbD0iYmxhY2siIGQ9Ik0yOSAyOC44NDM3QzI4LjM5NzkgMjguODc3MyAyNy43OTUyIDI4Ljc4NzYgMjcuMjI4OSAyOC41OEMyNi42NjI3IDI4LjM3MjUgMjYuMTQ0OCAyOC4wNTE1IDI1LjcwNyAyNy42MzY3QzI1LjQ2NTggMjcuMzk2NCAyNS4yNTkxIDI3LjEyMzggMjUuMDkzIDI2LjgyNjdDMjUuMDUyNiAyNi43NTA2IDI1LjAxNjMgMjYuNjcyNSAyNC45ODQgMjYuNTkyN0MyNC45NDkzIDI2LjUwNTkgMjQuOTA5MiAyNi40MjE0IDI0Ljg2NCAyNi4zMzk3QzI0Ljg0MzcgMjYuMzA1IDI0LjgyMTQgMjYuMjcxNiAyNC43OTcgMjYuMjM5N0MyNC42NzE5IDI2LjA3NTMgMjQuNDk5IDI1Ljk1MzcgMjQuMzAyMSAyNS44OTE2QzI0LjEwNTEgMjUuODI5NSAyMy44OTM3IDI1LjgyOTggMjMuNjk3IDI1Ljg5MjdIMjMuNjg3QzIzLjQ1NjYgMjUuOTcwOSAyMy4yNjE4IDI2LjEyOTIgMjMuMTM4IDI2LjMzODdDMjMuMDg2MSAyNi40MzUzIDIzLjA0MTMgMjYuNTM1NSAyMy4wMDQgMjYuNjM4N0wyMi45OTM1IDI2LjY2NDhDMjIuOTY2MSAyNi43MzMyIDIyLjkzODYgMjYuODAxOSAyMi45MDQgMjYuODY2N0MyMi43NTQxIDI3LjE2NiAyMi41NzA5IDI3LjQ0NzQgMjIuMzU4IDI3LjcwNTdDMjIuMDc2NSAyOC4wNjExIDIxLjcxODIgMjguMzQ4MiAyMS4zMTAxIDI4LjU0NTVDMjAuOTAxOSAyOC43NDI5IDIwLjQ1NDQgMjguODQ1NCAyMC4wMDEgMjguODQ1NEMxOS41NDc2IDI4Ljg0NTQgMTkuMTAwMSAyOC43NDI5IDE4LjY5MTkgMjguNTQ1NUMxOC4yODM4IDI4LjM0ODIgMTcuOTI1NSAyOC4wNjExIDE3LjY0NCAyNy43MDU3QzE3LjQzMTEgMjcuNDQ3NCAxNy4yNDc5IDI3LjE2NiAxNy4wOTggMjYuODY2N0MxNy4wNzExIDI2LjgxMzYgMTcuMDQ3OSAyNi43NTc5IDE3LjAyNDYgMjYuNzAxOUMxNy4wMTU4IDI2LjY4MDggMTcuMDA3IDI2LjY1OTcgMTYuOTk4IDI2LjYzODdDMTYuOTYwNyAyNi41MzU1IDE2LjkxNTkgMjYuNDM1MyAxNi44NjQgMjYuMzM4N0MxNi43NDAyIDI2LjEyOTIgMTYuNTQ1NCAyNS45NzA5IDE2LjMxNSAyNS44OTI3SDE2LjMwNUMxNi4xMDgzIDI1LjgyOTggMTUuODk2OSAyNS44Mjk1IDE1LjY5OTkgMjUuODkxNkMxNS41MDMgMjUuOTUzNyAxNS4zMzAxIDI2LjA3NTMgMTUuMjA1IDI2LjIzOTdDMTUuMTgwNiAyNi4yNzE2IDE1LjE1ODMgMjYuMzA1IDE1LjEzOCAyNi4zMzk3QzE1LjA5MjggMjYuNDIxNCAxNS4wNTI3IDI2LjUwNTkgMTUuMDE4IDI2LjU5MjdDMTQuOTg1NyAyNi42NzI1IDE0Ljk0OTQgMjYuNzUwNiAxNC45MDkgMjYuODI2N0MxNC43NDI5IDI3LjEyMzggMTQuNTM2MiAyNy4zOTY0IDE0LjI5NSAyNy42MzY3QzEzLjg1NyAyOC4wNTE3IDEzLjMzODcgMjguMzcyOSAxMi43NzIxIDI4LjU4MDRDMTIuMjA1NSAyOC43ODggMTEuNjAyNSAyOC44Nzc2IDExIDI4Ljg0MzdDMTAuNzM0OCAyOC44NDM3IDEwLjQ4MDQgMjguOTQ5IDEwLjI5MjkgMjkuMTM2NkMxMC4xMDU0IDI5LjMyNDEgMTAgMjkuNTc4NSAxMCAyOS44NDM3QzEwIDMwLjEwODkgMTAuMTA1NCAzMC4zNjMyIDEwLjI5MjkgMzAuNTUwOEMxMC40ODA0IDMwLjczODMgMTAuNzM0OCAzMC44NDM3IDExIDMwLjg0MzdDMTEuODY1IDMwLjg3NzkgMTIuNzI3OSAzMC43MzY3IDEzLjUzNjkgMzAuNDI4NkMxNC4zNDU4IDMwLjEyMDQgMTUuMDg0IDI5LjY1MTcgMTUuNzA3IDI5LjA1MDdDMTUuNzk0IDI4Ljk2MzcgMTUuODc2IDI4Ljg3NjcgMTUuOTUyIDI4Ljc4OTdDMTYuMDAxIDI4Ljg1NDcgMTYuMDUyIDI4LjkxODcgMTYuMTA3IDI4Ljk4MzdDMTYuNTc1NiAyOS41NjUxIDE3LjE2ODYgMzAuMDM0MiAxNy44NDIyIDMwLjM1NjVDMTguNTE1OSAzMC42Nzg4IDE5LjI1MzIgMzAuODQ2MSAyMCAzMC44NDYxQzIwLjc0NjggMzAuODQ2MSAyMS40ODQxIDMwLjY3ODggMjIuMTU3OCAzMC4zNTY1QzIyLjgzMTQgMzAuMDM0MiAyMy40MjQ0IDI5LjU2NTEgMjMuODkzIDI4Ljk4MzdDMjMuOTQ3IDI4LjkxODcgMjMuOTk5IDI4Ljg1NDcgMjQuMDQ4IDI4Ljc4OTdDMjQuMTI0IDI4Ljg3NjcgMjQuMjA2IDI4Ljk2MzcgMjQuMjkzIDI5LjA1MDdDMjQuOTE2IDI5LjY1MTcgMjUuNjU0MiAzMC4xMjA0IDI2LjQ2MzEgMzAuNDI4NkMyNy4yNzIxIDMwLjczNjcgMjguMTM1IDMwLjg3NzkgMjkgMzAuODQzN0MyOS4yNjUyIDMwLjg0MzcgMjkuNTE5NiAzMC43MzgzIDI5LjcwNzEgMzAuNTUwOEMyOS44OTQ2IDMwLjM2MzIgMzAgMzAuMTA4OSAzMCAyOS44NDM3QzMwIDI5LjU3ODUgMjkuODk0NiAyOS4zMjQxIDI5LjcwNzEgMjkuMTM2NkMyOS41MTk2IDI4Ljk0OSAyOS4yNjUyIDI4Ljg0MzcgMjkgMjguODQzN1oiLz4mI3hhOzwvc3ZnPg==;fontFamily=Segoe UI;fontSize=13;" parent="1" vertex="1">
                    <mxGeometry x="1030" y="351" width="46.54" height="48" as="geometry"/>
                </mxCell>
                <mxCell id="53" value="Data Pipeline" style="shape=image;verticalLabelPosition=bottom;verticalAlign=top;imageAspect=0;aspect=fixed;image=data:image/svg+xml,PHN2ZyB4bWxucz0iaHR0cDovL3d3dy53My5vcmcvMjAwMC9zdmciIGZpbGw9Im5vbmUiIHZpZXdCb3g9IjAgMCAzMiAzMyIgaGVpZ2h0PSIzMyIgd2lkdGg9IjMyIj4mI3hhOzxwYXRoIGZpbGw9ImJsYWNrIiBkPSJNMiA5LjMyODEyQzIgNy42NzEyNyAzLjM0MzE1IDYuMzI4MTIgNSA2LjMyODEyQzYuNjU2ODUgNi4zMjgxMiA4IDcuNjcxMjcgOCA5LjMyODEzTDI0IDkuMzI4MTJDMjQgNy42NzEyNyAyNS4zNDMxIDYuMzI4MTIgMjcgNi4zMjgxMkMyOC42NTY5IDYuMzI4MTIgMzAgNy42NzEyNyAzMCA5LjMyODEzVjIzLjMyODFDMzAgMjQuOTg1IDI4LjY1NjkgMjYuMzI4MSAyNyAyNi4zMjgxQzI1LjM0MzEgMjYuMzI4MSAyNCAyNC45ODUgMjQgMjMuMzI4MUg4QzggMjQuOTg1IDYuNjU2ODUgMjYuMzI4MSA1IDI2LjMyODFDMy4zNDMxNSAyNi4zMjgxIDIgMjQuOTg1IDIgMjMuMzI4MVY5LjMyODEyWk02IDkuMzI4MTNDNiA4Ljc3NTg0IDUuNTUyMjggOC4zMjgxMiA1IDguMzI4MTJDNC40NDc3MSA4LjMyODEyIDQgOC43NzU4NCA0IDkuMzI4MTJWMjMuMzI4MUM0IDIzLjg4MDQgNC40NDc3MiAyNC4zMjgxIDUgMjQuMzI4MUM1LjU1MjI5IDI0LjMyODEgNiAyMy44ODA0IDYgMjMuMzI4MVY5LjMyODEzWk04IDIxLjMyODFMMjQgMjEuMzI4MVYxMS4zMjgxTDggMTEuMzI4MVYyMS4zMjgxWk0yOCA5LjMyODEzQzI4IDguNzc1ODQgMjcuNTUyMyA4LjMyODEyIDI3IDguMzI4MTJDMjYuNDQ3NyA4LjMyODEyIDI2IDguNzc1ODQgMjYgOS4zMjgxMlYyMy4zMjgxQzI2IDIzLjg4MDQgMjYuNDQ3NyAyNC4zMjgxIDI3IDI0LjMyODFDMjcuNTUyMyAyNC4zMjgxIDI4IDIzLjg4MDQgMjggMjMuMzI4MVY5LjMyODEzWiIvPiYjeGE7PC9zdmc+;spacingBottom=0;fontFamily=Segoe UI;fontSize=13;" parent="1" vertex="1">
                    <mxGeometry x="1113.6100000000001" y="346" width="51.39" height="53" as="geometry"/>
                </mxCell>
                <mxCell id="54" value="Notebooks" style="shape=image;verticalLabelPosition=bottom;verticalAlign=top;imageAspect=0;aspect=fixed;image=data:image/svg+xml,PHN2ZyB4bWxucz0iaHR0cDovL3d3dy53My5vcmcvMjAwMC9zdmciIGZpbGw9Im5vbmUiIHZpZXdCb3g9IjAgMCAzMiAzMyIgaGVpZ2h0PSIzMyIgd2lkdGg9IjMyIj4mI3hhOzxwYXRoIGZpbGw9ImJsYWNrIiBkPSJNOCA3LjkzNzU2QzggNy4xMDkxMyA4LjY3MTU3IDYuNDM3NTYgOS41IDYuNDM3NTZIMjEuNUMyMi4zMjg0IDYuNDM3NTYgMjMgNy4xMDkxMyAyMyA3LjkzNzU2VjEwLjkzNzZDMjMgMTEuNzY2IDIyLjMyODQgMTIuNDM3NiAyMS41IDEyLjQzNzZIOS41QzguNjcxNTcgMTIuNDM3NiA4IDExLjc2NiA4IDEwLjkzNzZWNy45Mzc1NlpNMTAgOC40Mzc1NlYxMC40Mzc2SDIxVjguNDM3NTZIMTBaTTQgNS42ODc1NkM0IDMuODkyNjMgNS40NTUwOCAyLjQzNzU2IDcuMjUgMi40Mzc1NkgyMy43NUMyNS41NDQ5IDIuNDM3NTYgMjcgMy44OTI2NCAyNyA1LjY4NzU2VjI3LjE4NzZDMjcgMjguOTgyNSAyNS41NDQ5IDMwLjQzNzYgMjMuNzUgMzAuNDM3Nkg3LjI1QzUuNDU1MDcgMzAuNDM3NiA0IDI4Ljk4MjUgNCAyNy4xODc2VjUuNjg3NTZaTTcuMjUgNC40Mzc1NkM2LjU1OTY0IDQuNDM3NTYgNiA0Ljk5NzIgNiA1LjY4NzU2VjI3LjE4NzZDNiAyNy44Nzc5IDYuNTU5NjQgMjguNDM3NiA3LjI1IDI4LjQzNzZIMjMuNzVDMjQuNDQwNCAyOC40Mzc2IDI1IDI3Ljg3NzkgMjUgMjcuMTg3NlY1LjY4NzU2QzI1IDQuOTk3MjEgMjQuNDQwNCA0LjQzNzU2IDIzLjc1IDQuNDM3NTZINy4yNVpNMjkuMjUgOC40Mzc1NkgyOFYxMi40Mzc2SDI5LjI1QzI5LjY2NDIgMTIuNDM3NiAzMCAxMi4xMDE4IDMwIDExLjY4NzZWOS4xODc1NkMzMCA4Ljc3MzM1IDI5LjY2NDIgOC40Mzc1NiAyOS4yNSA4LjQzNzU2Wk0yOCAxNC40Mzc2SDI5LjI1QzI5LjY2NDIgMTQuNDM3NiAzMCAxNC43NzMzIDMwIDE1LjE4NzZWMTcuNjg3NkMzMCAxOC4xMDE4IDI5LjY2NDIgMTguNDM3NiAyOS4yNSAxOC40Mzc2SDI4VjE0LjQzNzZaTTI5LjI1IDIwLjQzNzZIMjhWMjQuNDM3NkgyOS4yNUMyOS42NjQyIDI0LjQzNzYgMzAgMjQuMTAxOCAzMCAyMy42ODc2VjIxLjE4NzZDMzAgMjAuNzczMyAyOS42NjQyIDIwLjQzNzYgMjkuMjUgMjAuNDM3NloiLz4mI3hhOzwvc3ZnPg==;spacingTop=3;fontFamily=Segoe UI;fontSize=13;" parent="1" vertex="1">
                    <mxGeometry x="1196.67" y="353" width="42.67" height="44" as="geometry"/>
                </mxCell>
                <mxCell id="58" style="edgeStyle=none;html=1;entryX=0.5;entryY=0;entryDx=0;entryDy=0;fontSize=12;strokeWidth=3;strokeColor=#3399FF;exitX=0.5;exitY=1;exitDx=0;exitDy=0;" parent="1" target="49" edge="1">
                    <mxGeometry relative="1" as="geometry">
                        <mxPoint x="1135.005" y="197.5" as="sourcePoint"/>
                    </mxGeometry>
                </mxCell>
                <mxCell id="62" value="" style="endArrow=none;html=1;dashed=1;dashPattern=1 1;exitX=0;exitY=0;exitDx=0;exitDy=0;" parent="1" source="65" edge="1">
                    <mxGeometry width="50" height="50" relative="1" as="geometry">
                        <mxPoint x="180" y="230" as="sourcePoint"/>
                        <mxPoint x="1320" y="230" as="targetPoint"/>
                    </mxGeometry>
                </mxCell>
                <mxCell id="63" value="" style="endArrow=none;html=1;exitX=0;exitY=0;exitDx=0;exitDy=0;dashed=1;dashPattern=1 1;" parent="1" source="64" edge="1">
                    <mxGeometry width="50" height="50" relative="1" as="geometry">
                        <mxPoint x="155" y="470" as="sourcePoint"/>
                        <mxPoint x="1315" y="470" as="targetPoint"/>
                    </mxGeometry>
                </mxCell>
                <mxCell id="74" style="edgeStyle=none;html=1;fontSize=12;strokeWidth=3;strokeColor=#3399FF;exitX=1;exitY=0.5;exitDx=0;exitDy=0;entryX=0;entryY=0.5;entryDx=0;entryDy=0;" parent="1" edge="1">
                    <mxGeometry relative="1" as="geometry">
                        <mxPoint x="532.8299999999999" y="160.17500000000018" as="sourcePoint"/>
                        <mxPoint x="625.5" y="160.16999999999996" as="targetPoint"/>
                    </mxGeometry>
                </mxCell>
                <mxCell id="75" style="edgeStyle=none;html=1;fontSize=12;strokeWidth=3;strokeColor=#3399FF;exitX=0.5;exitY=1;exitDx=0;exitDy=0;entryX=0.5;entryY=0;entryDx=0;entryDy=0;" parent="1" target="3" edge="1">
                    <mxGeometry relative="1" as="geometry">
                        <mxPoint x="495.50499999999965" y="197.5" as="sourcePoint"/>
                        <mxPoint x="640" y="175" as="targetPoint"/>
                    </mxGeometry>
                </mxCell>
                <mxCell id="78" style="edgeStyle=none;html=1;entryX=0;entryY=0.5;entryDx=0;entryDy=0;fontSize=12;strokeWidth=3;strokeColor=#3399FF;exitX=1;exitY=0.5;exitDx=0;exitDy=0;" parent="1" edge="1">
                    <mxGeometry relative="1" as="geometry">
                        <mxPoint x="1005.5" y="160.16999999999996" as="sourcePoint"/>
                        <mxPoint x="1097.6800000000003" y="160.17500000000018" as="targetPoint"/>
                    </mxGeometry>
                </mxCell>
                <mxCell id="79" style="edgeStyle=none;html=1;entryX=0;entryY=0.5;entryDx=0;entryDy=0;fontSize=12;strokeWidth=3;strokeColor=#3399FF;exitX=1;exitY=0.5;exitDx=0;exitDy=0;" parent="1" edge="1">
                    <mxGeometry relative="1" as="geometry">
                        <mxPoint x="690.5" y="160.16999999999996" as="sourcePoint"/>
                        <mxPoint x="777.6800000000003" y="160.17500000000018" as="targetPoint"/>
                    </mxGeometry>
                </mxCell>
                <mxCell id="80" value="Fabric Capacity" style="shape=image;verticalLabelPosition=bottom;verticalAlign=top;imageAspect=0;aspect=fixed;image=data:image/svg+xml,PHN2ZyB4bWxucz0iaHR0cDovL3d3dy53My5vcmcvMjAwMC9zdmciIGZpbGw9Im5vbmUiIHZpZXdCb3g9IjAgMCAyNTYgMjU2IiBoZWlnaHQ9IjI1NiIgd2lkdGg9IjI1NiI+JiN4YTs8ZyBjbGlwLXBhdGg9InVybCgjY2xpcDBfMTI2M18xMjQ1OTApIj4mI3hhOzxwYXRoIGZpbGw9InVybCgjcGFpbnQwX2xpbmVhcl8xMjYzXzEyNDU5MCkiIGQ9Ik0xMC40OTYgMTc2LjYzNEw2Ljc0NjY5IDE5MC4zNTZDNS4zNDkzNyAxOTQuNzQ2IDMuMzkyMDUgMjAxLjE5NCAyLjMzNjA2IDIwNi45MzJDMC44MzIwNjkgMjEwLjkgMC4wMTA3NDIyIDIxNS4yMDQgMC4wMTA3NDIyIDIxOS43QzAuMDEwNzQyMiAyMzguMjM5IDE0LjAxNiAyNTMuNTAyIDMyLjAyMTIgMjU1LjQ5N0MzNy4wODc4IDI1Ni4yMjggNDIuODIxMSAyNTYuMTkgNDkuMjQ3NyAyNTUuMjQ2TDc4Ljc3MjggMjUxLjE3MkM4Ni4xOTY3IDI1MC4xNDggOTIuMjkyNyAyNDQuNzg4IDk0LjI2NiAyMzcuNTU2TDExNC41ODYgMTYyLjkyMkwxMC40OTYgMTc2LjYzNFoiIGNsaXAtcnVsZT0iZXZlbm9kZCIgZmlsbC1ydWxlPSJldmVub2RkIi8+JiN4YTs8cGF0aCBmaWxsPSJ1cmwoI3BhaW50MV9saW5lYXJfMTI2M18xMjQ1OTApIiBkPSJNMzkuMjk0MiAxODAuMTdDOC4xNzQ0NCAxODQuOTkxIDEuNzg1MTYgMjA4LjQ3NCAxLjc4NTE2IDIwOC40NzRMMzEuNTg3NiA5OC45NzA4TDE4Ny4zMTQgNzcuOTA0M0wxNjYuMDc3IDE1NS4wNEMxNjQuOTczIDE1OS4xNzMgMTYxLjUwMSAxNjIuMzQxIDE1Ny4xOTcgMTYyLjk5N0wxNTYuMzI4IDE2My4xNDFMMzguNDE5NSAxODAuMzJMMzkuMjk0MiAxODAuMTdaIi8+JiN4YTs8cGF0aCBmaWxsLW9wYWNpdHk9IjAuOCIgZmlsbD0idXJsKCNwYWludDJfbGluZWFyXzEyNjNfMTI0NTkwKSIgZD0iTTM5LjI5NDIgMTgwLjE3QzguMTc0NDQgMTg0Ljk5MSAxLjc4NTE2IDIwOC40NzQgMS43ODUxNiAyMDguNDc0TDMxLjU4NzYgOTguOTcwOEwxODcuMzE0IDc3LjkwNDNMMTY2LjA3NyAxNTUuMDRDMTY0Ljk3MyAxNTkuMTczIDE2MS41MDEgMTYyLjM0MSAxNTcuMTk3IDE2Mi45OTdMMTU2LjMyOCAxNjMuMTQxTDM4LjQxOTUgMTgwLjMyTDM5LjI5NDIgMTgwLjE3WiIvPiYjeGE7PHBhdGggZmlsbD0idXJsKCNwYWludDNfbGluZWFyXzEyNjNfMTI0NTkwKSIgZD0iTTU2Ljk1MzIgMTEwLjMwM0wyMjkuMzUyIDg0LjgzNjdDMjMzLjQ1MyA4NC4yNzY3IDIzNi43NzYgODEuMjc0IDIzNy44MjEgNzcuMzQzNEwyNTUuNjEzIDEyLjk1NDZDMjU1Ljg1OCAxMi4wNzk5IDI1NS45ODYgMTEuMTU3MiAyNTUuOTg2IDEwLjIwNzlDMjU1Ljk4NiA0LjU3MDYzIDI1MS40MjEgMCAyNDUuNzc4IDBDMjQ1LjM0MSAwIDI0NC45MDQgMC4wMjY2NjY1IDI0NC40ODIgMC4wNzk5OTk0TDc5Ljk4MjQgMjQuMzg5MUM2Mi4xMTU4IDI3LjI1ODUgNDcuNjg5MyA0MC40MzcgNDMuMDA2NyA1Ny42MjYyTDE5LjI4NDIgMTQzLjYwNEMyNC4wNDY4IDEyNi4yMTIgMjYuOTc0OCAxMTUuNzI3IDU2Ljk1MzIgMTEwLjMwM1oiLz4mI3hhOzxwYXRoIGZpbGw9InVybCgjcGFpbnQ0X2xpbmVhcl8xMjYzXzEyNDU5MCkiIGQ9Ik01Ni45NTMyIDExMC4zMDNMMjI5LjM1MiA4NC44MzY3QzIzMy40NTMgODQuMjc2NyAyMzYuNzc2IDgxLjI3NCAyMzcuODIxIDc3LjM0MzRMMjU1LjYxMyAxMi45NTQ2QzI1NS44NTggMTIuMDc5OSAyNTUuOTg2IDExLjE1NzIgMjU1Ljk4NiAxMC4yMDc5QzI1NS45ODYgNC41NzA2MyAyNTEuNDIxIDAgMjQ1Ljc3OCAwQzI0NS4zNDEgMCAyNDQuOTA0IDAuMDI2NjY2NSAyNDQuNDgyIDAuMDc5OTk5NEw3OS45ODI0IDI0LjM4OTFDNjIuMTE1OCAyNy4yNTg1IDQ3LjY4OTMgNDAuNDM3IDQzLjAwNjcgNTcuNjI2MkwxOS4yODQyIDE0My42MDRDMjQuMDQ2OCAxMjYuMjEyIDI2Ljk3NDggMTE1LjcyNyA1Ni45NTMyIDExMC4zMDNaIi8+JiN4YTs8cGF0aCBmaWxsPSJ1cmwoI3BhaW50NV9saW5lYXJfMTI2M18xMjQ1OTApIiBkPSJNNTYuOTUzMiAxMTAuMzAzTDIyOS4zNTIgODQuODM2N0MyMzMuNDUzIDg0LjI3NjcgMjM2Ljc3NiA4MS4yNzQgMjM3LjgyMSA3Ny4zNDM0TDI1NS42MTMgMTIuOTU0NkMyNTUuODU4IDEyLjA3OTkgMjU1Ljk4NiAxMS4xNTcyIDI1NS45ODYgMTAuMjA3OUMyNTUuOTg2IDQuNTcwNjMgMjUxLjQyMSAwIDI0NS43NzggMEMyNDUuMzQxIDAgMjQ0LjkwNCAwLjAyNjY2NjUgMjQ0LjQ4MiAwLjA3OTk5OTRMNzkuOTgyNCAyNC4zODkxQzYyLjExNTggMjcuMjU4NSA0Ny42ODkzIDQwLjQzNyA0My4wMDY3IDU3LjYyNjJMMTkuMjg0MiAxNDMuNjA0QzI0LjA0NjggMTI2LjIxMiAyNi45NzQ4IDExNS43MjcgNTYuOTUzMiAxMTAuMzAzWiIvPiYjeGE7PHBhdGggZmlsbD0idXJsKCNwYWludDZfbGluZWFyXzEyNjNfMTI0NTkwKSIgZD0iTTU2Ljk1MzIgMTEwLjMwM0wyMjkuMzUyIDg0LjgzNjdDMjMzLjQ1MyA4NC4yNzY3IDIzNi43NzYgODEuMjc0IDIzNy44MjEgNzcuMzQzNEwyNTUuNjEzIDEyLjk1NDZDMjU1Ljg1OCAxMi4wNzk5IDI1NS45ODYgMTEuMTU3MiAyNTUuOTg2IDEwLjIwNzlDMjU1Ljk4NiA0LjU3MDYzIDI1MS40MjEgMCAyNDUuNzc4IDBDMjQ1LjM0MSAwIDI0NC45MDQgMC4wMjY2NjY1IDI0NC40ODIgMC4wNzk5OTk0TDc5Ljk4MjQgMjQuMzg5MUM2Mi4xMTU4IDI3LjI1ODUgNDcuNjg5MyA0MC40MzcgNDMuMDA2NyA1Ny42MjYyTDE5LjI4NDIgMTQzLjYwNEMyNC4wNDY4IDEyNi4yMTIgMjYuOTc0OCAxMTUuNzI3IDU2Ljk1MzIgMTEwLjMwM1oiLz4mI3hhOzxwYXRoIGZpbGw9InVybCgjcGFpbnQ3X2xpbmVhcl8xMjYzXzEyNDU5MCkiIGQ9Ik01Ni45NTMyIDExMC4zMDNMMjI5LjM1MiA4NC44MzY3QzIzMy40NTMgODQuMjc2NyAyMzYuNzc2IDgxLjI3NCAyMzcuODIxIDc3LjM0MzRMMjU1LjYxMyAxMi45NTQ2QzI1NS44NTggMTIuMDc5OSAyNTUuOTg2IDExLjE1NzIgMjU1Ljk4NiAxMC4yMDc5QzI1NS45ODYgNC41NzA2MyAyNTEuNDIxIDAgMjQ1Ljc3OCAwQzI0NS4zNDEgMCAyNDQuOTA0IDAuMDI2NjY2NSAyNDQuNDgyIDAuMDc5OTk5NEw3OS45ODI0IDI0LjM4OTFDNjIuMTE1OCAyNy4yNTg1IDQ3LjY4OTMgNDAuNDM3IDQzLjAwNjcgNTcuNjI2MkwxOS4yODQyIDE0My42MDRDMjQuMDQ2OCAxMjYuMjEyIDI2Ljk3NDggMTE1LjcyNyA1Ni45NTMyIDExMC4zMDNaIi8+JiN4YTs8cGF0aCBmaWxsPSJ1cmwoI3BhaW50OF9saW5lYXJfMTI2M18xMjQ1OTApIiBkPSJNNTYuOTUzMiAxMTAuMzAzTDIyOS4zNTIgODQuODM2N0MyMzMuNDUzIDg0LjI3NjcgMjM2Ljc3NiA4MS4yNzQgMjM3LjgyMSA3Ny4zNDM0TDI1NS42MTMgMTIuOTU0NkMyNTUuODU4IDEyLjA3OTkgMjU1Ljk4NiAxMS4xNTcyIDI1NS45ODYgMTAuMjA3OUMyNTUuOTg2IDQuNTcwNjMgMjUxLjQyMSAwIDI0NS43NzggMEMyNDUuMzQxIDAgMjQ0LjkwNCAwLjAyNjY2NjUgMjQ0LjQ4MiAwLjA3OTk5OTRMNzkuOTgyNCAyNC4zODkxQzYyLjExNTggMjcuMjU4NSA0Ny42ODkzIDQwLjQzNyA0My4wMDY3IDU3LjYyNjJMMTkuMjg0MiAxNDMuNjA0QzI0LjA0NjggMTI2LjIxMiAyNi45NzQ4IDExNS43MjcgNTYuOTUzMiAxMTAuMzAzWiIvPiYjeGE7PHBhdGggZmlsbC1vcGFjaXR5PSIwLjQiIGZpbGw9InVybCgjcGFpbnQ5X2xpbmVhcl8xMjYzXzEyNDU5MCkiIGQ9Ik01Ni45NTMyIDExMC4zMDNMMjI5LjM1MiA4NC44MzY3QzIzMy40NTMgODQuMjc2NyAyMzYuNzc2IDgxLjI3NCAyMzcuODIxIDc3LjM0MzRMMjU1LjYxMyAxMi45NTQ2QzI1NS44NTggMTIuMDc5OSAyNTUuOTg2IDExLjE1NzIgMjU1Ljk4NiAxMC4yMDc5QzI1NS45ODYgNC41NzA2MyAyNTEuNDIxIDAgMjQ1Ljc3OCAwQzI0NS4zNDEgMCAyNDQuOTA0IDAuMDI2NjY2NSAyNDQuNDgyIDAuMDc5OTk5NEw3OS45ODI0IDI0LjM4OTFDNjIuMTE1OCAyNy4yNTg1IDQ3LjY4OTMgNDAuNDM3IDQzLjAwNjcgNTcuNjI2MkwxOS4yODQyIDE0My42MDRDMjQuMDQ2OCAxMjYuMjEyIDI2Ljk3NDggMTE1LjcyNyA1Ni45NTMyIDExMC4zMDNaIi8+JiN4YTs8cGF0aCBmaWxsPSJ1cmwoI3BhaW50MTBfbGluZWFyXzEyNjNfMTI0NTkwKSIgZD0iTTU2Ljk1MjcgMTEwLjMwOUMzMS45ODc2IDExNC44MjcgMjUuNzkwMyAxMjIuODY5IDIxLjY2MjMgMTM1LjQ3MkwxLjc4NTE2IDIwOC40OUMxLjc4NTE2IDIwOC40OSA4LjEzNzExIDE4NS4yNDIgMzguODc4MiAxODAuMjcxTDE1Ni4zMzMgMTYzLjE2MkwxNTcuMjAzIDE2My4wMThDMTYxLjUwNyAxNjIuMzYyIDE2NC45NzkgMTU5LjE4OSAxNjYuMDgzIDE1NS4wNjFMMTgzLjU1NCA5MS42MDU1TDU2Ljk1ODEgMTEwLjMwOUg1Ni45NTI3WiIvPiYjeGE7PHBhdGggZmlsbC1vcGFjaXR5PSIwLjIiIGZpbGw9InVybCgjcGFpbnQxMV9saW5lYXJfMTI2M18xMjQ1OTApIiBkPSJNNTYuOTUyNyAxMTAuMzA5QzMxLjk4NzYgMTE0LjgyNyAyNS43OTAzIDEyMi44NjkgMjEuNjYyMyAxMzUuNDcyTDEuNzg1MTYgMjA4LjQ5QzEuNzg1MTYgMjA4LjQ5IDguMTM3MTEgMTg1LjI0MiAzOC44NzgyIDE4MC4yNzFMMTU2LjMzMyAxNjMuMTYyTDE1Ny4yMDMgMTYzLjAxOEMxNjEuNTA3IDE2Mi4zNjIgMTY0Ljk3OSAxNTkuMTg5IDE2Ni4wODMgMTU1LjA2MUwxODMuNTU0IDkxLjYwNTVMNTYuOTU4MSAxMTAuMzA5SDU2Ljk1MjdaIi8+JiN4YTs8cGF0aCBmaWxsPSJ1cmwoI3BhaW50MTJfbGluZWFyXzEyNjNfMTI0NTkwKSIgZD0iTTM4Ljg3OTggMTgwLjI3MkMxMi45MDEzIDE4NC40NzUgNC4zNjgwNCAyMDEuNjggMi4zMzYwNiAyMDYuOTIzQzAuODMyMDY5IDIxMC45MDEgMC4wMTA3NDIyIDIxNS4yMDUgMC4wMTA3NDIyIDIxOS43MDFDMC4wMTA3NDIyIDIzOC4yNCAxNC4wMTYgMjUzLjUwNCAzMi4wMjEyIDI1NS40OThDMzcuMDg3OCAyNTYuMjI5IDQyLjgyMTEgMjU2LjE5MiA0OS4yNDc3IDI1NS4yNDhMNzguNzcyOCAyNTEuMTczQzg2LjE5NjcgMjUwLjE0OSA5Mi4yOTI3IDI0NC43ODkgOTQuMjY2IDIzNy41NTdMMTEyLjc4OSAxNjkuNTFMMzguODg1MSAxODAuMjc4TDM4Ljg3OTggMTgwLjI3MloiIGNsaXAtcnVsZT0iZXZlbm9kZCIgZmlsbC1ydWxlPSJldmVub2RkIi8+JiN4YTs8L2c+JiN4YTs8ZGVmcz4mI3hhOzxsaW5lYXJHcmFkaWVudCBncmFkaWVudFVuaXRzPSJ1c2VyU3BhY2VPblVzZSIgeTI9IjE2Mi45MjIiIHgyPSI1Ny4yOTU2IiB5MT0iMjU2LjAwNCIgeDE9IjU3LjI5NTYiIGlkPSJwYWludDBfbGluZWFyXzEyNjNfMTI0NTkwIj4mI3hhOzxzdG9wIHN0b3AtY29sb3I9IiMyQUFDOTQiIG9mZnNldD0iMC4wNTYiLz4mI3hhOzxzdG9wIHN0b3AtY29sb3I9IiMyMzlDODciIG9mZnNldD0iMC4xNTUiLz4mI3hhOzxzdG9wIHN0b3AtY29sb3I9IiMxNzdFNzEiIG9mZnNldD0iMC4zNzIiLz4mI3hhOzxzdG9wIHN0b3AtY29sb3I9IiMwRTY5NjEiIG9mZnNldD0iMC41ODgiLz4mI3hhOzxzdG9wIHN0b3AtY29sb3I9IiMwOTVENTciIG9mZnNldD0iMC43OTkiLz4mI3hhOzxzdG9wIHN0b3AtY29sb3I9IiMwODU5NTQiIG9mZnNldD0iMSIvPiYjeGE7PC9saW5lYXJHcmFkaWVudD4mI3hhOzxsaW5lYXJHcmFkaWVudCBncmFkaWVudFVuaXRzPSJ1c2VyU3BhY2VPblVzZSIgeTI9IjkwLjcwNDIiIHgyPSI4NS4wMzI1IiB5MT0iMTg4LjQ2NSIgeDE9IjE3NC45MTYiIGlkPSJwYWludDFfbGluZWFyXzEyNjNfMTI0NTkwIj4mI3hhOzxzdG9wIHN0b3AtY29sb3I9IiNBQkU4OEUiIG9mZnNldD0iMC4wNDE3NDc4Ii8+JiN4YTs8c3RvcCBzdG9wLWNvbG9yPSIjMkFBQTkyIiBvZmZzZXQ9IjAuNTQ4OTI2Ii8+JiN4YTs8c3RvcCBzdG9wLWNvbG9yPSIjMTE3ODY1IiBvZmZzZXQ9IjAuOTA2Ii8+JiN4YTs8L2xpbmVhckdyYWRpZW50PiYjeGE7PGxpbmVhckdyYWRpZW50IGdyYWRpZW50VW5pdHM9InVzZXJTcGFjZU9uVXNlIiB5Mj0iMTU0LjU0MiIgeDI9IjM5LjU3MTEiIHkxPSIxODMuNzEyIiB4MT0iLTQ1Ljk2NiIgaWQ9InBhaW50Ml9saW5lYXJfMTI2M18xMjQ1OTAiPiYjeGE7PHN0b3Agc3RvcC1jb2xvcj0iIzZBRDZGOSIvPiYjeGE7PHN0b3Agc3RvcC1vcGFjaXR5PSIwIiBzdG9wLWNvbG9yPSIjNkFENkY5IiBvZmZzZXQ9IjEiLz4mI3hhOzwvbGluZWFyR3JhZGllbnQ+JiN4YTs8bGluZWFyR3JhZGllbnQgZ3JhZGllbnRVbml0cz0idXNlclNwYWNlT25Vc2UiIHkyPSI3MS44MDIxIiB4Mj0iMjQ2Ljk2OCIgeTE9IjcxLjgwMjEiIHgxPSIxOS4yODQyIiBpZD0icGFpbnQzX2xpbmVhcl8xMjYzXzEyNDU5MCI+JiN4YTs8c3RvcCBzdG9wLWNvbG9yPSIjMjVGRkQ0IiBvZmZzZXQ9IjAuMDQzIi8+JiN4YTs8c3RvcCBzdG9wLWNvbG9yPSIjNTVEREI5IiBvZmZzZXQ9IjAuODc0Ii8+JiN4YTs8L2xpbmVhckdyYWRpZW50PiYjeGE7PGxpbmVhckdyYWRpZW50IGdyYWRpZW50VW5pdHM9InVzZXJTcGFjZU9uVXNlIiB5Mj0iMTE0LjYxMiIgeDI9IjE1NS43NDciIHkxPSI5LjkwOTI2IiB4MT0iMTA2LjkyMSIgaWQ9InBhaW50NF9saW5lYXJfMTI2M18xMjQ1OTAiPiYjeGE7PHN0b3Agc3RvcC1vcGFjaXR5PSIwLjYiIHN0b3AtY29sb3I9IiNGNEUwODQiLz4mI3hhOzxzdG9wIHN0b3Atb3BhY2l0eT0iMCIgc3RvcC1jb2xvcj0iI0Y0RTA4NCIgb2Zmc2V0PSIwLjUzNCIvPiYjeGE7PC9saW5lYXJHcmFkaWVudD4mI3hhOzxsaW5lYXJHcmFkaWVudCBncmFkaWVudFVuaXRzPSJ1c2VyU3BhY2VPblVzZSIgeTI9IjQ1LjgzNSIgeDI9IjI1My45OCIgeTE9Ii01NS4yNjQxIiB4MT0iMTg4LjE2MiIgaWQ9InBhaW50NV9saW5lYXJfMTI2M18xMjQ1OTAiPiYjeGE7PHN0b3Agc3RvcC1jb2xvcj0iI0FCRjVFMiIvPiYjeGE7PHN0b3Agc3RvcC1jb2xvcj0iIzRFRTZCRCIgb2Zmc2V0PSIxIi8+JiN4YTs8L2xpbmVhckdyYWRpZW50PiYjeGE7PGxpbmVhckdyYWRpZW50IGdyYWRpZW50VW5pdHM9InVzZXJTcGFjZU9uVXNlIiB5Mj0iMTQzLjYwNCIgeDI9IjEzNy42MzUiIHkxPSIwIiB4MT0iMTM3LjYzNSIgaWQ9InBhaW50Nl9saW5lYXJfMTI2M18xMjQ1OTAiPiYjeGE7PHN0b3Agc3RvcC1jb2xvcj0iIzFGOTM3RSIvPiYjeGE7PHN0b3Agc3RvcC1jb2xvcj0iIzlFRTA5RiIgb2Zmc2V0PSIxIi8+JiN4YTs8L2xpbmVhckdyYWRpZW50PiYjeGE7PGxpbmVhckdyYWRpZW50IGdyYWRpZW50VW5pdHM9InVzZXJTcGFjZU9uVXNlIiB5Mj0iMTQzLjYwNCIgeDI9IjEzNy42MzUiIHkxPSIwIiB4MT0iMTM3LjYzNSIgaWQ9InBhaW50N19saW5lYXJfMTI2M18xMjQ1OTAiPiYjeGE7PHN0b3Agc3RvcC1jb2xvcj0iIzFGOTM3RSIvPiYjeGE7PHN0b3Agc3RvcC1jb2xvcj0iI0MwRUNDNyIgb2Zmc2V0PSIxIi8+JiN4YTs8L2xpbmVhckdyYWRpZW50PiYjeGE7PGxpbmVhckdyYWRpZW50IGdyYWRpZW50VW5pdHM9InVzZXJTcGFjZU9uVXNlIiB5Mj0iMTM1LjIxNiIgeDI9IjIyNC4zODIiIHkxPSIzOS45NzgzIiB4MT0iMTkuMjg0MiIgaWQ9InBhaW50OF9saW5lYXJfMTI2M18xMjQ1OTAiPiYjeGE7PHN0b3Agc3RvcC1jb2xvcj0iIzZBRDZGOSIvPiYjeGE7PHN0b3Agc3RvcC1jb2xvcj0iIzYwRTlEMCIgb2Zmc2V0PSIwLjIyOTUwMSIvPiYjeGE7PHN0b3Agc3RvcC1jb2xvcj0iIzZERTlCQiIgb2Zmc2V0PSIwLjY1MDcxMSIvPiYjeGE7PHN0b3Agc3RvcC1jb2xvcj0iI0FCRTg4RSIgb2Zmc2V0PSIwLjk5MzU0Ii8+JiN4YTs8L2xpbmVhckdyYWRpZW50PiYjeGE7PGxpbmVhckdyYWRpZW50IGdyYWRpZW50VW5pdHM9InVzZXJTcGFjZU9uVXNlIiB5Mj0iODIuNDY2IiB4Mj0iMTQ5Ljc4MSIgeTE9IjU3LjgiIHgxPSIzOC4yNTgiIGlkPSJwYWludDlfbGluZWFyXzEyNjNfMTI0NTkwIj4mI3hhOzxzdG9wIHN0b3Atb3BhY2l0eT0iMCIgc3RvcC1jb2xvcj0id2hpdGUiLz4mI3hhOzxzdG9wIHN0b3AtY29sb3I9IndoaXRlIiBvZmZzZXQ9IjAuNDU4NTExIi8+JiN4YTs8c3RvcCBzdG9wLW9wYWNpdHk9IjAiIHN0b3AtY29sb3I9IndoaXRlIiBvZmZzZXQ9IjEiLz4mI3hhOzwvbGluZWFyR3JhZGllbnQ+JiN4YTs8bGluZWFyR3JhZGllbnQgZ3JhZGllbnRVbml0cz0idXNlclNwYWNlT25Vc2UiIHkyPSI3NS4xMzI4IiB4Mj0iNzcuODcyMiIgeTE9IjE1My4zNDEiIHgxPSI3NS4yMzciIGlkPSJwYWludDEwX2xpbmVhcl8xMjYzXzEyNDU5MCI+JiN4YTs8c3RvcCBzdG9wLW9wYWNpdHk9IjAiIHN0b3AtY29sb3I9IiMwNjNEM0IiIG9mZnNldD0iMC4yMDQ2NDIiLz4mI3hhOzxzdG9wIHN0b3Atb3BhY2l0eT0iMC4yMzY1ODciIHN0b3AtY29sb3I9IiMwNjNEM0IiIG9mZnNldD0iMC41ODU1MyIvPiYjeGE7PHN0b3Agc3RvcC1vcGFjaXR5PSIwLjc1IiBzdG9wLWNvbG9yPSIjMDYzRDNCIiBvZmZzZXQ9IjAuODcyMjg1Ii8+JiN4YTs8L2xpbmVhckdyYWRpZW50PiYjeGE7PGxpbmVhckdyYWRpZW50IGdyYWRpZW50VW5pdHM9InVzZXJTcGFjZU9uVXNlIiB5Mj0iMTYzLjQ4NyIgeDI9Ijg3LjY4NjEiIHkxPSIxNDUuNTYzIiB4MT0iLTcuNjE3OTciIGlkPSJwYWludDExX2xpbmVhcl8xMjYzXzEyNDU5MCI+JiN4YTs8c3RvcCBzdG9wLW9wYWNpdHk9IjAiIHN0b3AtY29sb3I9IndoaXRlIi8+JiN4YTs8c3RvcCBzdG9wLWNvbG9yPSJ3aGl0ZSIgb2Zmc2V0PSIwLjQ1ODUxMSIvPiYjeGE7PHN0b3Agc3RvcC1vcGFjaXR5PSIwIiBzdG9wLWNvbG9yPSJ3aGl0ZSIgb2Zmc2V0PSIxIi8+JiN4YTs8L2xpbmVhckdyYWRpZW50PiYjeGE7PGxpbmVhckdyYWRpZW50IGdyYWRpZW50VW5pdHM9InVzZXJTcGFjZU9uVXNlIiB5Mj0iMTM5LjI5MiIgeDI9IjQyLjYzNTkiIHkxPSIyMzAuMjEzIiB4MT0iNjEuMjI2MyIgaWQ9InBhaW50MTJfbGluZWFyXzEyNjNfMTI0NTkwIj4mI3hhOzxzdG9wIHN0b3Atb3BhY2l0eT0iMCIgc3RvcC1jb2xvcj0iIzA2M0QzQiIgb2Zmc2V0PSIwLjA2NCIvPiYjeGE7PHN0b3Agc3RvcC1vcGFjaXR5PSIwLjEzNSIgc3RvcC1jb2xvcj0iIzA2M0QzQiIgb2Zmc2V0PSIwLjE3Ii8+JiN4YTs8c3RvcCBzdG9wLW9wYWNpdHk9IjAuNTk5IiBzdG9wLWNvbG9yPSIjMDYzRDNCIiBvZmZzZXQ9IjAuNTYyIi8+JiN4YTs8c3RvcCBzdG9wLW9wYWNpdHk9IjAuOSIgc3RvcC1jb2xvcj0iIzA2M0QzQiIgb2Zmc2V0PSIwLjg1Ii8+JiN4YTs8c3RvcCBzdG9wLWNvbG9yPSIjMDYzRDNCIiBvZmZzZXQ9IjEiLz4mI3hhOzwvbGluZWFyR3JhZGllbnQ+JiN4YTs8Y2xpcFBhdGggaWQ9ImNsaXAwXzEyNjNfMTI0NTkwIj4mI3hhOzxyZWN0IGZpbGw9IndoaXRlIiBoZWlnaHQ9IjI1NS45OTgiIHdpZHRoPSIyNTUuOTk4Ii8+JiN4YTs8L2NsaXBQYXRoPiYjeGE7PC9kZWZzPiYjeGE7PC9zdmc+;fontFamily=Segoe UI;fontSize=14;" parent="1" vertex="1">
                    <mxGeometry x="423.61" y="625.6700000000001" width="50" height="50" as="geometry"/>
                </mxCell>
                <mxCell id="81" value="Azure Resource Group" style="rounded=0;whiteSpace=wrap;html=1;align=left;verticalAlign=top;spacingLeft=5;fontStyle=1;fontSize=14;labelBorderColor=none;dashed=1;fontFamily=Segoe UI;" parent="1" vertex="1">
                    <mxGeometry x="690.5" y="490" width="250" height="230" as="geometry"/>
                </mxCell>
                <mxCell id="82" value="App Insights" style="image;aspect=fixed;html=1;points=[];align=center;fontSize=14;image=img/lib/azure2/devops/Application_Insights.svg;fontFamily=Segoe UI;" parent="1" vertex="1">
                    <mxGeometry x="852.8299999999999" y="535.32" width="34" height="48.68" as="geometry"/>
                </mxCell>
                <mxCell id="83" value="ADLS Gen2" style="image;aspect=fixed;html=1;points=[];align=center;fontSize=14;image=img/lib/azure2/general/Blob_Block.svg;fontFamily=Segoe UI;" parent="1" vertex="1">
                    <mxGeometry x="745" y="548.6800000000001" width="44.15" height="35.32" as="geometry"/>
                </mxCell>
                <mxCell id="84" value="Key Vault" style="image;aspect=fixed;html=1;points=[];align=center;fontSize=14;image=img/lib/azure2/security/Key_Vaults.svg;fontFamily=Segoe UI;" parent="1" vertex="1">
                    <mxGeometry x="848.83" y="633.67" width="42" height="42" as="geometry"/>
                </mxCell>
                <mxCell id="85" value="Fabric Capacity" style="shape=image;verticalLabelPosition=bottom;verticalAlign=top;imageAspect=0;aspect=fixed;image=data:image/svg+xml,PHN2ZyB4bWxucz0iaHR0cDovL3d3dy53My5vcmcvMjAwMC9zdmciIGZpbGw9Im5vbmUiIHZpZXdCb3g9IjAgMCAyNTYgMjU2IiBoZWlnaHQ9IjI1NiIgd2lkdGg9IjI1NiI+JiN4YTs8ZyBjbGlwLXBhdGg9InVybCgjY2xpcDBfMTI2M18xMjQ1OTApIj4mI3hhOzxwYXRoIGZpbGw9InVybCgjcGFpbnQwX2xpbmVhcl8xMjYzXzEyNDU5MCkiIGQ9Ik0xMC40OTYgMTc2LjYzNEw2Ljc0NjY5IDE5MC4zNTZDNS4zNDkzNyAxOTQuNzQ2IDMuMzkyMDUgMjAxLjE5NCAyLjMzNjA2IDIwNi45MzJDMC44MzIwNjkgMjEwLjkgMC4wMTA3NDIyIDIxNS4yMDQgMC4wMTA3NDIyIDIxOS43QzAuMDEwNzQyMiAyMzguMjM5IDE0LjAxNiAyNTMuNTAyIDMyLjAyMTIgMjU1LjQ5N0MzNy4wODc4IDI1Ni4yMjggNDIuODIxMSAyNTYuMTkgNDkuMjQ3NyAyNTUuMjQ2TDc4Ljc3MjggMjUxLjE3MkM4Ni4xOTY3IDI1MC4xNDggOTIuMjkyNyAyNDQuNzg4IDk0LjI2NiAyMzcuNTU2TDExNC41ODYgMTYyLjkyMkwxMC40OTYgMTc2LjYzNFoiIGNsaXAtcnVsZT0iZXZlbm9kZCIgZmlsbC1ydWxlPSJldmVub2RkIi8+JiN4YTs8cGF0aCBmaWxsPSJ1cmwoI3BhaW50MV9saW5lYXJfMTI2M18xMjQ1OTApIiBkPSJNMzkuMjk0MiAxODAuMTdDOC4xNzQ0NCAxODQuOTkxIDEuNzg1MTYgMjA4LjQ3NCAxLjc4NTE2IDIwOC40NzRMMzEuNTg3NiA5OC45NzA4TDE4Ny4zMTQgNzcuOTA0M0wxNjYuMDc3IDE1NS4wNEMxNjQuOTczIDE1OS4xNzMgMTYxLjUwMSAxNjIuMzQxIDE1Ny4xOTcgMTYyLjk5N0wxNTYuMzI4IDE2My4xNDFMMzguNDE5NSAxODAuMzJMMzkuMjk0MiAxODAuMTdaIi8+JiN4YTs8cGF0aCBmaWxsLW9wYWNpdHk9IjAuOCIgZmlsbD0idXJsKCNwYWludDJfbGluZWFyXzEyNjNfMTI0NTkwKSIgZD0iTTM5LjI5NDIgMTgwLjE3QzguMTc0NDQgMTg0Ljk5MSAxLjc4NTE2IDIwOC40NzQgMS43ODUxNiAyMDguNDc0TDMxLjU4NzYgOTguOTcwOEwxODcuMzE0IDc3LjkwNDNMMTY2LjA3NyAxNTUuMDRDMTY0Ljk3MyAxNTkuMTczIDE2MS41MDEgMTYyLjM0MSAxNTcuMTk3IDE2Mi45OTdMMTU2LjMyOCAxNjMuMTQxTDM4LjQxOTUgMTgwLjMyTDM5LjI5NDIgMTgwLjE3WiIvPiYjeGE7PHBhdGggZmlsbD0idXJsKCNwYWludDNfbGluZWFyXzEyNjNfMTI0NTkwKSIgZD0iTTU2Ljk1MzIgMTEwLjMwM0wyMjkuMzUyIDg0LjgzNjdDMjMzLjQ1MyA4NC4yNzY3IDIzNi43NzYgODEuMjc0IDIzNy44MjEgNzcuMzQzNEwyNTUuNjEzIDEyLjk1NDZDMjU1Ljg1OCAxMi4wNzk5IDI1NS45ODYgMTEuMTU3MiAyNTUuOTg2IDEwLjIwNzlDMjU1Ljk4NiA0LjU3MDYzIDI1MS40MjEgMCAyNDUuNzc4IDBDMjQ1LjM0MSAwIDI0NC45MDQgMC4wMjY2NjY1IDI0NC40ODIgMC4wNzk5OTk0TDc5Ljk4MjQgMjQuMzg5MUM2Mi4xMTU4IDI3LjI1ODUgNDcuNjg5MyA0MC40MzcgNDMuMDA2NyA1Ny42MjYyTDE5LjI4NDIgMTQzLjYwNEMyNC4wNDY4IDEyNi4yMTIgMjYuOTc0OCAxMTUuNzI3IDU2Ljk1MzIgMTEwLjMwM1oiLz4mI3hhOzxwYXRoIGZpbGw9InVybCgjcGFpbnQ0X2xpbmVhcl8xMjYzXzEyNDU5MCkiIGQ9Ik01Ni45NTMyIDExMC4zMDNMMjI5LjM1MiA4NC44MzY3QzIzMy40NTMgODQuMjc2NyAyMzYuNzc2IDgxLjI3NCAyMzcuODIxIDc3LjM0MzRMMjU1LjYxMyAxMi45NTQ2QzI1NS44NTggMTIuMDc5OSAyNTUuOTg2IDExLjE1NzIgMjU1Ljk4NiAxMC4yMDc5QzI1NS45ODYgNC41NzA2MyAyNTEuNDIxIDAgMjQ1Ljc3OCAwQzI0NS4zNDEgMCAyNDQuOTA0IDAuMDI2NjY2NSAyNDQuNDgyIDAuMDc5OTk5NEw3OS45ODI0IDI0LjM4OTFDNjIuMTE1OCAyNy4yNTg1IDQ3LjY4OTMgNDAuNDM3IDQzLjAwNjcgNTcuNjI2MkwxOS4yODQyIDE0My42MDRDMjQuMDQ2OCAxMjYuMjEyIDI2Ljk3NDggMTE1LjcyNyA1Ni45NTMyIDExMC4zMDNaIi8+JiN4YTs8cGF0aCBmaWxsPSJ1cmwoI3BhaW50NV9saW5lYXJfMTI2M18xMjQ1OTApIiBkPSJNNTYuOTUzMiAxMTAuMzAzTDIyOS4zNTIgODQuODM2N0MyMzMuNDUzIDg0LjI3NjcgMjM2Ljc3NiA4MS4yNzQgMjM3LjgyMSA3Ny4zNDM0TDI1NS42MTMgMTIuOTU0NkMyNTUuODU4IDEyLjA3OTkgMjU1Ljk4NiAxMS4xNTcyIDI1NS45ODYgMTAuMjA3OUMyNTUuOTg2IDQuNTcwNjMgMjUxLjQyMSAwIDI0NS43NzggMEMyNDUuMzQxIDAgMjQ0LjkwNCAwLjAyNjY2NjUgMjQ0LjQ4MiAwLjA3OTk5OTRMNzkuOTgyNCAyNC4zODkxQzYyLjExNTggMjcuMjU4NSA0Ny42ODkzIDQwLjQzNyA0My4wMDY3IDU3LjYyNjJMMTkuMjg0MiAxNDMuNjA0QzI0LjA0NjggMTI2LjIxMiAyNi45NzQ4IDExNS43MjcgNTYuOTUzMiAxMTAuMzAzWiIvPiYjeGE7PHBhdGggZmlsbD0idXJsKCNwYWludDZfbGluZWFyXzEyNjNfMTI0NTkwKSIgZD0iTTU2Ljk1MzIgMTEwLjMwM0wyMjkuMzUyIDg0LjgzNjdDMjMzLjQ1MyA4NC4yNzY3IDIzNi43NzYgODEuMjc0IDIzNy44MjEgNzcuMzQzNEwyNTUuNjEzIDEyLjk1NDZDMjU1Ljg1OCAxMi4wNzk5IDI1NS45ODYgMTEuMTU3MiAyNTUuOTg2IDEwLjIwNzlDMjU1Ljk4NiA0LjU3MDYzIDI1MS40MjEgMCAyNDUuNzc4IDBDMjQ1LjM0MSAwIDI0NC45MDQgMC4wMjY2NjY1IDI0NC40ODIgMC4wNzk5OTk0TDc5Ljk4MjQgMjQuMzg5MUM2Mi4xMTU4IDI3LjI1ODUgNDcuNjg5MyA0MC40MzcgNDMuMDA2NyA1Ny42MjYyTDE5LjI4NDIgMTQzLjYwNEMyNC4wNDY4IDEyNi4yMTIgMjYuOTc0OCAxMTUuNzI3IDU2Ljk1MzIgMTEwLjMwM1oiLz4mI3hhOzxwYXRoIGZpbGw9InVybCgjcGFpbnQ3X2xpbmVhcl8xMjYzXzEyNDU5MCkiIGQ9Ik01Ni45NTMyIDExMC4zMDNMMjI5LjM1MiA4NC44MzY3QzIzMy40NTMgODQuMjc2NyAyMzYuNzc2IDgxLjI3NCAyMzcuODIxIDc3LjM0MzRMMjU1LjYxMyAxMi45NTQ2QzI1NS44NTggMTIuMDc5OSAyNTUuOTg2IDExLjE1NzIgMjU1Ljk4NiAxMC4yMDc5QzI1NS45ODYgNC41NzA2MyAyNTEuNDIxIDAgMjQ1Ljc3OCAwQzI0NS4zNDEgMCAyNDQuOTA0IDAuMDI2NjY2NSAyNDQuNDgyIDAuMDc5OTk5NEw3OS45ODI0IDI0LjM4OTFDNjIuMTE1OCAyNy4yNTg1IDQ3LjY4OTMgNDAuNDM3IDQzLjAwNjcgNTcuNjI2MkwxOS4yODQyIDE0My42MDRDMjQuMDQ2OCAxMjYuMjEyIDI2Ljk3NDggMTE1LjcyNyA1Ni45NTMyIDExMC4zMDNaIi8+JiN4YTs8cGF0aCBmaWxsPSJ1cmwoI3BhaW50OF9saW5lYXJfMTI2M18xMjQ1OTApIiBkPSJNNTYuOTUzMiAxMTAuMzAzTDIyOS4zNTIgODQuODM2N0MyMzMuNDUzIDg0LjI3NjcgMjM2Ljc3NiA4MS4yNzQgMjM3LjgyMSA3Ny4zNDM0TDI1NS42MTMgMTIuOTU0NkMyNTUuODU4IDEyLjA3OTkgMjU1Ljk4NiAxMS4xNTcyIDI1NS45ODYgMTAuMjA3OUMyNTUuOTg2IDQuNTcwNjMgMjUxLjQyMSAwIDI0NS43NzggMEMyNDUuMzQxIDAgMjQ0LjkwNCAwLjAyNjY2NjUgMjQ0LjQ4MiAwLjA3OTk5OTRMNzkuOTgyNCAyNC4zODkxQzYyLjExNTggMjcuMjU4NSA0Ny42ODkzIDQwLjQzNyA0My4wMDY3IDU3LjYyNjJMMTkuMjg0MiAxNDMuNjA0QzI0LjA0NjggMTI2LjIxMiAyNi45NzQ4IDExNS43MjcgNTYuOTUzMiAxMTAuMzAzWiIvPiYjeGE7PHBhdGggZmlsbC1vcGFjaXR5PSIwLjQiIGZpbGw9InVybCgjcGFpbnQ5X2xpbmVhcl8xMjYzXzEyNDU5MCkiIGQ9Ik01Ni45NTMyIDExMC4zMDNMMjI5LjM1MiA4NC44MzY3QzIzMy40NTMgODQuMjc2NyAyMzYuNzc2IDgxLjI3NCAyMzcuODIxIDc3LjM0MzRMMjU1LjYxMyAxMi45NTQ2QzI1NS44NTggMTIuMDc5OSAyNTUuOTg2IDExLjE1NzIgMjU1Ljk4NiAxMC4yMDc5QzI1NS45ODYgNC41NzA2MyAyNTEuNDIxIDAgMjQ1Ljc3OCAwQzI0NS4zNDEgMCAyNDQuOTA0IDAuMDI2NjY2NSAyNDQuNDgyIDAuMDc5OTk5NEw3OS45ODI0IDI0LjM4OTFDNjIuMTE1OCAyNy4yNTg1IDQ3LjY4OTMgNDAuNDM3IDQzLjAwNjcgNTcuNjI2MkwxOS4yODQyIDE0My42MDRDMjQuMDQ2OCAxMjYuMjEyIDI2Ljk3NDggMTE1LjcyNyA1Ni45NTMyIDExMC4zMDNaIi8+JiN4YTs8cGF0aCBmaWxsPSJ1cmwoI3BhaW50MTBfbGluZWFyXzEyNjNfMTI0NTkwKSIgZD0iTTU2Ljk1MjcgMTEwLjMwOUMzMS45ODc2IDExNC44MjcgMjUuNzkwMyAxMjIuODY5IDIxLjY2MjMgMTM1LjQ3MkwxLjc4NTE2IDIwOC40OUMxLjc4NTE2IDIwOC40OSA4LjEzNzExIDE4NS4yNDIgMzguODc4MiAxODAuMjcxTDE1Ni4zMzMgMTYzLjE2MkwxNTcuMjAzIDE2My4wMThDMTYxLjUwNyAxNjIuMzYyIDE2NC45NzkgMTU5LjE4OSAxNjYuMDgzIDE1NS4wNjFMMTgzLjU1NCA5MS42MDU1TDU2Ljk1ODEgMTEwLjMwOUg1Ni45NTI3WiIvPiYjeGE7PHBhdGggZmlsbC1vcGFjaXR5PSIwLjIiIGZpbGw9InVybCgjcGFpbnQxMV9saW5lYXJfMTI2M18xMjQ1OTApIiBkPSJNNTYuOTUyNyAxMTAuMzA5QzMxLjk4NzYgMTE0LjgyNyAyNS43OTAzIDEyMi44NjkgMjEuNjYyMyAxMzUuNDcyTDEuNzg1MTYgMjA4LjQ5QzEuNzg1MTYgMjA4LjQ5IDguMTM3MTEgMTg1LjI0MiAzOC44NzgyIDE4MC4yNzFMMTU2LjMzMyAxNjMuMTYyTDE1Ny4yMDMgMTYzLjAxOEMxNjEuNTA3IDE2Mi4zNjIgMTY0Ljk3OSAxNTkuMTg5IDE2Ni4wODMgMTU1LjA2MUwxODMuNTU0IDkxLjYwNTVMNTYuOTU4MSAxMTAuMzA5SDU2Ljk1MjdaIi8+JiN4YTs8cGF0aCBmaWxsPSJ1cmwoI3BhaW50MTJfbGluZWFyXzEyNjNfMTI0NTkwKSIgZD0iTTM4Ljg3OTggMTgwLjI3MkMxMi45MDEzIDE4NC40NzUgNC4zNjgwNCAyMDEuNjggMi4zMzYwNiAyMDYuOTIzQzAuODMyMDY5IDIxMC45MDEgMC4wMTA3NDIyIDIxNS4yMDUgMC4wMTA3NDIyIDIxOS43MDFDMC4wMTA3NDIyIDIzOC4yNCAxNC4wMTYgMjUzLjUwNCAzMi4wMjEyIDI1NS40OThDMzcuMDg3OCAyNTYuMjI5IDQyLjgyMTEgMjU2LjE5MiA0OS4yNDc3IDI1NS4yNDhMNzguNzcyOCAyNTEuMTczQzg2LjE5NjcgMjUwLjE0OSA5Mi4yOTI3IDI0NC43ODkgOTQuMjY2IDIzNy41NTdMMTEyLjc4OSAxNjkuNTFMMzguODg1MSAxODAuMjc4TDM4Ljg3OTggMTgwLjI3MloiIGNsaXAtcnVsZT0iZXZlbm9kZCIgZmlsbC1ydWxlPSJldmVub2RkIi8+JiN4YTs8L2c+JiN4YTs8ZGVmcz4mI3hhOzxsaW5lYXJHcmFkaWVudCBncmFkaWVudFVuaXRzPSJ1c2VyU3BhY2VPblVzZSIgeTI9IjE2Mi45MjIiIHgyPSI1Ny4yOTU2IiB5MT0iMjU2LjAwNCIgeDE9IjU3LjI5NTYiIGlkPSJwYWludDBfbGluZWFyXzEyNjNfMTI0NTkwIj4mI3hhOzxzdG9wIHN0b3AtY29sb3I9IiMyQUFDOTQiIG9mZnNldD0iMC4wNTYiLz4mI3hhOzxzdG9wIHN0b3AtY29sb3I9IiMyMzlDODciIG9mZnNldD0iMC4xNTUiLz4mI3hhOzxzdG9wIHN0b3AtY29sb3I9IiMxNzdFNzEiIG9mZnNldD0iMC4zNzIiLz4mI3hhOzxzdG9wIHN0b3AtY29sb3I9IiMwRTY5NjEiIG9mZnNldD0iMC41ODgiLz4mI3hhOzxzdG9wIHN0b3AtY29sb3I9IiMwOTVENTciIG9mZnNldD0iMC43OTkiLz4mI3hhOzxzdG9wIHN0b3AtY29sb3I9IiMwODU5NTQiIG9mZnNldD0iMSIvPiYjeGE7PC9saW5lYXJHcmFkaWVudD4mI3hhOzxsaW5lYXJHcmFkaWVudCBncmFkaWVudFVuaXRzPSJ1c2VyU3BhY2VPblVzZSIgeTI9IjkwLjcwNDIiIHgyPSI4NS4wMzI1IiB5MT0iMTg4LjQ2NSIgeDE9IjE3NC45MTYiIGlkPSJwYWludDFfbGluZWFyXzEyNjNfMTI0NTkwIj4mI3hhOzxzdG9wIHN0b3AtY29sb3I9IiNBQkU4OEUiIG9mZnNldD0iMC4wNDE3NDc4Ii8+JiN4YTs8c3RvcCBzdG9wLWNvbG9yPSIjMkFBQTkyIiBvZmZzZXQ9IjAuNTQ4OTI2Ii8+JiN4YTs8c3RvcCBzdG9wLWNvbG9yPSIjMTE3ODY1IiBvZmZzZXQ9IjAuOTA2Ii8+JiN4YTs8L2xpbmVhckdyYWRpZW50PiYjeGE7PGxpbmVhckdyYWRpZW50IGdyYWRpZW50VW5pdHM9InVzZXJTcGFjZU9uVXNlIiB5Mj0iMTU0LjU0MiIgeDI9IjM5LjU3MTEiIHkxPSIxODMuNzEyIiB4MT0iLTQ1Ljk2NiIgaWQ9InBhaW50Ml9saW5lYXJfMTI2M18xMjQ1OTAiPiYjeGE7PHN0b3Agc3RvcC1jb2xvcj0iIzZBRDZGOSIvPiYjeGE7PHN0b3Agc3RvcC1vcGFjaXR5PSIwIiBzdG9wLWNvbG9yPSIjNkFENkY5IiBvZmZzZXQ9IjEiLz4mI3hhOzwvbGluZWFyR3JhZGllbnQ+JiN4YTs8bGluZWFyR3JhZGllbnQgZ3JhZGllbnRVbml0cz0idXNlclNwYWNlT25Vc2UiIHkyPSI3MS44MDIxIiB4Mj0iMjQ2Ljk2OCIgeTE9IjcxLjgwMjEiIHgxPSIxOS4yODQyIiBpZD0icGFpbnQzX2xpbmVhcl8xMjYzXzEyNDU5MCI+JiN4YTs8c3RvcCBzdG9wLWNvbG9yPSIjMjVGRkQ0IiBvZmZzZXQ9IjAuMDQzIi8+JiN4YTs8c3RvcCBzdG9wLWNvbG9yPSIjNTVEREI5IiBvZmZzZXQ9IjAuODc0Ii8+JiN4YTs8L2xpbmVhckdyYWRpZW50PiYjeGE7PGxpbmVhckdyYWRpZW50IGdyYWRpZW50VW5pdHM9InVzZXJTcGFjZU9uVXNlIiB5Mj0iMTE0LjYxMiIgeDI9IjE1NS43NDciIHkxPSI5LjkwOTI2IiB4MT0iMTA2LjkyMSIgaWQ9InBhaW50NF9saW5lYXJfMTI2M18xMjQ1OTAiPiYjeGE7PHN0b3Agc3RvcC1vcGFjaXR5PSIwLjYiIHN0b3AtY29sb3I9IiNGNEUwODQiLz4mI3hhOzxzdG9wIHN0b3Atb3BhY2l0eT0iMCIgc3RvcC1jb2xvcj0iI0Y0RTA4NCIgb2Zmc2V0PSIwLjUzNCIvPiYjeGE7PC9saW5lYXJHcmFkaWVudD4mI3hhOzxsaW5lYXJHcmFkaWVudCBncmFkaWVudFVuaXRzPSJ1c2VyU3BhY2VPblVzZSIgeTI9IjQ1LjgzNSIgeDI9IjI1My45OCIgeTE9Ii01NS4yNjQxIiB4MT0iMTg4LjE2MiIgaWQ9InBhaW50NV9saW5lYXJfMTI2M18xMjQ1OTAiPiYjeGE7PHN0b3Agc3RvcC1jb2xvcj0iI0FCRjVFMiIvPiYjeGE7PHN0b3Agc3RvcC1jb2xvcj0iIzRFRTZCRCIgb2Zmc2V0PSIxIi8+JiN4YTs8L2xpbmVhckdyYWRpZW50PiYjeGE7PGxpbmVhckdyYWRpZW50IGdyYWRpZW50VW5pdHM9InVzZXJTcGFjZU9uVXNlIiB5Mj0iMTQzLjYwNCIgeDI9IjEzNy42MzUiIHkxPSIwIiB4MT0iMTM3LjYzNSIgaWQ9InBhaW50Nl9saW5lYXJfMTI2M18xMjQ1OTAiPiYjeGE7PHN0b3Agc3RvcC1jb2xvcj0iIzFGOTM3RSIvPiYjeGE7PHN0b3Agc3RvcC1jb2xvcj0iIzlFRTA5RiIgb2Zmc2V0PSIxIi8+JiN4YTs8L2xpbmVhckdyYWRpZW50PiYjeGE7PGxpbmVhckdyYWRpZW50IGdyYWRpZW50VW5pdHM9InVzZXJTcGFjZU9uVXNlIiB5Mj0iMTQzLjYwNCIgeDI9IjEzNy42MzUiIHkxPSIwIiB4MT0iMTM3LjYzNSIgaWQ9InBhaW50N19saW5lYXJfMTI2M18xMjQ1OTAiPiYjeGE7PHN0b3Agc3RvcC1jb2xvcj0iIzFGOTM3RSIvPiYjeGE7PHN0b3Agc3RvcC1jb2xvcj0iI0MwRUNDNyIgb2Zmc2V0PSIxIi8+JiN4YTs8L2xpbmVhckdyYWRpZW50PiYjeGE7PGxpbmVhckdyYWRpZW50IGdyYWRpZW50VW5pdHM9InVzZXJTcGFjZU9uVXNlIiB5Mj0iMTM1LjIxNiIgeDI9IjIyNC4zODIiIHkxPSIzOS45NzgzIiB4MT0iMTkuMjg0MiIgaWQ9InBhaW50OF9saW5lYXJfMTI2M18xMjQ1OTAiPiYjeGE7PHN0b3Agc3RvcC1jb2xvcj0iIzZBRDZGOSIvPiYjeGE7PHN0b3Agc3RvcC1jb2xvcj0iIzYwRTlEMCIgb2Zmc2V0PSIwLjIyOTUwMSIvPiYjeGE7PHN0b3Agc3RvcC1jb2xvcj0iIzZERTlCQiIgb2Zmc2V0PSIwLjY1MDcxMSIvPiYjeGE7PHN0b3Agc3RvcC1jb2xvcj0iI0FCRTg4RSIgb2Zmc2V0PSIwLjk5MzU0Ii8+JiN4YTs8L2xpbmVhckdyYWRpZW50PiYjeGE7PGxpbmVhckdyYWRpZW50IGdyYWRpZW50VW5pdHM9InVzZXJTcGFjZU9uVXNlIiB5Mj0iODIuNDY2IiB4Mj0iMTQ5Ljc4MSIgeTE9IjU3LjgiIHgxPSIzOC4yNTgiIGlkPSJwYWludDlfbGluZWFyXzEyNjNfMTI0NTkwIj4mI3hhOzxzdG9wIHN0b3Atb3BhY2l0eT0iMCIgc3RvcC1jb2xvcj0id2hpdGUiLz4mI3hhOzxzdG9wIHN0b3AtY29sb3I9IndoaXRlIiBvZmZzZXQ9IjAuNDU4NTExIi8+JiN4YTs8c3RvcCBzdG9wLW9wYWNpdHk9IjAiIHN0b3AtY29sb3I9IndoaXRlIiBvZmZzZXQ9IjEiLz4mI3hhOzwvbGluZWFyR3JhZGllbnQ+JiN4YTs8bGluZWFyR3JhZGllbnQgZ3JhZGllbnRVbml0cz0idXNlclNwYWNlT25Vc2UiIHkyPSI3NS4xMzI4IiB4Mj0iNzcuODcyMiIgeTE9IjE1My4zNDEiIHgxPSI3NS4yMzciIGlkPSJwYWludDEwX2xpbmVhcl8xMjYzXzEyNDU5MCI+JiN4YTs8c3RvcCBzdG9wLW9wYWNpdHk9IjAiIHN0b3AtY29sb3I9IiMwNjNEM0IiIG9mZnNldD0iMC4yMDQ2NDIiLz4mI3hhOzxzdG9wIHN0b3Atb3BhY2l0eT0iMC4yMzY1ODciIHN0b3AtY29sb3I9IiMwNjNEM0IiIG9mZnNldD0iMC41ODU1MyIvPiYjeGE7PHN0b3Agc3RvcC1vcGFjaXR5PSIwLjc1IiBzdG9wLWNvbG9yPSIjMDYzRDNCIiBvZmZzZXQ9IjAuODcyMjg1Ii8+JiN4YTs8L2xpbmVhckdyYWRpZW50PiYjeGE7PGxpbmVhckdyYWRpZW50IGdyYWRpZW50VW5pdHM9InVzZXJTcGFjZU9uVXNlIiB5Mj0iMTYzLjQ4NyIgeDI9Ijg3LjY4NjEiIHkxPSIxNDUuNTYzIiB4MT0iLTcuNjE3OTciIGlkPSJwYWludDExX2xpbmVhcl8xMjYzXzEyNDU5MCI+JiN4YTs8c3RvcCBzdG9wLW9wYWNpdHk9IjAiIHN0b3AtY29sb3I9IndoaXRlIi8+JiN4YTs8c3RvcCBzdG9wLWNvbG9yPSJ3aGl0ZSIgb2Zmc2V0PSIwLjQ1ODUxMSIvPiYjeGE7PHN0b3Agc3RvcC1vcGFjaXR5PSIwIiBzdG9wLWNvbG9yPSJ3aGl0ZSIgb2Zmc2V0PSIxIi8+JiN4YTs8L2xpbmVhckdyYWRpZW50PiYjeGE7PGxpbmVhckdyYWRpZW50IGdyYWRpZW50VW5pdHM9InVzZXJTcGFjZU9uVXNlIiB5Mj0iMTM5LjI5MiIgeDI9IjQyLjYzNTkiIHkxPSIyMzAuMjEzIiB4MT0iNjEuMjI2MyIgaWQ9InBhaW50MTJfbGluZWFyXzEyNjNfMTI0NTkwIj4mI3hhOzxzdG9wIHN0b3Atb3BhY2l0eT0iMCIgc3RvcC1jb2xvcj0iIzA2M0QzQiIgb2Zmc2V0PSIwLjA2NCIvPiYjeGE7PHN0b3Agc3RvcC1vcGFjaXR5PSIwLjEzNSIgc3RvcC1jb2xvcj0iIzA2M0QzQiIgb2Zmc2V0PSIwLjE3Ii8+JiN4YTs8c3RvcCBzdG9wLW9wYWNpdHk9IjAuNTk5IiBzdG9wLWNvbG9yPSIjMDYzRDNCIiBvZmZzZXQ9IjAuNTYyIi8+JiN4YTs8c3RvcCBzdG9wLW9wYWNpdHk9IjAuOSIgc3RvcC1jb2xvcj0iIzA2M0QzQiIgb2Zmc2V0PSIwLjg1Ii8+JiN4YTs8c3RvcCBzdG9wLWNvbG9yPSIjMDYzRDNCIiBvZmZzZXQ9IjEiLz4mI3hhOzwvbGluZWFyR3JhZGllbnQ+JiN4YTs8Y2xpcFBhdGggaWQ9ImNsaXAwXzEyNjNfMTI0NTkwIj4mI3hhOzxyZWN0IGZpbGw9IndoaXRlIiBoZWlnaHQ9IjI1NS45OTgiIHdpZHRoPSIyNTUuOTk4Ii8+JiN4YTs8L2NsaXBQYXRoPiYjeGE7PC9kZWZzPiYjeGE7PC9zdmc+;fontFamily=Segoe UI;fontSize=14;" parent="1" vertex="1">
                    <mxGeometry x="743.61" y="625.6700000000001" width="50" height="50" as="geometry"/>
                </mxCell>
                <mxCell id="86" value="Azure Resource Group" style="rounded=0;whiteSpace=wrap;html=1;align=left;verticalAlign=top;spacingLeft=5;fontStyle=1;fontSize=14;labelBorderColor=none;dashed=1;fontFamily=Segoe UI;" parent="1" vertex="1">
                    <mxGeometry x="1010.01" y="490" width="250" height="230" as="geometry"/>
                </mxCell>
                <mxCell id="87" value="App Insights" style="image;aspect=fixed;html=1;points=[];align=center;fontSize=14;image=img/lib/azure2/devops/Application_Insights.svg;fontFamily=Segoe UI;" parent="1" vertex="1">
                    <mxGeometry x="1172.34" y="535.32" width="34" height="48.68" as="geometry"/>
                </mxCell>
                <mxCell id="88" value="ADLS Gen2" style="image;aspect=fixed;html=1;points=[];align=center;fontSize=14;image=img/lib/azure2/general/Blob_Block.svg;fontFamily=Segoe UI;" parent="1" vertex="1">
                    <mxGeometry x="1064.51" y="548.6800000000001" width="44.15" height="35.32" as="geometry"/>
                </mxCell>
                <mxCell id="89" value="Key Vault" style="image;aspect=fixed;html=1;points=[];align=center;fontSize=14;image=img/lib/azure2/security/Key_Vaults.svg;fontFamily=Segoe UI;" parent="1" vertex="1">
                    <mxGeometry x="1168.3400000000001" y="633.67" width="42" height="42" as="geometry"/>
                </mxCell>
                <mxCell id="90" value="Fabric Capacity" style="shape=image;verticalLabelPosition=bottom;verticalAlign=top;imageAspect=0;aspect=fixed;image=data:image/svg+xml,PHN2ZyB4bWxucz0iaHR0cDovL3d3dy53My5vcmcvMjAwMC9zdmciIGZpbGw9Im5vbmUiIHZpZXdCb3g9IjAgMCAyNTYgMjU2IiBoZWlnaHQ9IjI1NiIgd2lkdGg9IjI1NiI+JiN4YTs8ZyBjbGlwLXBhdGg9InVybCgjY2xpcDBfMTI2M18xMjQ1OTApIj4mI3hhOzxwYXRoIGZpbGw9InVybCgjcGFpbnQwX2xpbmVhcl8xMjYzXzEyNDU5MCkiIGQ9Ik0xMC40OTYgMTc2LjYzNEw2Ljc0NjY5IDE5MC4zNTZDNS4zNDkzNyAxOTQuNzQ2IDMuMzkyMDUgMjAxLjE5NCAyLjMzNjA2IDIwNi45MzJDMC44MzIwNjkgMjEwLjkgMC4wMTA3NDIyIDIxNS4yMDQgMC4wMTA3NDIyIDIxOS43QzAuMDEwNzQyMiAyMzguMjM5IDE0LjAxNiAyNTMuNTAyIDMyLjAyMTIgMjU1LjQ5N0MzNy4wODc4IDI1Ni4yMjggNDIuODIxMSAyNTYuMTkgNDkuMjQ3NyAyNTUuMjQ2TDc4Ljc3MjggMjUxLjE3MkM4Ni4xOTY3IDI1MC4xNDggOTIuMjkyNyAyNDQuNzg4IDk0LjI2NiAyMzcuNTU2TDExNC41ODYgMTYyLjkyMkwxMC40OTYgMTc2LjYzNFoiIGNsaXAtcnVsZT0iZXZlbm9kZCIgZmlsbC1ydWxlPSJldmVub2RkIi8+JiN4YTs8cGF0aCBmaWxsPSJ1cmwoI3BhaW50MV9saW5lYXJfMTI2M18xMjQ1OTApIiBkPSJNMzkuMjk0MiAxODAuMTdDOC4xNzQ0NCAxODQuOTkxIDEuNzg1MTYgMjA4LjQ3NCAxLjc4NTE2IDIwOC40NzRMMzEuNTg3NiA5OC45NzA4TDE4Ny4zMTQgNzcuOTA0M0wxNjYuMDc3IDE1NS4wNEMxNjQuOTczIDE1OS4xNzMgMTYxLjUwMSAxNjIuMzQxIDE1Ny4xOTcgMTYyLjk5N0wxNTYuMzI4IDE2My4xNDFMMzguNDE5NSAxODAuMzJMMzkuMjk0MiAxODAuMTdaIi8+JiN4YTs8cGF0aCBmaWxsLW9wYWNpdHk9IjAuOCIgZmlsbD0idXJsKCNwYWludDJfbGluZWFyXzEyNjNfMTI0NTkwKSIgZD0iTTM5LjI5NDIgMTgwLjE3QzguMTc0NDQgMTg0Ljk5MSAxLjc4NTE2IDIwOC40NzQgMS43ODUxNiAyMDguNDc0TDMxLjU4NzYgOTguOTcwOEwxODcuMzE0IDc3LjkwNDNMMTY2LjA3NyAxNTUuMDRDMTY0Ljk3MyAxNTkuMTczIDE2MS41MDEgMTYyLjM0MSAxNTcuMTk3IDE2Mi45OTdMMTU2LjMyOCAxNjMuMTQxTDM4LjQxOTUgMTgwLjMyTDM5LjI5NDIgMTgwLjE3WiIvPiYjeGE7PHBhdGggZmlsbD0idXJsKCNwYWludDNfbGluZWFyXzEyNjNfMTI0NTkwKSIgZD0iTTU2Ljk1MzIgMTEwLjMwM0wyMjkuMzUyIDg0LjgzNjdDMjMzLjQ1MyA4NC4yNzY3IDIzNi43NzYgODEuMjc0IDIzNy44MjEgNzcuMzQzNEwyNTUuNjEzIDEyLjk1NDZDMjU1Ljg1OCAxMi4wNzk5IDI1NS45ODYgMTEuMTU3MiAyNTUuOTg2IDEwLjIwNzlDMjU1Ljk4NiA0LjU3MDYzIDI1MS40MjEgMCAyNDUuNzc4IDBDMjQ1LjM0MSAwIDI0NC45MDQgMC4wMjY2NjY1IDI0NC40ODIgMC4wNzk5OTk0TDc5Ljk4MjQgMjQuMzg5MUM2Mi4xMTU4IDI3LjI1ODUgNDcuNjg5MyA0MC40MzcgNDMuMDA2NyA1Ny42MjYyTDE5LjI4NDIgMTQzLjYwNEMyNC4wNDY4IDEyNi4yMTIgMjYuOTc0OCAxMTUuNzI3IDU2Ljk1MzIgMTEwLjMwM1oiLz4mI3hhOzxwYXRoIGZpbGw9InVybCgjcGFpbnQ0X2xpbmVhcl8xMjYzXzEyNDU5MCkiIGQ9Ik01Ni45NTMyIDExMC4zMDNMMjI5LjM1MiA4NC44MzY3QzIzMy40NTMgODQuMjc2NyAyMzYuNzc2IDgxLjI3NCAyMzcuODIxIDc3LjM0MzRMMjU1LjYxMyAxMi45NTQ2QzI1NS44NTggMTIuMDc5OSAyNTUuOTg2IDExLjE1NzIgMjU1Ljk4NiAxMC4yMDc5QzI1NS45ODYgNC41NzA2MyAyNTEuNDIxIDAgMjQ1Ljc3OCAwQzI0NS4zNDEgMCAyNDQuOTA0IDAuMDI2NjY2NSAyNDQuNDgyIDAuMDc5OTk5NEw3OS45ODI0IDI0LjM4OTFDNjIuMTE1OCAyNy4yNTg1IDQ3LjY4OTMgNDAuNDM3IDQzLjAwNjcgNTcuNjI2MkwxOS4yODQyIDE0My42MDRDMjQuMDQ2OCAxMjYuMjEyIDI2Ljk3NDggMTE1LjcyNyA1Ni45NTMyIDExMC4zMDNaIi8+JiN4YTs8cGF0aCBmaWxsPSJ1cmwoI3BhaW50NV9saW5lYXJfMTI2M18xMjQ1OTApIiBkPSJNNTYuOTUzMiAxMTAuMzAzTDIyOS4zNTIgODQuODM2N0MyMzMuNDUzIDg0LjI3NjcgMjM2Ljc3NiA4MS4yNzQgMjM3LjgyMSA3Ny4zNDM0TDI1NS42MTMgMTIuOTU0NkMyNTUuODU4IDEyLjA3OTkgMjU1Ljk4NiAxMS4xNTcyIDI1NS45ODYgMTAuMjA3OUMyNTUuOTg2IDQuNTcwNjMgMjUxLjQyMSAwIDI0NS43NzggMEMyNDUuMzQxIDAgMjQ0LjkwNCAwLjAyNjY2NjUgMjQ0LjQ4MiAwLjA3OTk5OTRMNzkuOTgyNCAyNC4zODkxQzYyLjExNTggMjcuMjU4NSA0Ny42ODkzIDQwLjQzNyA0My4wMDY3IDU3LjYyNjJMMTkuMjg0MiAxNDMuNjA0QzI0LjA0NjggMTI2LjIxMiAyNi45NzQ4IDExNS43MjcgNTYuOTUzMiAxMTAuMzAzWiIvPiYjeGE7PHBhdGggZmlsbD0idXJsKCNwYWludDZfbGluZWFyXzEyNjNfMTI0NTkwKSIgZD0iTTU2Ljk1MzIgMTEwLjMwM0wyMjkuMzUyIDg0LjgzNjdDMjMzLjQ1MyA4NC4yNzY3IDIzNi43NzYgODEuMjc0IDIzNy44MjEgNzcuMzQzNEwyNTUuNjEzIDEyLjk1NDZDMjU1Ljg1OCAxMi4wNzk5IDI1NS45ODYgMTEuMTU3MiAyNTUuOTg2IDEwLjIwNzlDMjU1Ljk4NiA0LjU3MDYzIDI1MS40MjEgMCAyNDUuNzc4IDBDMjQ1LjM0MSAwIDI0NC45MDQgMC4wMjY2NjY1IDI0NC40ODIgMC4wNzk5OTk0TDc5Ljk4MjQgMjQuMzg5MUM2Mi4xMTU4IDI3LjI1ODUgNDcuNjg5MyA0MC40MzcgNDMuMDA2NyA1Ny42MjYyTDE5LjI4NDIgMTQzLjYwNEMyNC4wNDY4IDEyNi4yMTIgMjYuOTc0OCAxMTUuNzI3IDU2Ljk1MzIgMTEwLjMwM1oiLz4mI3hhOzxwYXRoIGZpbGw9InVybCgjcGFpbnQ3X2xpbmVhcl8xMjYzXzEyNDU5MCkiIGQ9Ik01Ni45NTMyIDExMC4zMDNMMjI5LjM1MiA4NC44MzY3QzIzMy40NTMgODQuMjc2NyAyMzYuNzc2IDgxLjI3NCAyMzcuODIxIDc3LjM0MzRMMjU1LjYxMyAxMi45NTQ2QzI1NS44NTggMTIuMDc5OSAyNTUuOTg2IDExLjE1NzIgMjU1Ljk4NiAxMC4yMDc5QzI1NS45ODYgNC41NzA2MyAyNTEuNDIxIDAgMjQ1Ljc3OCAwQzI0NS4zNDEgMCAyNDQuOTA0IDAuMDI2NjY2NSAyNDQuNDgyIDAuMDc5OTk5NEw3OS45ODI0IDI0LjM4OTFDNjIuMTE1OCAyNy4yNTg1IDQ3LjY4OTMgNDAuNDM3IDQzLjAwNjcgNTcuNjI2MkwxOS4yODQyIDE0My42MDRDMjQuMDQ2OCAxMjYuMjEyIDI2Ljk3NDggMTE1LjcyNyA1Ni45NTMyIDExMC4zMDNaIi8+JiN4YTs8cGF0aCBmaWxsPSJ1cmwoI3BhaW50OF9saW5lYXJfMTI2M18xMjQ1OTApIiBkPSJNNTYuOTUzMiAxMTAuMzAzTDIyOS4zNTIgODQuODM2N0MyMzMuNDUzIDg0LjI3NjcgMjM2Ljc3NiA4MS4yNzQgMjM3LjgyMSA3Ny4zNDM0TDI1NS42MTMgMTIuOTU0NkMyNTUuODU4IDEyLjA3OTkgMjU1Ljk4NiAxMS4xNTcyIDI1NS45ODYgMTAuMjA3OUMyNTUuOTg2IDQuNTcwNjMgMjUxLjQyMSAwIDI0NS43NzggMEMyNDUuMzQxIDAgMjQ0LjkwNCAwLjAyNjY2NjUgMjQ0LjQ4MiAwLjA3OTk5OTRMNzkuOTgyNCAyNC4zODkxQzYyLjExNTggMjcuMjU4NSA0Ny42ODkzIDQwLjQzNyA0My4wMDY3IDU3LjYyNjJMMTkuMjg0MiAxNDMuNjA0QzI0LjA0NjggMTI2LjIxMiAyNi45NzQ4IDExNS43MjcgNTYuOTUzMiAxMTAuMzAzWiIvPiYjeGE7PHBhdGggZmlsbC1vcGFjaXR5PSIwLjQiIGZpbGw9InVybCgjcGFpbnQ5X2xpbmVhcl8xMjYzXzEyNDU5MCkiIGQ9Ik01Ni45NTMyIDExMC4zMDNMMjI5LjM1MiA4NC44MzY3QzIzMy40NTMgODQuMjc2NyAyMzYuNzc2IDgxLjI3NCAyMzcuODIxIDc3LjM0MzRMMjU1LjYxMyAxMi45NTQ2QzI1NS44NTggMTIuMDc5OSAyNTUuOTg2IDExLjE1NzIgMjU1Ljk4NiAxMC4yMDc5QzI1NS45ODYgNC41NzA2MyAyNTEuNDIxIDAgMjQ1Ljc3OCAwQzI0NS4zNDEgMCAyNDQuOTA0IDAuMDI2NjY2NSAyNDQuNDgyIDAuMDc5OTk5NEw3OS45ODI0IDI0LjM4OTFDNjIuMTE1OCAyNy4yNTg1IDQ3LjY4OTMgNDAuNDM3IDQzLjAwNjcgNTcuNjI2MkwxOS4yODQyIDE0My42MDRDMjQuMDQ2OCAxMjYuMjEyIDI2Ljk3NDggMTE1LjcyNyA1Ni45NTMyIDExMC4zMDNaIi8+JiN4YTs8cGF0aCBmaWxsPSJ1cmwoI3BhaW50MTBfbGluZWFyXzEyNjNfMTI0NTkwKSIgZD0iTTU2Ljk1MjcgMTEwLjMwOUMzMS45ODc2IDExNC44MjcgMjUuNzkwMyAxMjIuODY5IDIxLjY2MjMgMTM1LjQ3MkwxLjc4NTE2IDIwOC40OUMxLjc4NTE2IDIwOC40OSA4LjEzNzExIDE4NS4yNDIgMzguODc4MiAxODAuMjcxTDE1Ni4zMzMgMTYzLjE2MkwxNTcuMjAzIDE2My4wMThDMTYxLjUwNyAxNjIuMzYyIDE2NC45NzkgMTU5LjE4OSAxNjYuMDgzIDE1NS4wNjFMMTgzLjU1NCA5MS42MDU1TDU2Ljk1ODEgMTEwLjMwOUg1Ni45NTI3WiIvPiYjeGE7PHBhdGggZmlsbC1vcGFjaXR5PSIwLjIiIGZpbGw9InVybCgjcGFpbnQxMV9saW5lYXJfMTI2M18xMjQ1OTApIiBkPSJNNTYuOTUyNyAxMTAuMzA5QzMxLjk4NzYgMTE0LjgyNyAyNS43OTAzIDEyMi44NjkgMjEuNjYyMyAxMzUuNDcyTDEuNzg1MTYgMjA4LjQ5QzEuNzg1MTYgMjA4LjQ5IDguMTM3MTEgMTg1LjI0MiAzOC44NzgyIDE4MC4yNzFMMTU2LjMzMyAxNjMuMTYyTDE1Ny4yMDMgMTYzLjAxOEMxNjEuNTA3IDE2Mi4zNjIgMTY0Ljk3OSAxNTkuMTg5IDE2Ni4wODMgMTU1LjA2MUwxODMuNTU0IDkxLjYwNTVMNTYuOTU4MSAxMTAuMzA5SDU2Ljk1MjdaIi8+JiN4YTs8cGF0aCBmaWxsPSJ1cmwoI3BhaW50MTJfbGluZWFyXzEyNjNfMTI0NTkwKSIgZD0iTTM4Ljg3OTggMTgwLjI3MkMxMi45MDEzIDE4NC40NzUgNC4zNjgwNCAyMDEuNjggMi4zMzYwNiAyMDYuOTIzQzAuODMyMDY5IDIxMC45MDEgMC4wMTA3NDIyIDIxNS4yMDUgMC4wMTA3NDIyIDIxOS43MDFDMC4wMTA3NDIyIDIzOC4yNCAxNC4wMTYgMjUzLjUwNCAzMi4wMjEyIDI1NS40OThDMzcuMDg3OCAyNTYuMjI5IDQyLjgyMTEgMjU2LjE5MiA0OS4yNDc3IDI1NS4yNDhMNzguNzcyOCAyNTEuMTczQzg2LjE5NjcgMjUwLjE0OSA5Mi4yOTI3IDI0NC43ODkgOTQuMjY2IDIzNy41NTdMMTEyLjc4OSAxNjkuNTFMMzguODg1MSAxODAuMjc4TDM4Ljg3OTggMTgwLjI3MloiIGNsaXAtcnVsZT0iZXZlbm9kZCIgZmlsbC1ydWxlPSJldmVub2RkIi8+JiN4YTs8L2c+JiN4YTs8ZGVmcz4mI3hhOzxsaW5lYXJHcmFkaWVudCBncmFkaWVudFVuaXRzPSJ1c2VyU3BhY2VPblVzZSIgeTI9IjE2Mi45MjIiIHgyPSI1Ny4yOTU2IiB5MT0iMjU2LjAwNCIgeDE9IjU3LjI5NTYiIGlkPSJwYWludDBfbGluZWFyXzEyNjNfMTI0NTkwIj4mI3hhOzxzdG9wIHN0b3AtY29sb3I9IiMyQUFDOTQiIG9mZnNldD0iMC4wNTYiLz4mI3hhOzxzdG9wIHN0b3AtY29sb3I9IiMyMzlDODciIG9mZnNldD0iMC4xNTUiLz4mI3hhOzxzdG9wIHN0b3AtY29sb3I9IiMxNzdFNzEiIG9mZnNldD0iMC4zNzIiLz4mI3hhOzxzdG9wIHN0b3AtY29sb3I9IiMwRTY5NjEiIG9mZnNldD0iMC41ODgiLz4mI3hhOzxzdG9wIHN0b3AtY29sb3I9IiMwOTVENTciIG9mZnNldD0iMC43OTkiLz4mI3hhOzxzdG9wIHN0b3AtY29sb3I9IiMwODU5NTQiIG9mZnNldD0iMSIvPiYjeGE7PC9saW5lYXJHcmFkaWVudD4mI3hhOzxsaW5lYXJHcmFkaWVudCBncmFkaWVudFVuaXRzPSJ1c2VyU3BhY2VPblVzZSIgeTI9IjkwLjcwNDIiIHgyPSI4NS4wMzI1IiB5MT0iMTg4LjQ2NSIgeDE9IjE3NC45MTYiIGlkPSJwYWludDFfbGluZWFyXzEyNjNfMTI0NTkwIj4mI3hhOzxzdG9wIHN0b3AtY29sb3I9IiNBQkU4OEUiIG9mZnNldD0iMC4wNDE3NDc4Ii8+JiN4YTs8c3RvcCBzdG9wLWNvbG9yPSIjMkFBQTkyIiBvZmZzZXQ9IjAuNTQ4OTI2Ii8+JiN4YTs8c3RvcCBzdG9wLWNvbG9yPSIjMTE3ODY1IiBvZmZzZXQ9IjAuOTA2Ii8+JiN4YTs8L2xpbmVhckdyYWRpZW50PiYjeGE7PGxpbmVhckdyYWRpZW50IGdyYWRpZW50VW5pdHM9InVzZXJTcGFjZU9uVXNlIiB5Mj0iMTU0LjU0MiIgeDI9IjM5LjU3MTEiIHkxPSIxODMuNzEyIiB4MT0iLTQ1Ljk2NiIgaWQ9InBhaW50Ml9saW5lYXJfMTI2M18xMjQ1OTAiPiYjeGE7PHN0b3Agc3RvcC1jb2xvcj0iIzZBRDZGOSIvPiYjeGE7PHN0b3Agc3RvcC1vcGFjaXR5PSIwIiBzdG9wLWNvbG9yPSIjNkFENkY5IiBvZmZzZXQ9IjEiLz4mI3hhOzwvbGluZWFyR3JhZGllbnQ+JiN4YTs8bGluZWFyR3JhZGllbnQgZ3JhZGllbnRVbml0cz0idXNlclNwYWNlT25Vc2UiIHkyPSI3MS44MDIxIiB4Mj0iMjQ2Ljk2OCIgeTE9IjcxLjgwMjEiIHgxPSIxOS4yODQyIiBpZD0icGFpbnQzX2xpbmVhcl8xMjYzXzEyNDU5MCI+JiN4YTs8c3RvcCBzdG9wLWNvbG9yPSIjMjVGRkQ0IiBvZmZzZXQ9IjAuMDQzIi8+JiN4YTs8c3RvcCBzdG9wLWNvbG9yPSIjNTVEREI5IiBvZmZzZXQ9IjAuODc0Ii8+JiN4YTs8L2xpbmVhckdyYWRpZW50PiYjeGE7PGxpbmVhckdyYWRpZW50IGdyYWRpZW50VW5pdHM9InVzZXJTcGFjZU9uVXNlIiB5Mj0iMTE0LjYxMiIgeDI9IjE1NS43NDciIHkxPSI5LjkwOTI2IiB4MT0iMTA2LjkyMSIgaWQ9InBhaW50NF9saW5lYXJfMTI2M18xMjQ1OTAiPiYjeGE7PHN0b3Agc3RvcC1vcGFjaXR5PSIwLjYiIHN0b3AtY29sb3I9IiNGNEUwODQiLz4mI3hhOzxzdG9wIHN0b3Atb3BhY2l0eT0iMCIgc3RvcC1jb2xvcj0iI0Y0RTA4NCIgb2Zmc2V0PSIwLjUzNCIvPiYjeGE7PC9saW5lYXJHcmFkaWVudD4mI3hhOzxsaW5lYXJHcmFkaWVudCBncmFkaWVudFVuaXRzPSJ1c2VyU3BhY2VPblVzZSIgeTI9IjQ1LjgzNSIgeDI9IjI1My45OCIgeTE9Ii01NS4yNjQxIiB4MT0iMTg4LjE2MiIgaWQ9InBhaW50NV9saW5lYXJfMTI2M18xMjQ1OTAiPiYjeGE7PHN0b3Agc3RvcC1jb2xvcj0iI0FCRjVFMiIvPiYjeGE7PHN0b3Agc3RvcC1jb2xvcj0iIzRFRTZCRCIgb2Zmc2V0PSIxIi8+JiN4YTs8L2xpbmVhckdyYWRpZW50PiYjeGE7PGxpbmVhckdyYWRpZW50IGdyYWRpZW50VW5pdHM9InVzZXJTcGFjZU9uVXNlIiB5Mj0iMTQzLjYwNCIgeDI9IjEzNy42MzUiIHkxPSIwIiB4MT0iMTM3LjYzNSIgaWQ9InBhaW50Nl9saW5lYXJfMTI2M18xMjQ1OTAiPiYjeGE7PHN0b3Agc3RvcC1jb2xvcj0iIzFGOTM3RSIvPiYjeGE7PHN0b3Agc3RvcC1jb2xvcj0iIzlFRTA5RiIgb2Zmc2V0PSIxIi8+JiN4YTs8L2xpbmVhckdyYWRpZW50PiYjeGE7PGxpbmVhckdyYWRpZW50IGdyYWRpZW50VW5pdHM9InVzZXJTcGFjZU9uVXNlIiB5Mj0iMTQzLjYwNCIgeDI9IjEzNy42MzUiIHkxPSIwIiB4MT0iMTM3LjYzNSIgaWQ9InBhaW50N19saW5lYXJfMTI2M18xMjQ1OTAiPiYjeGE7PHN0b3Agc3RvcC1jb2xvcj0iIzFGOTM3RSIvPiYjeGE7PHN0b3Agc3RvcC1jb2xvcj0iI0MwRUNDNyIgb2Zmc2V0PSIxIi8+JiN4YTs8L2xpbmVhckdyYWRpZW50PiYjeGE7PGxpbmVhckdyYWRpZW50IGdyYWRpZW50VW5pdHM9InVzZXJTcGFjZU9uVXNlIiB5Mj0iMTM1LjIxNiIgeDI9IjIyNC4zODIiIHkxPSIzOS45NzgzIiB4MT0iMTkuMjg0MiIgaWQ9InBhaW50OF9saW5lYXJfMTI2M18xMjQ1OTAiPiYjeGE7PHN0b3Agc3RvcC1jb2xvcj0iIzZBRDZGOSIvPiYjeGE7PHN0b3Agc3RvcC1jb2xvcj0iIzYwRTlEMCIgb2Zmc2V0PSIwLjIyOTUwMSIvPiYjeGE7PHN0b3Agc3RvcC1jb2xvcj0iIzZERTlCQiIgb2Zmc2V0PSIwLjY1MDcxMSIvPiYjeGE7PHN0b3Agc3RvcC1jb2xvcj0iI0FCRTg4RSIgb2Zmc2V0PSIwLjk5MzU0Ii8+JiN4YTs8L2xpbmVhckdyYWRpZW50PiYjeGE7PGxpbmVhckdyYWRpZW50IGdyYWRpZW50VW5pdHM9InVzZXJTcGFjZU9uVXNlIiB5Mj0iODIuNDY2IiB4Mj0iMTQ5Ljc4MSIgeTE9IjU3LjgiIHgxPSIzOC4yNTgiIGlkPSJwYWludDlfbGluZWFyXzEyNjNfMTI0NTkwIj4mI3hhOzxzdG9wIHN0b3Atb3BhY2l0eT0iMCIgc3RvcC1jb2xvcj0id2hpdGUiLz4mI3hhOzxzdG9wIHN0b3AtY29sb3I9IndoaXRlIiBvZmZzZXQ9IjAuNDU4NTExIi8+JiN4YTs8c3RvcCBzdG9wLW9wYWNpdHk9IjAiIHN0b3AtY29sb3I9IndoaXRlIiBvZmZzZXQ9IjEiLz4mI3hhOzwvbGluZWFyR3JhZGllbnQ+JiN4YTs8bGluZWFyR3JhZGllbnQgZ3JhZGllbnRVbml0cz0idXNlclNwYWNlT25Vc2UiIHkyPSI3NS4xMzI4IiB4Mj0iNzcuODcyMiIgeTE9IjE1My4zNDEiIHgxPSI3NS4yMzciIGlkPSJwYWludDEwX2xpbmVhcl8xMjYzXzEyNDU5MCI+JiN4YTs8c3RvcCBzdG9wLW9wYWNpdHk9IjAiIHN0b3AtY29sb3I9IiMwNjNEM0IiIG9mZnNldD0iMC4yMDQ2NDIiLz4mI3hhOzxzdG9wIHN0b3Atb3BhY2l0eT0iMC4yMzY1ODciIHN0b3AtY29sb3I9IiMwNjNEM0IiIG9mZnNldD0iMC41ODU1MyIvPiYjeGE7PHN0b3Agc3RvcC1vcGFjaXR5PSIwLjc1IiBzdG9wLWNvbG9yPSIjMDYzRDNCIiBvZmZzZXQ9IjAuODcyMjg1Ii8+JiN4YTs8L2xpbmVhckdyYWRpZW50PiYjeGE7PGxpbmVhckdyYWRpZW50IGdyYWRpZW50VW5pdHM9InVzZXJTcGFjZU9uVXNlIiB5Mj0iMTYzLjQ4NyIgeDI9Ijg3LjY4NjEiIHkxPSIxNDUuNTYzIiB4MT0iLTcuNjE3OTciIGlkPSJwYWludDExX2xpbmVhcl8xMjYzXzEyNDU5MCI+JiN4YTs8c3RvcCBzdG9wLW9wYWNpdHk9IjAiIHN0b3AtY29sb3I9IndoaXRlIi8+JiN4YTs8c3RvcCBzdG9wLWNvbG9yPSJ3aGl0ZSIgb2Zmc2V0PSIwLjQ1ODUxMSIvPiYjeGE7PHN0b3Agc3RvcC1vcGFjaXR5PSIwIiBzdG9wLWNvbG9yPSJ3aGl0ZSIgb2Zmc2V0PSIxIi8+JiN4YTs8L2xpbmVhckdyYWRpZW50PiYjeGE7PGxpbmVhckdyYWRpZW50IGdyYWRpZW50VW5pdHM9InVzZXJTcGFjZU9uVXNlIiB5Mj0iMTM5LjI5MiIgeDI9IjQyLjYzNTkiIHkxPSIyMzAuMjEzIiB4MT0iNjEuMjI2MyIgaWQ9InBhaW50MTJfbGluZWFyXzEyNjNfMTI0NTkwIj4mI3hhOzxzdG9wIHN0b3Atb3BhY2l0eT0iMCIgc3RvcC1jb2xvcj0iIzA2M0QzQiIgb2Zmc2V0PSIwLjA2NCIvPiYjeGE7PHN0b3Agc3RvcC1vcGFjaXR5PSIwLjEzNSIgc3RvcC1jb2xvcj0iIzA2M0QzQiIgb2Zmc2V0PSIwLjE3Ii8+JiN4YTs8c3RvcCBzdG9wLW9wYWNpdHk9IjAuNTk5IiBzdG9wLWNvbG9yPSIjMDYzRDNCIiBvZmZzZXQ9IjAuNTYyIi8+JiN4YTs8c3RvcCBzdG9wLW9wYWNpdHk9IjAuOSIgc3RvcC1jb2xvcj0iIzA2M0QzQiIgb2Zmc2V0PSIwLjg1Ii8+JiN4YTs8c3RvcCBzdG9wLWNvbG9yPSIjMDYzRDNCIiBvZmZzZXQ9IjEiLz4mI3hhOzwvbGluZWFyR3JhZGllbnQ+JiN4YTs8Y2xpcFBhdGggaWQ9ImNsaXAwXzEyNjNfMTI0NTkwIj4mI3hhOzxyZWN0IGZpbGw9IndoaXRlIiBoZWlnaHQ9IjI1NS45OTgiIHdpZHRoPSIyNTUuOTk4Ii8+JiN4YTs8L2NsaXBQYXRoPiYjeGE7PC9kZWZzPiYjeGE7PC9zdmc+;fontFamily=Segoe UI;fontSize=14;" parent="1" vertex="1">
                    <mxGeometry x="1063.12" y="625.6700000000001" width="50" height="50" as="geometry"/>
                </mxCell>
                <mxCell id="91" value="" style="verticalLabelPosition=bottom;html=1;verticalAlign=top;align=center;strokeColor=none;fillColor=#00BEF2;shape=mxgraph.azure.git_repository;labelBackgroundColor=default;" vertex="1" parent="1">
                    <mxGeometry x="460.08" y="122.85" width="70.85" height="72.33" as="geometry"/>
                </mxCell>
                <mxCell id="92" value="" style="verticalLabelPosition=bottom;html=1;verticalAlign=top;align=center;strokeColor=none;fillColor=#00BEF2;shape=mxgraph.azure.git_repository;labelBackgroundColor=default;" vertex="1" parent="1">
                    <mxGeometry x="778.9999999999999" y="122.85" width="70.85" height="72.33" as="geometry"/>
                </mxCell>
                <mxCell id="93" value="" style="verticalLabelPosition=bottom;html=1;verticalAlign=top;align=center;strokeColor=none;fillColor=#00BEF2;shape=mxgraph.azure.git_repository;labelBackgroundColor=default;" vertex="1" parent="1">
                    <mxGeometry x="1099.58" y="124" width="70.85" height="72.33" as="geometry"/>
                </mxCell>
                <mxCell id="94" value="" style="sketch=0;aspect=fixed;html=1;points=[];align=center;image;fontSize=12;image=img/lib/mscae/Azure_Pipelines.svg;" vertex="1" parent="1">
                    <mxGeometry x="620.5" y="124" width="64.01" height="64.01" as="geometry"/>
                </mxCell>
                <mxCell id="95" value="" style="sketch=0;aspect=fixed;html=1;points=[];align=center;image;fontSize=12;image=img/lib/mscae/Azure_Pipelines.svg;" vertex="1" parent="1">
                    <mxGeometry x="940" y="122.85" width="64.01" height="64.01" as="geometry"/>
                </mxCell>
            </root>
        </mxGraphModel>
    </diagram>
</mxfile>
